<?xml version="1.0" encoding="UTF-8"?>
<svg xmlns="http://www.w3.org/2000/svg" xmlns:xlink="http://www.w3.org/1999/xlink" width="24px" height="24px" viewBox="0 0 24 24" version="1.1">
  <title>bbpd_矩形</title>
  <defs>
    <rect id="path-1" x="0" y="0" width="24" height="24"/>
  </defs>
  <g id="页面-1" stroke="none" stroke-width="1" fill="none" fill-rule="evenodd">
    <g id="类目选择" transform="translate(-331.000000, -528.000000)">
      <g id="icon-关闭" transform="translate(331.000000, 528.000000)">
        <mask id="mask-2" fill="white">
          <use xlink:href="#path-1"/>
        </mask>
        <g id="矩形"/>
        <path d="M12,2.26666667 C12.5522847,2.26666667 13,2.71438192 13,3.26666667 L12.9996667,10.9996667 L20.7333333,11 C21.2856181,11 21.7333333,11.4477153 21.7333333,12 C21.7333333,12.5522847 21.2856181,13 20.7333333,13 L12.9996667,12.9996667 L13,20.7333333 C13,21.2856181 12.5522847,21.7333333 12,21.7333333 C11.4477153,21.7333333 11,21.2856181 11,20.7333333 L10.9996667,12.9996667 L3.26666667,13 C2.71438192,13 2.26666667,12.5522847 2.26666667,12 C2.26666667,11.4477153 2.71438192,11 3.26666667,11 L10.9996667,10.9996667 L11,3.26666667 C11,2.71438192 11.4477153,2.26666667 12,2.26666667 Z" id="形状结合" fill="#000000" mask="url(#mask-2)" transform="translate(12.000000, 12.000000) rotate(-315.000000) translate(-12.000000, -12.000000) "/>
      </g>
    </g>
  </g>
</svg>
