<?xml version="1.0" encoding="UTF-8"?>
<svg xmlns="http://www.w3.org/2000/svg" xmlns:xlink="http://www.w3.org/1999/xlink" width="24px" height="24px" viewBox="0 0 24 24" version="1.1">
  <title>bbpd_切片</title>
  <g id="页面-1" stroke="none" stroke-width="1" fill="none" fill-rule="evenodd">
    <g id="类目选择" transform="translate(-224.000000, -579.000000)" fill="#32C5FF">
      <g id="控件/List/Title+More+Information" transform="translate(0.000000, 564.000000)">
        <g id="控件/Radio/Normal" transform="translate(224.000000, 15.000000)">
          <g transform="translate(5.000000, 7.000000)" id="fill">
            <path d="M14.6931973,0.318395366 C15.0992501,0.722794175 15.100591,1.37979502 14.6961922,1.78584783 C14.6893561,1.79271188 14.6824242,1.79947986 14.6753986,1.80614978 L6.39947634,9.66306104 L6.38666814,9.67582341 C6.38293106,9.6796898 6.37915873,9.68353479 6.37535113,9.68735796 C6.37433495,9.68837829 6.3733167,9.68939655 6.37229637,9.69041272 C5.95592888,10.1050842 5.28266087,10.1050842 4.86629338,9.69041272 L0.312942552,5.15560933 C-0.101234698,4.74311918 -0.102602357,4.07297283 0.309887799,3.65879558 L0.312942552,3.65574083 C0.72931004,3.24106936 1.40257806,3.24106936 1.81894555,3.65574083 L5.62941268,7.4505447 L13.16318,0.300090981 C13.5940592,-0.108972779 14.2722277,-0.1008595 14.6931973,0.318395366 Z"/>
          </g>
        </g>
      </g>
    </g>
  </g>
</svg>
