<?xml version="1.0" encoding="UTF-8"?>
<svg xmlns="http://www.w3.org/2000/svg" xmlns:xlink="http://www.w3.org/1999/xlink" width="24px" height="24px" viewBox="0 0 24 24" version="1.1">
  <title>bbpd_形状结合</title>
  <g id="形状结合" stroke="none" stroke-width="1" fill="none" fill-rule="evenodd">
    <path d="M11.995704,22 C11.9784621,22 11.9612738,21.9998756 11.9441391,21.9996269 L12,22 C11.9305266,22 11.861596,21.997711 11.7932804,21.9932475 C11.477285,21.9756328 11.1801459,21.9131926 10.9019343,21.8068268 C9.94317533,21.4627923 9.21650275,20.7135433 9,20 C8.98481647,19.4590419 8.95719349,19 9,19 L15,19 L15,19 C15.0081359,19 15.014606,19.1032683 15.0158071,19.2799024 L15.0151183,19.4798844 C15.0133104,19.6280325 15.0086268,19.8043577 15,20 C14.749908,20.8075901 13.8639542,21.6503719 12.7305244,21.9152421 C12.698671,21.9231584 12.6664553,21.9303538 12.634025,21.9370201 C12.604561,21.9422142 12.5752462,21.947719 12.545785,21.9528291 C12.5037679,21.9610824 12.4607805,21.9676177 12.417431,21.97326 C12.3859265,21.976604 12.3549319,21.9802409 12.3237979,21.9834301 C12.2171306,21.9946414 12.1075039,22 11.995704,22 L12.2131608,21.9928218 C12.1427377,21.9975658 12.0716578,22 12,22 Z M12.0049806,2 C12.702269,2 13.2899834,2.21069959 13.768124,2.63209877 C14.2462645,3.05349794 14.5783066,3.57037037 14.7642501,4.18271605 C15.5877144,4.47242798 16.255119,4.93168724 16.7664638,5.56049383 C17.2778085,6.18930041 17.6579967,6.96131687 17.9070282,7.87654321 C18.1560598,8.79176955 18.2971776,9.83209877 18.3303818,10.9975309 C18.3635861,11.3860082 18.4100719,11.78107 18.4698395,12.182716 C18.5296071,12.5843621 18.6192584,12.9580247 18.7387936,13.3037037 C18.8583287,13.6493827 19.0243498,13.927572 19.2368567,14.1382716 C19.6552297,14.5465021 20.0536801,14.9662551 20.4322081,15.3975309 C20.810736,15.8288066 21,16.2847737 21,16.7654321 C21,17.1407407 20.8671832,17.4403292 20.6015495,17.6641975 C20.3359159,17.8880658 19.9706696,18 19.5058107,18 L19.5058107,18 L4.49418926,18 C4.02933038,18 3.66408412,17.8880658 3.39845047,17.6641975 C3.13281682,17.4403292 3,17.1407407 3,16.7654321 C3,16.2847737 3.18926397,15.8288066 3.56779192,15.3975309 C3.94631987,14.9662551 4.34477034,14.5465021 4.76314333,14.1382716 C4.97565025,13.927572 5.14167128,13.6493827 5.26120642,13.3037037 C5.38074156,12.9580247 5.46873271,12.5843621 5.52517986,12.182716 C5.58162701,11.78107 5.6297731,11.3860082 5.66961815,10.9975309 C5.70282236,9.83209877 5.84394023,8.79176955 6.09297178,7.87654321 C6.34200332,6.96131687 6.72219148,6.18930041 7.23353625,5.56049383 C7.74488102,4.93168724 8.41228556,4.47242798 9.23574986,4.18271605 C9.42169341,3.57037037 9.75539568,3.05349794 10.2368567,2.63209877 C10.7183177,2.21069959 11.3076923,2 12.0049806,2 Z" fill="#FFFFFF" fill-rule="nonzero"/>
  </g>
</svg>
