<svg width="20" height="20" viewBox="0 0 20 20" xmlns="http://www.w3.org/2000/svg"><g fill="none" fill-rule="evenodd"><path d="M20 20H0V0h20z"/><g stroke-linecap="round" stroke-linejoin="round" stroke="#202020" stroke-width="1.5"><path d="M15 17.5H5A2.5 2.5 0 0 1 2.5 15V5A2.5 2.5 0 0 1 5 2.5h10A2.5 2.5 0 0 1 17.5 5v10a2.5 2.5 0 0 1-2.5 2.5z"/><path d="M8.323 6.26A1.458 1.458 0 1 1 6.26 8.323 1.458 1.458 0 0 1 8.323 6.26M17.5 8.424a8.112 8.112 0 0 0-1.146-.09 8.02 8.02 0 0 0-8.02 8.02c0 .39.037.771.09 1.146"/></g></g></svg>