<svg width="20" height="20" viewBox="0 0 20 20" xmlns="http://www.w3.org/2000/svg"><g transform="translate(1.667 1.667)" fill="#202020" fill-rule="evenodd" fill-opacity=".6"><path d="M.833 5a.833.833 0 1 1 0-1.667h3.334V2.5a2.5 2.5 0 0 1 2.5-2.5H10a2.5 2.5 0 0 1 2.5 2.5v.833h3.333a.833.833 0 1 1 0 1.667h-15zM10 1.667H6.667a.833.833 0 0 0-.834.833v.833h5V2.5A.833.833 0 0 0 10 1.667z"/><path d="M13.75 5.833c.427 0 .78.322.828.736l.005.098V13a2.833 2.833 0 0 1-2.678 2.83l-.155.003H4.917a2.833 2.833 0 0 1-2.83-2.678L2.084 13V6.667a.833.833 0 0 1 1.661-.098l.006.098V13c0 .606.463 1.105 1.054 1.161l.113.006h6.833c.606 0 1.105-.463 1.161-1.055l.006-.112V6.667c0-.46.373-.834.833-.834z" fill-rule="nonzero"/><rect x="7.5" y="6.25" width="1.667" height="5.833" rx=".833"/></g></svg>