<svg width="20" height="20" viewBox="0 0 20 20" xmlns="http://www.w3.org/2000/svg"><g fill="none" fill-rule="evenodd"><path d="M0 0h20v20H0z"/><path d="M11.667 2.5H5A2.5 2.5 0 0 0 2.5 5v7.5A2.5 2.5 0 0 0 5 15h1.673v2.036a.463.463 0 0 0 .752.362L10.422 15H15a2.5 2.5 0 0 0 2.5-2.5V8.333M5.833 10.833h7.5M5.833 7.5h3.334" stroke="#202020" stroke-width="1.5" stroke-linecap="round" stroke-linejoin="round"/><path d="M17.256 3.518l-.774-.774a.833.833 0 0 0-1.178 0l-2.56 2.56a.833.833 0 0 0-.244.589v1.19c0 .23.187.417.417.417h1.19a.833.833 0 0 0 .59-.244l2.559-2.56a.833.833 0 0 0 0-1.178z" stroke="#202020" stroke-width="1.5" stroke-linecap="round" stroke-linejoin="round"/></g></svg>