<?xml version="1.0" encoding="UTF-8"?>
<svg xmlns="http://www.w3.org/2000/svg" xmlns:xlink="http://www.w3.org/1999/xlink" width="20px" height="20px" viewBox="0 0 20 20" version="1.1">
  <title>bbpd_icon-清空</title>
  <g id="粉丝清理" stroke="none" stroke-width="1" fill="none" fill-rule="evenodd">
    <g id="异常粉丝一键清理" transform="translate(-324.000000, -215.000000)">
      <g id="编组-3" transform="translate(16.000000, 207.000000)">
        <g id="icon-清空备份" transform="translate(308.000000, 8.000000)">
          <rect id="矩形" fill="#202020" x="2.5" y="5.83333333" width="15" height="1.66666667" rx="0.833333333"/>
          <path d="M8.33333333,9.16666667 C8.79357062,9.16666667 9.16666667,9.53976271 9.16666667,10 L9.16666667,13.3333333 C9.16666667,13.7935706 8.79357062,14.1666667 8.33333333,14.1666667 C7.87309604,14.1666667 7.5,13.7935706 7.5,13.3333333 L7.5,10 C7.5,9.53976271 7.87309604,9.16666667 8.33333333,9.16666667 Z" id="矩形备份" fill="#202020"/>
          <path d="M11.6666667,9.16666667 C12.126904,9.16666667 12.5,9.53976271 12.5,10 L12.5,13.3333333 C12.5,13.7935706 12.126904,14.1666667 11.6666667,14.1666667 C11.2064294,14.1666667 10.8333333,13.7935706 10.8333333,13.3333333 L10.8333333,10 C10.8333333,9.53976271 11.2064294,9.16666667 11.6666667,9.16666667 Z" id="矩形备份-2" fill="#202020"/>
          <path d="M4.16666667,6.66666667 L4.89372314,14.7681531 C5.03253168,16.3148768 6.32877498,17.5 7.88171476,17.5 L12.1182852,17.5 C13.671225,17.5 14.9674683,16.3148768 15.1062769,14.7681531 L15.8333333,6.66666667 L15.8333333,6.66666667" id="路径-2" stroke="#202020" stroke-width="2"/>
          <path d="M6.66666667,6.07519137 L6.66666667,5.33333333 C6.66666667,4.22876383 7.56209717,3.33333333 8.66666667,3.33333333 L11.3333333,3.33333333 C12.4379028,3.33333333 13.3333333,4.22876383 13.3333333,5.33333333 L13.3333333,6.66666667 L13.3333333,6.66666667" id="路径-4" stroke="#202020" stroke-width="2"/>
        </g>
      </g>
    </g>
  </g>
</svg>
