<svg width="24" height="24" viewBox="0 0 24 24" xmlns="http://www.w3.org/2000/svg"><g fill="none" fill-rule="evenodd"><path d="M12 2.25a9.72 9.72 0 0 1 6.894 2.856A9.72 9.72 0 0 1 21.75 12a9.72 9.72 0 0 1-2.856 6.894A9.72 9.72 0 0 1 12 21.75a9.72 9.72 0 0 1-6.894-2.856A9.72 9.72 0 0 1 2.25 12a9.72 9.72 0 0 1 2.856-6.894A9.72 9.72 0 0 1 12 2.25z" stroke="#202020" stroke-width="2.5"/><rect fill="#202020" x="10.75" y="10.5" width="2.5" height="6.5" rx="1.25"/><rect fill="#202020" x="10.75" y="7" width="2.5" height="2.5" rx="1.25"/></g></svg>