<svg width="40" height="40" viewBox="0 0 40 40" xmlns="http://www.w3.org/2000/svg" xmlns:xlink="http://www.w3.org/1999/xlink"><defs><linearGradient x1="50%" y1="100%" x2="50%" y2="0%" id="a"><stop stop-color="#FFF" stop-opacity=".7" offset="0%"/><stop stop-color="#FFF" offset="100%"/></linearGradient><path d="M33.043 16.6c1.081 0 1.957.856 1.957 1.912 0 7.45-5.684 13.602-13.043 14.54v2.02A1.929 1.929 0 0 1 20.028 37h-.056a1.929 1.929 0 0 1-1.929-1.929v-2.02C10.683 32.114 5 25.962 5 18.512c0-1.056.876-1.912 1.957-1.912 1.08 0 1.956.856 1.956 1.912 0 5.986 4.964 10.838 11.087 10.838 6.123 0 11.087-4.852 11.087-10.838 0-1.056.876-1.912 1.956-1.912zM20 3c4.597 0 8.34 3.577 8.475 8.039l.003.248v6.8c0 4.578-3.796 8.288-8.478 8.288-4.597 0-8.34-3.577-8.475-8.039l-.003-.248v-6.8C11.522 6.71 15.318 3 20 3z" id="b"/></defs><g fill="none" fill-rule="evenodd"><use fill="url(#a)" xlink:href="#b"/><use fill="#FFF" xlink:href="#b"/></g></svg>