<svg width="24" height="24" viewBox="0 0 24 24" fill="none" xmlns="http://www.w3.org/2000/svg"><mask id="a" style="mask-type:alpha" maskUnits="userSpaceOnUse" x="0" y="0" width="24" height="24"><path fill="#fff" d="M0 0h24v24H0z"/></mask><g mask="url(#a)" fill-rule="evenodd" clip-rule="evenodd" fill="#202020"><path d="M11.592 22a7.62 7.62 0 0 1 4.452-11.12 5.714 5.714 0 1 0-9.383.191C3.25 12.301 2 14.893 2 17.476 2 21.048 5.571 22 11.524 22h.068z"/><path d="M22.383 18.529a2 2 0 0 0 0-2.058l-1.5-2.5A2 2 0 0 0 19.168 13h-3.136a2 2 0 0 0-1.715.971l-1.5 2.5a2 2 0 0 0 0 2.058l1.5 2.5a2 2 0 0 0 1.715.971h3.136a2 2 0 0 0 1.714-.971l1.5-2.5zM17.6 19a1.5 1.5 0 1 0 0-3 1.5 1.5 0 0 0 0 3z"/></g></svg>