<?xml version="1.0" encoding="UTF-8"?>
<svg xmlns="http://www.w3.org/2000/svg" xmlns:xlink="http://www.w3.org/1999/xlink" width="24px" height="24px" viewBox="0 0 24 24" version="1.1">
  <title>bbpd_6E5C7CAB-784E-447D-BD12-B7F2411B07DF</title>
  <g id="皮队友规范" stroke="none" stroke-width="1" fill="none" fill-rule="evenodd">
    <g id="02.-Typgraphy备份-4" transform="translate(-720.000000, -336.000000)" fill="#202020">
      <g id="icon-更多" transform="translate(720.000000, 336.000000)">
        <path d="M12,1 C18.0751322,1 23,5.92486775 23,12 C23,18.0751322 18.0751322,23 12,23 C5.92486775,23 1,18.0751322 1,12 C1,5.92486775 5.92486775,1 12,1 Z M12.0333333,6.26666667 C11.2049062,6.26666667 10.5333333,6.93823954 10.5333333,7.76666667 L10.5333333,7.76666667 L10.5326667,10.5326667 L7.76666667,10.5333333 C6.93823954,10.5333333 6.26666667,11.2049062 6.26666667,12.0333333 C6.26666667,12.8617605 6.93823954,13.5333333 7.76666667,13.5333333 L7.76666667,13.5333333 L10.5326667,13.5326667 L10.5333333,16.3 C10.5333333,17.1284271 11.2049062,17.8 12.0333333,17.8 C12.8617605,17.8 13.5333333,17.1284271 13.5333333,16.3 L13.5333333,16.3 L13.5326667,13.5326667 L16.3,13.5333333 C17.1284271,13.5333333 17.8,12.8617605 17.8,12.0333333 C17.8,11.2049062 17.1284271,10.5333333 16.3,10.5333333 L16.3,10.5333333 L13.5326667,10.5326667 L13.5333333,7.76666667 C13.5333333,6.93823954 12.8617605,6.26666667 12.0333333,6.26666667 Z" id="形状结合"/>
      </g>
    </g>
  </g>
</svg>
