<?xml version="1.0" encoding="UTF-8"?>
<svg xmlns="http://www.w3.org/2000/svg" xmlns:xlink="http://www.w3.org/1999/xlink" width="24px" height="24px" viewBox="0 0 24 24" version="1.1">
  <title>bbpd_B6E83003-7F22-4045-89AC-E9A02D004382</title>
  <g id="皮队友规范" stroke="none" stroke-width="1" fill="none" fill-rule="evenodd">
    <g id="02.-Typgraphy备份-4" transform="translate(-600.000000, -336.000000)">
      <g id="icon-通讯录" transform="translate(600.000000, 336.000000)">
        <path d="M16.6,2 C18.809139,2 20.6,3.790861 20.6,6 L20.6,17.8 C20.6,20.009139 18.809139,21.8 16.6,21.8 L7.26666667,21.8 C5.05752767,21.8 3.26666667,20.009139 3.26666667,17.8 L3.26666667,17.4 L4.43333333,17.4 C5.21302945,17.4 5.85378201,16.8051119 5.92646676,16.04446 L5.93333333,15.9 C5.93333333,15.0715729 5.26176046,14.4 4.43333333,14.4 L4.43333333,14.4 L3.26666667,14.4 L3.26666667,13.4 L4.43333333,13.4 C5.21302945,13.4 5.85378201,12.8051119 5.92646676,12.04446 L5.93333333,11.9 C5.93333333,11.0715729 5.26176046,10.4 4.43333333,10.4 L4.43333333,10.4 L3.26666667,10.4 L3.26666667,9.466 L4.43333333,9.46666667 C5.21302945,9.46666667 5.85378201,8.87177858 5.92646676,8.11112668 L5.93333333,7.96666667 C5.93333333,7.13823954 5.26176046,6.46666667 4.43333333,6.46666667 L4.43333333,6.46666667 L3.26666667,6.466 L3.26666667,6 C3.26666667,3.790861 5.05752767,2 7.26666667,2 L16.6,2 Z" id="形状结合" fill="#000000"/>
        <path d="M11.928,13.128 L13.0994055,13.5813349 C13.5182927,13.7432562 13.8795208,13.9921805 14.1269812,14.3127038 C14.3144132,14.5554754 14.4333333,14.841189 14.4333333,15.1523672 C14.3275625,15.1487787 13.7868812,15.0327489 13.1854342,15.006586 C12.7898293,14.9893772 12.3692959,14.9715154 11.9333333,14.9715154 C11.4973708,14.9715154 11.0768374,14.9893772 10.6812325,15.006586 C10.0797855,15.0327489 9.53910418,15.1487787 9.19887017,14.9851616 C9.43333333,14.8410763 9.55233492,14.5552798 9.73978426,14.3122885 C9.98763606,13.9909974 10.3494931,13.741275 10.7690827,13.5783884 L10.7690827,13.5783884 L11.928,13.128 Z M11.9333333,8.96666667 C12.2554994,8.96666667 12.5471661,9.09725028 12.7582912,9.30837542 C12.9694164,9.51950056 13.1,9.81116723 13.1,10.1333333 C13.1,10.4939165 12.9362717,10.8161292 12.6795095,11.0302664 L12.6795095,11.0302664 L11.936,11.65 L11.1846333,11.0261559 C10.9608314,10.8402743 10.8086771,10.5709888 10.7741355,10.2660601 L10.7666667,10.1333333 C10.7666667,9.81116723 10.8972503,9.51950056 11.1083754,9.30837542 C11.3195006,9.09725028 11.6111672,8.96666667 11.9333333,8.96666667 Z" id="形状结合" stroke="#FFFFFF" stroke-width="3"/>
      </g>
    </g>
  </g>
</svg>
