<?xml version="1.0" encoding="UTF-8"?>
<svg xmlns="http://www.w3.org/2000/svg" xmlns:xlink="http://www.w3.org/1999/xlink" width="20px" height="20px" viewBox="0 0 20 20" version="1.1">
  <title>bbpd_ic_report</title>
  <defs>
    <rect id="path-1" x="0" y="0" width="20" height="20"/>
  </defs>
  <g id="ic_report" stroke="none" stroke-width="1" fill="none" fill-rule="evenodd" opacity="0.400000006">
    <g>
      <mask id="mask-2" fill="white">
        <use xlink:href="#path-1"/>
      </mask>
      <g id="FlagBanner-1-(Background/Mask)"/>
      <g id="Group" mask="url(#mask-2)" fill="#313131" fill-rule="nonzero">
        <g transform="translate(2.125000, 2.750000)" id="Vector">
          <path d="M12.9986339,0 C14.1032034,0 14.9986347,0.8954305 14.9986347,2 C14.9986347,2.46457833 14.8369806,2.91275002 14.5444296,3.26906872 L14.4286472,3.39823526 L12.19,5.687 L14.4286472,7.97676474 C15.1602279,8.72497221 15.1859628,9.90081972 14.5151238,10.6791192 L14.3968691,10.8050133 C14.0646925,11.1298082 13.6312321,11.3275498 13.1719343,11.3674826 L12.9986339,11.375 L2,11.375 L2,14.125 C2,14.6378358 1.61395981,15.0605072 1.11662113,15.1182723 L1,15.125 C0.487164161,15.125 0.0644928393,14.7389598 0.00672773133,14.2416211 L0,14.125 L0,1 C0,0.487164161 0.38604019,0.0644928393 0.883378875,0.00672773133 L1,0 L12.9986339,0 Z M2,2 L2,9.375 L12.9986339,9.375 L10.07666,6.38661763 C9.72589897,6.02788477 9.69891736,5.47117026 9.99571515,5.08197868 L10.07666,4.98838237 L12.9986339,2 L2,2 Z"/>
        </g>
      </g>
    </g>
  </g>
</svg>
