<?xml version="1.0"?>
<svg xmlns="http://www.w3.org/2000/svg" width="24" height="24" viewBox="0 0 24 24">
  <title>bbpd_&#x8499;&#x7248;@3x</title>
  <path fill="#FFF" fill-rule="nonzero" d="M17.469 17.467a1.05 1.05 0 0 0 .008-1.461l-3.618-3.617 3.618-3.625a1.05 1.05 0 0 0-.008-1.461 1.042 1.042 0 0 0-1.461-.008l-3.625 3.617-3.625-3.625c-.375-.375-1.063-.39-1.461.008-.399.398-.39 1.086-.008 1.469l3.625 3.625-3.625 3.625c-.383.375-.39 1.062.008 1.46.398.399 1.086.383 1.46.008l3.626-3.625 3.625 3.618c.39.39 1.062.398 1.46-.008z" opacity=".4"/>
</svg>
