<?xml version="1.0" encoding="UTF-8"?>
<svg xmlns="http://www.w3.org/2000/svg" xmlns:xlink="http://www.w3.org/1999/xlink" width="84px" height="100px" viewBox="0 0 84 100" version="1.1">
  <title>bbpd_outter</title>
  <defs>
    <linearGradient x1="14.72%" y1="0%" x2="85.28%" y2="100%" id="linearGradient-1">
      <stop stop-color="#6D5DFF" offset="0%"/>
      <stop stop-color="#C56AFF" offset="100%"/>
    </linearGradient>
  </defs>
  <g id="心愿礼物" stroke="none" stroke-width="1" fill="none" fill-rule="evenodd">
    <g id="心愿礼物备份-4" transform="translate(-193.000000, -474.000000)" stroke="url(#linearGradient-1)">
      <g id="编组-8" transform="translate(0.000000, 474.000000)">
        <g id="编组" transform="translate(17.000000, 0.000000)">
          <path d="M248,0.5 C251.175637,0.5 254.050637,1.78718134 256.131728,3.86827202 C258.212819,5.94936269 259.5,8.82436269 259.5,12 L259.5,12 L259.5,88 C259.5,91.1756373 258.212819,94.0506373 256.131728,96.131728 C254.050637,98.2128187 251.175637,99.5 248,99.5 L248,99.5 L188,99.5 C184.824363,99.5 181.949363,98.2128187 179.868272,96.131728 C177.787181,94.0506373 176.5,91.1756373 176.5,88 L176.5,88 L176.5,12 C176.5,8.82436269 177.787181,5.94936269 179.868272,3.86827202 C181.949363,1.78718134 184.824363,0.5 188,0.5 L188,0.5 Z" id="outter"/>
        </g>
      </g>
    </g>
  </g>
</svg>
