<?xml version="1.0" encoding="UTF-8"?>
<svg width="56px" height="56px" viewBox="0 0 56 56" version="1.1" xmlns="http://www.w3.org/2000/svg" xmlns:xlink="http://www.w3.org/1999/xlink">
    <title>slp_2</title>
    <defs>
        <linearGradient x1="0%" y1="0%" x2="100%" y2="100%" id="linearGradient-1">
            <stop stop-color="#60C8FF" offset="0%"></stop>
            <stop stop-color="#79E2FF" offset="100%"></stop>
        </linearGradient>
    </defs>
    <g id="页面-1" stroke="none" stroke-width="1" fill="none" fill-rule="evenodd">
        <g id="添加好友无卡" transform="translate(-113.000000, -182.000000)">
            <g id="card2" transform="translate(20.000000, 170.000000)">
                <g id="2" transform="translate(93.000000, 12.000000)">
                    <path d="M28,0 C43.463973,-2.84068575e-15 56,12.536027 56,28 C56,43.463973 43.463973,56 28,56 C12.536027,56 -1.23170642e-14,43.463973 0,28 C-1.8937905e-15,12.536027 12.536027,2.84068575e-15 28,0 Z" id="entry" fill="url(#linearGradient-1)" fill-rule="nonzero"></path>
                    <g id="1" transform="translate(14.000000, 14.000000)" fill="#FFFFFF">
                        <path d="M22.0992502,20.1827247 C21.6541845,20.2351264 20.3670368,18.1997536 20.3670368,18.1997536 C20.3670368,19.3782758 19.7439882,20.9161376 18.3958315,22.0267254 C19.0461024,22.2218573 20.5135257,22.7473786 20.164438,23.3208839 C19.8819098,23.784886 15.3180919,23.617177 14.0005603,23.472614 C12.6829322,23.617177 8.11911421,23.784886 7.83658606,23.3208839 C7.48740182,22.7474491 8.95320818,22.2225153 9.60444439,22.0268899 C8.25609464,20.9163255 7.63285302,19.3783463 7.63285302,18.1997536 C7.63285302,18.1997536 6.34577763,20.2351264 5.90073606,20.1827247 C5.69343129,20.1583097 5.42099084,19.0681891 6.26169733,16.4340735 C6.6579173,15.1925048 7.11097112,14.160308 7.81177706,12.4570165 C7.69376538,8.06196754 9.55880838,4.375 13.9999811,4.375 C18.3916806,4.375 20.299898,7.98935706 20.1882816,12.4571105 C20.8878809,14.1573707 21.3432998,15.1960765 21.7383855,16.4340735 C22.5788989,19.0681891 22.3066515,20.1582157 22.0992502,20.1827247 Z"></path>
                    </g>
                </g>
            </g>
        </g>
    </g>
</svg>