<?xml version="1.0" encoding="UTF-8"?>
<svg width="42px" height="42px" viewBox="0 0 42 42" version="1.1" xmlns="http://www.w3.org/2000/svg" xmlns:xlink="http://www.w3.org/1999/xlink">
    <g id="页面-1" stroke="none" stroke-width="1" fill="none" fill-rule="evenodd">
        <g id="三房混战面板-B方案" transform="translate(-83.000000, -531.000000)">
            <g id="编组" transform="translate(0.000000, 306.000000)">
                <g id="banner备份" transform="translate(20.000000, 216.000000)">
                    <g id="编组-12" transform="translate(64.000000, 10.000000)">
                        <path d="M20,40 C31.045695,40 40,31.045695 40,20 C40,8.954305 31.045695,0 20,0 C8.954305,0 0,8.954305 0,20 C0,31.045695 8.954305,40 20,40 Z" id="avatar备份-2" stroke="#EFF9FF" stroke-linecap="round" stroke-linejoin="round" stroke-dasharray="4,5"></path>
                        <path d="M20,13 C20.4832492,13 20.875,13.3917508 20.875,13.875 L20.875,19.125 L26.125,19.125 C26.6082492,19.125 27,19.5167508 27,20 C27,20.4832492 26.6082492,20.875 26.125,20.875 L20.875,20.875 L20.875,26.125 C20.875,26.6082492 20.4832492,27 20,27 C19.5167508,27 19.125,26.6082492 19.125,26.125 L19.125,20.875 L13.875,20.875 C13.3917508,20.875 13,20.4832492 13,20 C13,19.5167508 13.3917508,19.125 13.875,19.125 L19.125,19.125 L19.125,13.875 C19.125,13.3917508 19.5167508,13 20,13 Z" id="形状结合" fill="#FFFFFF"></path>
                    </g>
                </g>
            </g>
        </g>
    </g>
</svg>