<?xml version="1.0" encoding="UTF-8"?>
<svg width="12px" height="12px" viewBox="0 0 12 12" version="1.1" xmlns="http://www.w3.org/2000/svg" xmlns:xlink="http://www.w3.org/1999/xlink">
    <defs>
        <linearGradient x1="100%" y1="50%" x2="0.271853885%" y2="50%" id="linearGradient-1">
            <stop stop-color="#FFAB8F" offset="0%"></stop>
            <stop stop-color="#FF67A8" offset="100%"></stop>
        </linearGradient>
    </defs>
    <g id="页面-1" stroke="none" stroke-width="1" fill="none" fill-rule="evenodd">
        <g id="三房混战面板-A方案" transform="translate(-118.000000, -633.000000)" fill="url(#linearGradient-1)">
            <g id="编组" transform="translate(0.000000, 306.000000)">
                <g id="编组-11" transform="translate(0.000000, 292.000000)">
                    <g id="Group-2" transform="translate(20.000000, 10.000000)">
                        <g id="Group-20" transform="translate(50.000000, 3.000000)">
                            <g id="people备份" transform="translate(48.000000, 22.000000)">
                                <path d="M6.42116009,1.53778472 C6.36276426,0.884942059 7.18718956,0.486406378 7.68655753,0.952554615 C8.15486558,1.38254594 8.57922074,1.86803184 8.95656986,2.40156055 C9.95659699,3.82455144 10.5,5.4839111 10.5,7.21564532 C10.5,9.61264306 8.4837819,11.55 6,11.55 C3.5162181,11.55 1.5,9.61264306 1.5,7.21564532 C1.5,5.93288416 1.85044072,4.69951412 2.49942214,3.63076973 C2.58066336,3.48927946 2.66873334,3.35238566 2.77320235,3.20188147 C3.13716991,2.662712 3.95918877,2.8315801 4.12165531,3.42774429 C4.13788285,3.48491796 4.1473998,3.51483039 4.16537758,3.55508117 L4.25731722,3.7439065 C4.48418522,4.15557289 4.91442243,4.41390475 5.415,4.41390475 C6.12597498,4.41390475 6.62,3.87537724 6.62,3.11265957 C6.62,2.76065468 6.57224987,2.34944391 6.48943417,1.90393436 L6.43563711,1.63271305 L6.42116009,1.53778472 Z" id="形状"></path>
                            </g>
                        </g>
                    </g>
                </g>
            </g>
        </g>
    </g>
</svg>