<?xml version="1.0" encoding="UTF-8"?>
<svg width="21px" height="18px" viewBox="0 0 21 18" version="1.1" xmlns="http://www.w3.org/2000/svg" xmlns:xlink="http://www.w3.org/1999/xlink">
    <title>路径</title>
    <g id="页面-1" stroke="none" stroke-width="1" fill="none" fill-rule="evenodd">
        <g id="团战-6" transform="translate(-177, -260)" fill="#FFFFFF" fill-rule="nonzero">
            <g id="空席位备份-2" transform="translate(166, 248)">
                <path d="M29.378199,17.9533491 C30.5179848,17.9533491 31.4422348,18.9165966 31.4422348,20.1044742 C31.4422348,20.6209928 31.2673419,21.0950421 30.9761276,21.466063 C30.5514133,22.1929559 29.6990919,22.4468045 29.6990919,22.4468045 L28.3228419,26.2959609 C28.3228419,26.2959609 28.3178874,26.3082144 28.3075878,26.3303973 L28.2602632,26.4244101 C28.0999104,26.722292 27.6169246,27.4479709 26.6465205,27.6209613 L27.2493062,28.7089744 C27.4773776,29.1204548 27.3420562,29.6467626 26.9465562,29.8844944 C26.5517348,30.1222262 26.0467348,29.9811951 25.8186276,29.5697147 L24.7602705,27.6588525 L18.3076633,27.6588525 L17.2493062,29.5697147 C17.0211991,29.9811951 16.5161991,30.1222263 16.1213776,29.8844944 C15.7265562,29.6467626 15.5912348,29.1204548 15.8186276,28.7089744 L16.4373062,27.592301 C15.9545562,27.4726721 15.0711634,27.1672721 14.7451276,26.4871662 C14.2861276,25.5311768 13.0933419,22.4468045 13.0933419,22.4468045 C13.0933419,22.4468045 13.0859848,22.4423008 13.0729848,22.4338516 C12.7530205,22.2343087 12.492699,22.034803 12.2832348,21.8374562 C11.7733062,21.4455169 11.4422348,20.815213 11.4422348,20.1044742 C11.4422348,18.9165966 12.3664848,17.9533491 13.5062705,17.9533491 C14.1661276,17.9533491 14.7531633,18.2762058 15.1311276,18.7780593 C15.5720205,19.2211405 15.754449,19.7700416 15.754449,19.7700416 L16.6717348,22.0643939 C16.6717348,22.0643939 20.524949,19.4832522 26.2127348,21.9691448 L27.313449,19.3876682 C27.313449,19.3876682 27.4217347,19.1997383 27.6219133,18.9735079 C27.9858776,18.3613679 28.6361276,17.9533491 29.378199,17.9533491 Z M18.5686245,12.9899299 C18.5686245,12.9899299 21.2065582,10.7298967 24.425442,13.0395047 C24.425442,13.0395047 29.413839,12.0338987 30,16.9885309 C30,16.9885309 26.9668531,16.2657132 25.9943954,20.4445267 C26.43123,20.591559 21.109264,19.1404909 17.0056046,20.5314263 C17.0056046,20.5314263 16.2240947,16.8146978 13,16.9885309 C13,16.9885309 13.195387,12.4684645 18.5686245,12.9899299 Z" id="形状结合"></path>
            </g>
        </g>
    </g>
</svg>