<?xml version="1.0"?>
<svg xmlns="http://www.w3.org/2000/svg" width="32" height="32" viewBox="0 0 32 32">
  <title>bbpd_&#x5355;&#x66F2;&#x5907;&#x4EFD; 2</title>
  <g fill="none">
    <path stroke="#363636" stroke-width="2" d="M17.964 6.579c.343.37.536.873.536 1.397v15.748c0 1.091-.82 1.976-1.831 1.976-.486 0-.952-.208-1.295-.579l-3.301-3.562-2.954.001C6.844 21.56 5 19.761 5 17.542v-3.384c0-2.219 1.844-4.018 4.119-4.018l2.955-.001 3.3-3.56a1.738 1.738 0 0 1 2.59 0z"/>
    <path fill="#363636" d="M23.933 19.186a6.962 6.962 0 0 0 .992-3.593 6.961 6.961 0 0 0-.992-3.592.999.999 0 1 0-1.715 1.027c.46.769.707 1.648.707 2.565 0 .918-.247 1.797-.707 2.565a1 1 0 0 0 1.715 1.028zm3.237 2.067a9.958 9.958 0 0 0 1.755-5.66 9.963 9.963 0 0 0-1.755-5.66 1 1 0 0 0-1.648 1.133 7.963 7.963 0 0 1 1.403 4.527 7.958 7.958 0 0 1-1.403 4.527 1 1 0 1 0 1.647 1.133z"/>
  </g>
</svg>
