<?xml version="1.0"?>
<svg xmlns="http://www.w3.org/2000/svg" width="32" height="32" viewBox="0 0 32 32">
  <title>bbpd_&#x968F;&#x673A;</title>
  <path fill="#363636" d="M23.938 8H21.97a5.001 5.001 0 0 0-3.964 1.953l-7.593 9.878a2.998 2.998 0 0 1-2.382 1.171L6.001 21a1.001 1.001 0 0 0-.002 2l2.03.002a5 5 0 0 0 3.97-1.953l7.593-9.877A2.997 2.997 0 0 1 21.97 10h4.318c.881 0 1.331-1.058.72-1.693l-2.887-3a1 1 0 0 0-1.441 1.386L23.938 8zM6 8h2.066a5 5 0 0 1 3.972 1.963l1.284 1.68a1 1 0 0 1-1.589 1.214l-1.283-1.68A3.006 3.006 0 0 0 8.066 10H6a1 1 0 0 1 0-2zm15.958 15a4.998 4.998 0 0 1-3.972-1.964l-1.284-1.679a1 1 0 1 1 1.589-1.214l1.283 1.679A3.004 3.004 0 0 0 21.958 21h4.33c.89 0 1.337 1.077.707 1.707l-2.887 2.886a.999.999 0 1 1-1.414-1.414l1.18-1.18h-1.916z"/>
</svg>
