<?xml version="1.0"?>
<svg xmlns="http://www.w3.org/2000/svg" width="32" height="32" viewBox="0 0 32 32">
  <title>bbpd_&#x5355;&#x66F2;</title>
  <path fill="#363636" d="M26.623 12.219l.084.076 3 3a1 1 0 0 1-1.32 1.497l-.094-.083L27 15.416v5.586a6 6 0 0 1-5.775 5.996l-.225.004h-8.757a3.999 3.999 0 0 1-2.664-1.016l-.165-.156-1.121-1.12a1 1 0 0 1 1.32-1.498l.094.083 1.121 1.121a2 2 0 0 0 1.239.578l.176.008H21a4 4 0 0 0 3.995-3.8l.005-.2v-8c0-.852.986-1.297 1.623-.783zM11 6h8.757c.985 0 1.933.363 2.664 1.016l.165.156 1.121 1.12a1 1 0 0 1-1.32 1.498l-.094-.083-1.121-1.121a2 2 0 0 0-1.239-.578L19.757 8H11a4 4 0 0 0-3.995 3.8L7 12v8c0 .852-.986 1.297-1.623.783l-.084-.076-3-3a1 1 0 0 1 1.32-1.497l.094.083L5 17.586V12a6 6 0 0 1 5.775-5.996L11 6h8.757zm5 6.5a1 1 0 0 1 1 1v6a1 1 0 0 1-2 0v-5h-.5a1 1 0 0 1 0-2z"/>
</svg>
