<?xml version="1.0"?>
<svg xmlns="http://www.w3.org/2000/svg" width="32" height="32" viewBox="0 0 32 32">
  <title>bbpd_&#x5FAA;&#x73AF;</title>
  <path fill="#363636" d="M25 13.002c0-.89 1.077-1.337 1.707-.707l3 3a1 1 0 0 1-1.414 1.414L27 15.416v5.586a6 6 0 0 1-6 6h-8.757a3.998 3.998 0 0 1-2.829-1.172l-1.121-1.12a1 1 0 0 1 1.414-1.415l1.121 1.121c.375.375.884.586 1.415.586H21c2.21 0 4-1.79 4-4zM19.757 6c1.061 0 2.079.421 2.829 1.172l1.121 1.12a1 1 0 0 1-1.414 1.415l-1.121-1.121A1.997 1.997 0 0 0 19.757 8H11c-2.21 0-4 1.79-4 4v8c0 .89-1.077 1.337-1.707.707l-3-3a1 1 0 0 1 1.414-1.414L5 17.586V12a6 6 0 0 1 6-6z"/>
</svg>
