<?xml version="1.0"?>
<svg xmlns="http://www.w3.org/2000/svg" width="32" height="32" viewBox="0 0 32 32">
  <title>bbpd_&#x5355;&#x66F2;&#x5907;&#x4EFD; 3</title>
  <g fill="none">
    <path stroke="#363636" stroke-width="2" d="M17.964 6.579c.343.37.536.873.536 1.397v15.748c0 1.091-.82 1.976-1.831 1.976-.486 0-.952-.208-1.295-.579l-3.301-3.562-2.954.001C6.844 21.56 5 19.761 5 17.542v-3.384c0-2.219 1.844-4.018 4.119-4.018l2.955-.001 3.3-3.56a1.738 1.738 0 0 1 2.59 0z"/>
    <g fill="#363636">
      <path d="M22.293 14.207l4.95 4.95a1 1 0 0 0 1.414-1.414l-4.95-4.95a1 1 0 0 0-1.414 1.414z"/>
      <path d="M28.657 14.207l-4.95 4.95a1 1 0 0 1-1.414-1.414l4.95-4.95a1 1 0 0 1 1.414 1.414z"/>
    </g>
  </g>
</svg>
