<svg width="24" height="24" viewBox="0 0 24 24" xmlns="http://www.w3.org/2000/svg"><path d="M11.631 1c5.877 0 10.632 4.84 10.632 10.8a10.91 10.91 0 0 1-.948 4.465l-.049.101 1.028 1.973c.18.346.289.725.32 1.113l.01.233c0 1.517-1.163 2.776-2.716 2.908l-.2.007h-8.585c-.086 0-.168-.008-.245-.023l-.031-.007-.336-.03c-5.274-.56-9.365-5.023-9.507-10.448L1 11.8C1 5.84 5.755 1 11.631 1zm4.413 9.358h-.079a.99.99 0 0 0-.747.306 1.03 1.03 0 0 0-.284.612l-.008.148v4.732c0 .303.097.557.292.76a.967.967 0 0 0 .62.3l.128.006h.078c.303 0 .55-.1.74-.299.16-.166.252-.371.279-.616l.008-.151v-4.732c0-.312-.096-.568-.287-.767a.948.948 0 0 0-.594-.29l-.146-.009zM7.282 7.875h-.56c-.25 0-.444.067-.578.201a.722.722 0 0 0-.196.458l-.006.121v7.514c0 .251.068.444.202.578a.722.722 0 0 0 .458.196l.12.006h.69c.487 0 .743-.222.766-.665v-.115l-.039-2.977h3.225l-.04 2.977c-.007.477.207.735.643.775l.124.005h.65c.243 0 .434-.067.572-.202a.74.74 0 0 0 .208-.434l.013-.144.104-7.514c.017-.48-.2-.738-.65-.775l-.117-.005h-.65c-.242 0-.433.067-.572.201a.74.74 0 0 0-.207.435l-.014.144-.039 2.665H8.114l-.04-2.665c-.008-.251-.082-.444-.22-.579a.727.727 0 0 0-.433-.193l-.14-.008zm8.723-.624c-.33 0-.611.115-.845.345a1.13 1.13 0 0 0-.351.838c0 .33.117.611.35.845.234.234.516.351.845.351.33 0 .61-.117.839-.351.23-.234.345-.516.345-.845 0-.33-.115-.609-.345-.838-.23-.23-.51-.345-.838-.345z" fill="#FFF" fill-rule="nonzero"/></svg>