<svg width="47" height="47" viewBox="0 0 47 47" xmlns="http://www.w3.org/2000/svg"><g fill="#FFF" fill-rule="evenodd"><path d="M23.5 1.458c-12.173 0-22.042 9.869-22.042 22.042 0 12.173 9.869 22.042 22.042 22.042 12.173 0 22.042-9.869 22.042-22.042 0-12.173-9.869-22.042-22.042-22.042zm0 1c11.621 0 21.042 9.421 21.042 21.042 0 11.621-9.421 21.042-21.042 21.042-11.621 0-21.042-9.421-21.042-21.042 0-11.621 9.421-21.042 21.042-21.042z" fill-opacity=".199" fill-rule="nonzero"/><path d="M31.214 15.917a2 2 0 0 1 0 2.828l-5.157 5.157 5.157 5.157a2 2 0 1 1-2.829 2.829l-5.157-5.157-5.157 5.157a2 2 0 1 1-2.828-2.829l5.157-5.157-5.157-5.157a2 2 0 1 1 2.828-2.828l5.157 5.157 5.157-5.157a2 2 0 0 1 2.829 0z"/></g></svg>