<?xml version="1.0" encoding="UTF-8"?>
<svg xmlns="http://www.w3.org/2000/svg" xmlns:xlink="http://www.w3.org/1999/xlink" width="112px" height="6px" viewBox="0 0 112 6" version="1.1">
  <title>bbpd_形状结合</title>
  <defs>
    <linearGradient x1="100%" y1="50%" x2="0%" y2="50%" id="linearGradient-1">
      <stop stop-color="#F1C48D" offset="0%"/>
      <stop stop-color="#F1C48D" stop-opacity="0" offset="100%"/>
    </linearGradient>
  </defs>
  <g id="页面-1" stroke="none" stroke-width="1" fill="none" fill-rule="evenodd" fill-opacity="0.3">
    <g id="成就墙-6" transform="translate(-147.000000, -634.000000)" fill="url(#linearGradient-1)">
      <g id="编组-11" transform="translate(32.000000, 588.000000)">
        <g id="编组-6" transform="translate(115.000000, 36.000000)">
          <g id="形状结合" transform="translate(0.000000, 10.000000)">
            <path d="M109.937721,0.156346073 L111.521997,1.12591013 C111.81894,1.30763713 112,1.63071944 112,1.97885756 L112,4.02114244 C112,4.36928056 111.81894,4.69236287 111.521997,4.87408987 L109.937721,5.84365393 C109.61734,6.03972402 109.214107,6.03972402 108.893727,5.84365393 L107.309451,4.87408987 C107.02229,4.69835 106.843504,4.3904155 106.832035,4.05546569 L0,4.05437056 L0,1.94562944 L106.833,1.9452935 L106.839807,1.84970741 C106.878523,1.55215754 107.049625,1.28492125 107.309451,1.12591013 L108.893727,0.156346073 C109.214107,-0.03972402 109.61734,-0.03972402 109.937721,0.156346073 Z"/>
          </g>
        </g>
      </g>
    </g>
  </g>
</svg>
