<?xml version="1.0"?>
<svg xmlns="http://www.w3.org/2000/svg" width="46" height="46" viewBox="0 0 46 46">
  <title>bbpd_&#x7F16;&#x7EC4;</title>
  <defs>
    <linearGradient id="a" x1="33.684%" x2="100%" y1="99.235%" y2=".765%">
      <stop offset="0%" stop-color="#FFF"/>
      <stop offset="100%" stop-color="#FFF" stop-opacity=".601"/>
    </linearGradient>
  </defs>
  <g fill="none" fill-rule="evenodd">
    <circle cx="23" cy="23" r="23" fill="#63ABFF" fill-rule="nonzero"/>
    <path fill="url(#a)" d="M30.153 24v5.323a2.538 2.538 0 0 1-2.538 2.539h-9.23a2.538 2.538 0 0 1-2.539-2.539V24h14.307zm-4.467-10a2.192 2.192 0 0 1 1.896 3.301l-.413.715h3.216c.87 0 1.584.69 1.614 1.56l.001.055v1.846c0 .704-.45 1.303-1.08 1.524H15.078A1.616 1.616 0 0 1 14 21.533L14 19.63c0-.892.723-1.615 1.615-1.615h3.075l-.412-.715a2.192 2.192 0 1 1 3.797-2.192l.855 1.48.855-1.48A2.192 2.192 0 0 1 25.686 14zm-5.914 1.505a.807.807 0 0 0-.295 1.104l.812 1.407h1.817l.024-.042-1.254-2.173a.808.808 0 0 0-1.104-.296zm5.212.296l-1.255 2.173.024.042h1.818l.812-1.407a.808.808 0 0 0-.257-1.08l-.039-.024a.808.808 0 0 0-1.103.296z"/>
  </g>
</svg>
