<?xml version="1.0" encoding="UTF-8"?>
<svg xmlns="http://www.w3.org/2000/svg" xmlns:xlink="http://www.w3.org/1999/xlink" width="20px" height="20px" viewBox="0 0 20 20" version="1.1">
  <title>bbpd_widget/checkbox/unselected</title>
  <g id="页面-1" stroke="none" stroke-width="1" fill="none" fill-rule="evenodd">
    <g id="新增用户推荐列表" transform="translate(-64.000000, -461.000000)">
      <g id="list1备份" transform="translate(0.000000, 407.000000)">
        <g id="Group" transform="translate(64.000000, 54.000000)">
          <g id="check-circle" fill="#00D0A8" fill-rule="nonzero">
            <circle id="Oval" cx="10" cy="10" r="10"/>
          </g>
          <g id="check" transform="translate(4.416667, 2.666667)" fill="#FFFFFF">
            <path d="M8,1 C8.55228475,1 9,1.44771525 9,2 C9,2.55228475 8.55228475,3 8,3 L4.499,3 L4.5,9.5 C4.5,10.0522847 4.05228475,10.5 3.5,10.5 C2.94771525,10.5 2.5,10.0522847 2.5,9.5 L2.5,2 C2.5,1.44771525 2.94771525,1 3.5,1 L8,1 Z" id="Combined-Shape" transform="translate(5.750000, 5.750000) scale(-1, -1) rotate(45.000000) translate(-5.750000, -5.750000) "/>
          </g>
        </g>
      </g>
    </g>
  </g>
</svg>
