<?xml version="1.0" encoding="UTF-8"?>
<svg xmlns="http://www.w3.org/2000/svg" xmlns:xlink="http://www.w3.org/1999/xlink" width="36px" height="30px" viewBox="0 0 36 30" version="1.1">
  <title>bbpd_编组 14</title>
  <g id="正式稿" stroke="none" stroke-width="1" fill="none" fill-rule="evenodd">
    <g id="发现-推荐-" transform="translate(-191.000000, -452.000000)">
      <g id="编组-14" transform="translate(191.000000, 452.000000)">
        <rect id="矩形" fill="#00DECC" x="0" y="0" width="36" height="30" rx="10"/>
        <path d="M23.4304219,16.2740124 L25.6908265,19.3920367 C26.1675292,20.0496442 26.0853817,20.947814 25.496885,21.5125209 C24.9036483,22.0817762 23.9809213,22.1617553 23.2942808,21.7034357 L20.3059483,19.7087631 C21.6810775,18.9141111 22.7804975,17.7126262 23.4304219,16.2740124 Z M16.513117,7 C20.1102122,7 23.026234,9.79814255 23.026234,13.2498263 C23.026234,16.7015101 20.1102122,19.4996526 16.513117,19.4996526 C12.9160218,19.4996526 10,16.7015101 10,13.2498263 C10,9.79814255 12.9160218,7 16.513117,7 Z" id="形状" fill="#FFFFFF"/>
      </g>
    </g>
  </g>
</svg>
