<?xml version="1.0" encoding="UTF-8"?>
<svg xmlns="http://www.w3.org/2000/svg" xmlns:xlink="http://www.w3.org/1999/xlink" width="16px" height="16px" viewBox="0 0 16 16" version="1.1">
  <title>bbpd_矩形</title>
  <g id="动态话题优化" stroke="none" stroke-width="1" fill="none" fill-rule="evenodd">
    <g id="话题详情页-加分享/加置顶显示" transform="translate(-221.000000, -60.000000)" fill-rule="nonzero">
      <g id="编组-5" transform="translate(221.000000, 59.000000)">
        <g id="编组-2备份-2" transform="translate(0.000000, 1.000000)">
          <g id="icon-分享" transform="translate(2.488889, 1.137778)">
            <path d="M11.0222222,8.21572917 L11.0222222,10.4748743 C11.0222222,11.3269964 10.3316847,12.0177778 9.47986348,12.0177778 L1.54235874,12.0177778 C0.69053753,12.0177778 0,11.3269964 0,10.4748743 L0,3.24957015 C0,2.39744809 0.69053753,1.70666667 1.54235874,1.70666667 L4.17144379,1.70666667" id="路径" stroke="#FFFFFF" stroke-width="2" stroke-linecap="round"/>
            <path d="M2.71036168,8.02824619 C2.68923277,8.02824619 2.66810385,8.02824619 2.64697494,8.02120322 C2.40751388,7.98598836 2.26665444,7.71270332 2.26665444,7.35942172 C2.26665444,5.30151354 2.79209621,4.38247272 3.99644444,3.43871445 C4.86273002,2.75554616 5.92060645,2.38851567 7.21651332,2.31808594 L7.48414626,2.304 L7.48414626,0.9506071 C7.48414626,0.373083386 8.01236917,0.246309888 8.29408805,0.528028773 L11.583156,3.87344053 C11.9986914,4.29601886 11.9775625,4.73268313 11.5620271,5.15526146 L8.3574748,8.41615755 C8.01941214,8.75422021 7.48414626,8.54997402 7.48414626,8.07105191 L7.48414626,6.144 L7.15312657,6.144 C5.94877834,6.144 4.21755772,6.21115938 3.06955326,7.824 C2.99912354,7.95781647 2.8582641,8.02824619 2.71036168,8.02824619 Z" id="路径" fill="#FFFFFF"/>
          </g>
        </g>
      </g>
    </g>
  </g>
</svg>
