<svg height="13" viewBox="0 0 13 13" width="13" xmlns="http://www.w3.org/2000/svg"><path d="m5.71031286 0c3.32676709.16627907 5.09849364 1.80348837 5.28968714 4.88604651-.1402086 2.28953489-1.17265353 3.51744186-3.08458864 3.65813954-1.07068367 0-1.56778679-.37093024-1.47856316-1.1-.45886442.69069767-1.12166859 1.04883721-2.00115874 1.04883721-1.35110082-.0255814-2.00115875-.90813954-1.95017382-2.63488373.28041715-2.1488372 1.32560835-3.31279069 3.13557358-3.47906976.62456547.02558139 1.03244496.26860465 1.22363847.71627907l.08922364-.5883721h1.31286211c-.06118192.42976745-.1177752.82576745-.1695759 1.18789768l-.07408111.51778023c-.16434994 1.14882209-.2687416 1.88211279-.30443105 2.19548488-.14020858.76744187.01274623 1.1.47161066 1.02325582.93047508-.11511628 1.42757821-.94651163 1.47856315-2.50697675-.08922364-2.43023255-1.42757822-3.68372093-4.01506373-3.73488372-2.62572422.16627907-4.0405562 1.63720931-4.23174971 4.4127907-.02549247 2.82674419 1.37659328 4.23372093 4.23174971 4.20813954 1.66975666.02558139 2.98261877-.35813954 3.93858632-1.15116279l.67555042.80581395c-1.23638471 1.02325582-2.8041715 1.53488372-4.70336038 1.53488372-3.58169177-.1406977-5.42989571-1.93139535-5.54461182-5.34651163.26767092-3.54302325 2.17960603-5.42325581 5.71031286-5.65348837zm.07560554 3.44186047c-1.15912326.08790697-1.80607578.86651162-1.92737938 2.33581395-.02695636.61534884.04043453 1.0172093.22912902 1.20558139.1752163.11302326.43130168.16325582.75477793.16325582 1.03781967-.13813954 1.67129401-1.00465116 1.87346668-2.58697675.04043453-.37674418-.06739089-.66558139-.30999809-.86651162-.14825995-.16325582-.36391079-.25116279-.61999616-.25116279z" fill="#202020" transform="translate(1 1)"/></svg>