<?xml version="1.0" encoding="UTF-8"?>
<svg xmlns="http://www.w3.org/2000/svg" xmlns:xlink="http://www.w3.org/1999/xlink" width="32px" height="32px" viewBox="0 0 32 32" version="1.1">
  <!-- Generator: Sketch 63.1 (92452) - https://sketch.com -->
  <title>bbpd_ic_script_close</title>
  <desc>Created with Sketch.</desc>
  <g id="ic_script_close" stroke="none" stroke-width="1" fill="none" fill-rule="evenodd">
    <path d="M16,0 C24.836556,0 32,7.163444 32,16 C32,24.836556 24.836556,32 16,32 C7.163444,32 0,24.836556 0,16 C0,7.163444 7.163444,0 16,0 Z M16,2 C8.2680135,2 2,8.2680135 2,16 C2,23.7319865 8.2680135,30 16,30 C23.7319865,30 30,23.7319865 30,16 C30,8.2680135 23.7319865,2 16,2 Z" id="椭圆形" fill="#FFFFFF" fill-rule="nonzero"/>
    <path d="M11.8515682,10.2330553 L16,14.382 L20.1484318,10.2330553 C20.5089158,9.87257138 21.0761468,9.84484184 21.468438,10.1498667 L21.5626454,10.2330553 L21.7669447,10.4373546 C22.157469,10.8278789 22.157469,11.4610439 21.7669447,11.8515682 L21.7669447,11.8515682 L17.618,16 L21.7669447,20.1484318 C22.157469,20.5389561 22.157469,21.1721211 21.7669447,21.5626454 L21.5626454,21.7669447 C21.1721211,22.157469 20.5389561,22.157469 20.1484318,21.7669447 L16,17.618 L11.8515682,21.7669447 C11.4910842,22.1274286 10.9238532,22.1551582 10.531562,21.8501333 L10.4373546,21.7669447 L10.2330553,21.5626454 C9.84253105,21.1721211 9.84253105,20.5389561 10.2330553,20.1484318 L10.2330553,20.1484318 L14.382,16 L10.2330553,11.8515682 C9.84253105,11.4610439 9.84253105,10.8278789 10.2330553,10.4373546 L10.4373546,10.2330553 C10.8278789,9.84253105 11.4610439,9.84253105 11.8515682,10.2330553 Z" id="形状结合" fill="#FFFFFF"/>
  </g>
</svg>
