<?xml version="1.0" encoding="UTF-8"?>
<svg xmlns="http://www.w3.org/2000/svg" xmlns:xlink="http://www.w3.org/1999/xlink" width="12px" height="12px" viewBox="0 0 12 12" version="1.1">
  <title>bbpd_切片</title>
  <defs>
    <filter color-interpolation-filters="auto" id="filter-1">
      <feColorMatrix in="SourceGraphic" type="matrix" values="0 0 0 0 1.000000 0 0 0 0 1.000000 0 0 0 0 1.000000 0 0 0 1.000000 0"/>
    </filter>
  </defs>
  <g id="页面-1" stroke="none" stroke-width="1" fill="none" fill-rule="evenodd">
    <g id="礼包" transform="translate(-305.000000, -303.000000)">
      <g id="pop备份" transform="translate(32.000000, 80.000000)">
        <g id="1" transform="translate(12.000000, 189.000000)">
          <g transform="translate(256.000000, 28.000000)" id="ic_next_small" filter="url(#filter-1)">
            <g transform="translate(5.000000, 6.000000)">
              <path d="M5.46966991,1.46966991 C5.73593648,1.20340335 6.15260016,1.1791973 6.44621165,1.39705176 L6.53033009,1.46966991 L10.5303301,5.46966991 C10.7965966,5.73593648 10.8208027,6.15260016 10.6029482,6.44621165 L10.5303301,6.53033009 L6.53033009,10.5303301 C6.23743687,10.8232233 5.76256313,10.8232233 5.46966991,10.5303301 C5.20340335,10.2640635 5.1791973,9.84739984 5.39705176,9.55378835 L5.46966991,9.46966991 L8.939,6 L5.46966991,2.53033009 C5.20340335,2.26406352 5.1791973,1.84739984 5.39705176,1.55378835 L5.46966991,1.46966991 Z" id="arrow" fill="#202020" fill-rule="nonzero"/>
            </g>
          </g>
        </g>
      </g>
    </g>
  </g>
</svg>
