<?xml version="1.0" encoding="UTF-8"?>
<svg xmlns="http://www.w3.org/2000/svg" xmlns:xlink="http://www.w3.org/1999/xlink" width="24px" height="24px" viewBox="0 0 24 24" version="1.1">
  <title>bbpd_ic_profile_comment</title>
  <g id="ic_profile_comment" stroke="none" stroke-width="1" fill="none" fill-rule="evenodd" stroke-linejoin="round">
    <g id="1" transform="translate(4.000000, 3.000000)" stroke="#313131" stroke-width="2">
      <path d="M8.67827339,-1 C9.36362508,-1 9.98960537,-0.771193308 10.5031123,-0.341909103 C10.9957097,0.0681954128 11.3519533,0.648737225 11.5010511,1.30027904 C11.6472168,2.04580465 11.6906341,2.5508711 11.6906317,3.13193982 C11.6899829,3.42959233 11.6551523,3.80758318 11.5830036,4.26567813 L11.5830036,4.26567813 L14.435163,4.70693891 C15.3741317,4.76818045 16.240311,5.28458536 16.7581693,6.1158347 C16.9868589,6.49842607 17.140691,6.96537406 17.1889089,7.45828832 C17.2294071,7.90388844 17.1494544,8.30989868 17.0562441,8.70298604 C16.7410641,10.1580688 16.6957866,10.3678739 16.651463,10.5732516 L16.651463,10.5732516 L16.0843831,13.2248111 C15.90963,14.0260709 15.8578319,14.264568 15.8096854,14.5049473 C15.7224952,14.9402555 15.6238591,15.3419698 15.4120089,15.7151203 C15.1823454,16.1104021 14.8636813,16.449393 14.4853822,16.7035229 C13.9942061,17.0144026 13.507278,17.1664054 13.0185463,17.1848987 L13.0185463,17.1848987 L3.45211252,17.1848848 L-0.366354139,17.2049487 L-1.05234782,6.22092548 L2.8594819,5.43605725 C3.76592404,5.30761198 4.47743147,4.91752219 4.98629292,4.33102833 C5.48787091,3.75292909 5.79388445,2.99361137 5.82097477,2.16023253 C5.80324531,1.12114688 6.11968985,0.423969847 6.62635804,-0.108182322 C7.17048344,-0.682611493 7.89970462,-0.9970805 8.67827339,-1 Z" id="形状"/>
      <line x1="3.60011092" y1="16.8540414" x2="3.60011092" y2="8.1" id="路径-6" stroke-linecap="round"/>
    </g>
  </g>
</svg>
