<?xml version="1.0" encoding="UTF-8"?>
<svg xmlns="http://www.w3.org/2000/svg" xmlns:xlink="http://www.w3.org/1999/xlink" width="24px" height="24px" viewBox="0 0 24 24" version="1.1">
  <title>bbpd_ic_profile_activity</title>
  <g id="ic_profile_activity" stroke="none" stroke-width="1" fill="none" fill-rule="evenodd" stroke-linejoin="round">
    <g id="1" transform="translate(3.500000, 3.500000)" stroke="#313131" stroke-width="2">
      <path d="M18.0037979,3.39588658 L14.7179814,8 L14.7179814,8 L17.7853591,12.2980351 C18.1061847,12.7475787 18.0018383,13.3720862 17.5522948,13.6929118 C17.3663884,13.8255876 17.1406669,13.8906275 16.9126666,13.8772157 L2,13 L2,13 L0.394581121,2.56477728 C0.226623393,1.47305205 0.975484916,0.451877247 2.06721015,0.283919519 C2.23713277,0.257777577 2.40971694,0.253654414 2.58069408,0.271652009 L17.2945122,1.82047497 C17.8437624,1.87829078 18.2421487,2.37041501 18.1843329,2.91966521 C18.1662633,3.09132633 18.1040679,3.25538751 18.0037979,3.39588658 Z" id="路径"/>
      <line x1="4.5" y1="4.5" x2="5.46021168" y2="9.44756379" id="路径-15" stroke-linecap="round" transform="translate(4.980106, 6.973782) scale(-1, -1) translate(-4.980106, -6.973782) "/>
      <line x1="2" y1="13" x2="2.80371194" y2="17.5817903" id="路径-14" stroke-linecap="round"/>
    </g>
  </g>
</svg>
