<?xml version="1.0" encoding="UTF-8"?>
<svg xmlns="http://www.w3.org/2000/svg" xmlns:xlink="http://www.w3.org/1999/xlink" width="15px" height="15px" viewBox="0 0 15 15" version="1.1">
  <title>bbpd_切片</title>
  <g id="新用户转化优化" stroke="none" stroke-width="1" fill="none" fill-rule="evenodd" fill-opacity="0.2">
    <g id="新用户转化" transform="translate(-331.000000, -206.000000)" fill="#313131" fill-rule="nonzero">
      <g id="ic_next_small" transform="translate(338.467290, 213.345794) scale(-1, 1) rotate(90.000000) translate(-338.467290, -213.345794) translate(331.457944, 206.336449)">
        <path d="M4.57330892,3.6971407 C4.80660322,3.46384639 5.1716707,3.44263782 5.42892376,3.63351498 L5.50262566,3.6971407 L9.00729856,7.20181359 C9.24059286,7.43510789 9.26180143,7.80017537 9.07092428,8.05742843 L9.00729856,8.13113033 L5.50262566,11.6358032 C5.24600193,11.892427 4.82993265,11.892427 4.57330892,11.6358032 C4.34001462,11.4025089 4.31880605,11.0374414 4.5096832,10.7801884 L4.57330892,10.7064865 L7.6130257,7.66647196 L4.57330892,4.62645744 C4.34001462,4.39316313 4.31880605,4.02809565 4.5096832,3.77084259 L4.57330892,3.6971407 Z" id="arrow" transform="translate(6.790304, 7.666472) rotate(-270.000000) translate(-6.790304, -7.666472) "/>
      </g>
    </g>
  </g>
</svg>
