<?xml version="1.0" encoding="UTF-8"?>
<svg xmlns="http://www.w3.org/2000/svg" xmlns:xlink="http://www.w3.org/1999/xlink" width="24px" height="24px" viewBox="0 0 24 24" version="1.1">
  <title>bbpd_ic_profile_contact</title>
  <g id="ic_profile_contact" stroke="none" stroke-width="1" fill="none" fill-rule="evenodd" stroke-linejoin="round">
    <path d="M5.4,3 L18.6,3 C19.9254834,3 21,4.0745166 21,5.4 L21,16.2470588 C21,17.5725422 19.9254834,18.6470588 18.6,18.6470588 L16.5,18.6470588 L16.5,18.6470588 C16.5,19.6990525 15.6471906,20.5518619 14.5951969,20.5518619 C14.2518306,20.5518619 13.914849,20.4590473 13.6199058,20.283238 L10.875,18.6470588 L10.875,18.6470588 L5.4,18.6470588 C4.0745166,18.6470588 3,17.5725422 3,16.2470588 L3,5.4 C3,4.0745166 4.0745166,3 5.4,3 Z" id="矩形" stroke="#313131" stroke-width="2"/>
    <path d="M7,14 C8.28057849,14.6402892 9.76306174,14.7456461 11.1213203,14.2928932 L12,14 L12,14" id="路径-19" stroke="#313131" stroke-width="2" stroke-linecap="round"/>
  </g>
</svg>
