<?xml version="1.0" encoding="UTF-8"?>
<svg xmlns="http://www.w3.org/2000/svg" xmlns:xlink="http://www.w3.org/1999/xlink" width="24px" height="24px" viewBox="0 0 24 24" version="1.1">
  <title>bbpd_个人@2x</title>
  <defs>
    <polygon id="path-1" points="0.00163179916 0.00437866109 19.4732385 0.00437866109 19.4732385 16.1276631 0.00163179916 16.1276631"/>
  </defs>
  <g id="页面-1" stroke="none" stroke-width="1" fill="none" fill-rule="evenodd">
    <g id="首页" transform="translate(-27.000000, -635.000000)">
      <g id="创建观光团icon" transform="translate(27.000000, 635.000000)">
        <g id="qun" transform="translate(2.000000, 4.000000)">
          <mask id="mask-2" fill="white">
            <use xlink:href="#path-1"/>
          </mask>
          <g id="Clip-2"/>
          <path d="M18.6253556,15.0597385 C18.1566213,15.0597385 17.7776904,14.68059 17.7776904,14.2120732 C17.7776904,11.6414728 15.876046,9.54956067 13.5389289,9.54956067 C13.0702218,9.54956067 12.6912636,9.1698682 12.6912636,8.7018954 C12.6912636,8.23370502 13.0704393,7.85423013 13.5389289,7.85423013 C14.9413787,7.85423013 16.0821423,6.71343933 16.0821423,5.31101674 C16.0821423,3.90848536 14.9413787,2.7673954 13.5389289,2.7673954 C13.0702218,2.7673954 12.6912636,2.38770293 12.6912636,1.91973013 C12.6912636,1.45164854 13.0704393,1.07206485 13.5389289,1.07206485 C15.876046,1.07206485 17.7776904,2.97360042 17.7776904,5.31079916 C17.7776904,6.61466109 17.1856192,7.78283891 16.2567992,8.56112552 C18.1651339,9.61912971 19.4732385,11.7550188 19.4732385,14.2122908 C19.4732385,14.6808075 19.093954,15.0597385 18.6253556,15.0597385 Z" id="Fill-1" fill="#313131" mask="url(#mask-2)"/>
          <path d="M0.011041841,15.0813054 C-0.0657615063,15.5745711 0.265167364,16.0383828 0.748016736,16.1163828 C1.23426569,16.194682 1.6859749,15.856954 1.76237029,15.3644226 C2.22204812,12.3952008 4.69259205,10.2400837 7.6374728,10.2400837 C10.582272,10.2400837 13.0533326,12.3952008 13.5126025,15.3644226 C13.5811109,15.8095502 13.9581381,16.1274247 14.3872469,16.1274247 C14.4333452,16.1274247 14.4792531,16.1243515 14.5267385,16.1165732 C15.0094791,16.038818 15.3405983,15.5749791 15.2635774,15.081523 C14.8373787,12.3275356 13.0743556,10.1196297 10.7095251,9.08020084 C11.8573054,8.14594142 12.5957762,6.70993096 12.5957762,5.0984477 C12.5957762,2.28952301 10.356295,0.00437866109 7.60306904,0.00437866109 C4.85057741,0.00437866109 2.61109623,2.28974059 2.61109623,5.0984477 C2.61109623,6.72089121 3.36039121,8.16527824 4.52133473,9.09888494 C2.17850628,10.1458473 0.43492887,12.3444247 0.011041841,15.0813054 Z M7.60325941,1.8134728 C9.3787113,1.8134728 10.8226632,3.28687866 10.8226632,5.09823013 C10.8226632,6.90988075 9.3787113,8.38402092 7.60325941,8.38402092 C5.82837866,8.38402092 4.38429079,6.90988075 4.38429079,5.09823013 C4.38450837,3.28709623 5.82837866,1.8134728 7.60325941,1.8134728 Z" id="Fill-3" fill="#313131" mask="url(#mask-2)"/>
        </g>
      </g>
    </g>
  </g>
</svg>
