<?xml version="1.0" encoding="UTF-8"?>
<svg xmlns="http://www.w3.org/2000/svg" xmlns:xlink="http://www.w3.org/1999/xlink" width="24px" height="24px" viewBox="0 0 24 24" version="1.1">
  <title>bbpd_ic_profile_invite</title>
  <g id="ic_profile_invite" stroke="none" stroke-width="1" fill="none" fill-rule="evenodd">
    <g id="编组" transform="translate(1.500000, 1.000000)" stroke="#313131" stroke-width="2">
      <circle id="椭圆形" cx="10.8400962" cy="5.5" r="4.5"/>
      <path d="M10.8400962,10.1666667 C13.360572,10.1666667 15.645949,11.0853721 17.2989013,12.5820158 C18.9141005,14.0444763 19.9234296,16.0618931 19.9234296,18.2964861 C19.9234296,18.9637177 19.8395123,19.4893636 19.6508574,19.895002 C19.4957476,20.2285131 19.2638489,20.4597153 18.9664761,20.6165779 C17.8680679,21.1959826 16.157604,21.0179128 14.1594451,20.8978824 C13.1182264,20.8353359 12.0016732,20.7688069 10.8400962,20.7688069 C9.67851925,20.7688069 8.56196614,20.8353359 7.5207474,20.8978824 C5.52258854,21.0179128 3.81212461,21.1959826 2.71371638,20.6165779 C2.41634361,20.4597153 2.18444493,20.2285131 2.02933512,19.895002 C1.84068022,19.4893636 1.75676291,18.9637177 1.75676291,18.2964861 C1.75676291,16.0618931 2.76609202,14.0444763 4.38129118,12.5820158 C6.03424354,11.0853721 8.31962049,10.1666667 10.8400962,10.1666667 Z" id="椭圆形"/>
      <path d="M6.4398853,16.0416667 C9.46372245,18.1150569 12.4547879,18.1150569 15.4130816,16.0416667" id="路径" stroke-linecap="round" stroke-linejoin="round"/>
    </g>
  </g>
</svg>
