<?xml version="1.0" encoding="UTF-8"?>
<svg xmlns="http://www.w3.org/2000/svg" xmlns:xlink="http://www.w3.org/1999/xlink" width="24px" height="24px" viewBox="0 0 24 24" version="1.1">
  <title>bbpd_ic_ranknew</title>
  <defs>
    <path d="M8.64355894,1.0658141e-14 C10.3004132,1.0658141e-14 11.6435589,1.34314575 11.6435589,3 C11.6435589,3.52692474 11.5077114,4.02212058 11.2691289,4.45247499 C11.8997958,4.34626737 12.5246834,4.19992872 13.1409888,4.01467735 L16.0081609,3.15285218 C16.5370687,2.99387112 17.0947128,3.293756 17.2536938,3.82266381 C17.3030223,3.98677261 17.3093512,4.16080426 17.2720734,4.32806262 L15.2423422,13.4350763 C15.038524,14.3495695 14.2271696,15 13.2902386,15 L3.99687927,15 C3.05994826,15 2.24859385,14.3495695 2.04477562,13.4350763 L0.0150918494,4.32827502 C-0.105051144,3.78921648 0.234547002,3.25482805 0.773605538,3.13468506 C0.940900644,3.09739906 1.11497139,3.10373907 1.27911077,3.15309658 L4.14265212,4.01417739 C4.76037689,4.19993023 5.38672827,4.34658926 6.01807532,4.45415429 C5.77940645,4.02212058 5.64355894,3.52692474 5.64355894,3 C5.64355894,1.34314575 6.98670469,1.0658141e-14 8.64355894,1.0658141e-14 Z" id="path-1"/>
  </defs>
  <g id="ic_ranknew" stroke="none" stroke-width="1" fill="none" fill-rule="evenodd">
    <g id="形状结合-2" transform="translate(3.356441, 5.000000)">
      <mask id="mask-2" fill="white">
        <use xlink:href="#path-1"/>
      </mask>
      <path stroke="#313131" stroke-width="2" d="M8.64355894,-1 C9.74812843,-1 10.7481284,-0.55228475 11.4719861,0.171572875 C12.1958437,0.8954305 12.6435589,1.8954305 12.6435589,3 L12.6435589,3 L15.7203002,2.19517989 C16.249208,2.03619882 16.7924839,2.10665073 17.2432782,2.34907486 C17.6940725,2.59149898 18.0523851,3.00589532 18.2113661,3.53480313 C18.310023,3.86302073 18.3226808,4.21108404 18.2481252,4.54560075 L18.2481252,4.54560075 L16.2183941,13.6526144 C16.0655304,14.3384843 15.6848407,14.9253307 15.1666923,15.3407096 C14.6485439,15.7560886 13.9929369,16 13.2902386,16 L13.2902386,16 L3.99687927,16 C3.29418101,16 2.63857398,15.7560886 2.12042559,15.3407096 C1.60227721,14.9253307 1.22158747,14.3384843 1.0687238,13.6526144 L1.0687238,13.6526144 L-0.960959973,4.54581315 C-1.08110297,4.00675461 -0.971375391,3.47003113 -0.696847432,3.03803654 C-0.422319473,2.60604194 0.0170088683,2.27877623 0.556067405,2.15863324 C0.890657617,2.08406124 1.23879911,2.09674126 1.56707786,2.19545627 L1.56707786,2.19545627 L4.43061922,3.05653708 C4.64355894,1.8954305 5.09127419,0.8954305 5.81513181,0.171572875 C6.53898944,-0.55228475 7.53898944,-1 8.64355894,-1 Z"/>
    </g>
    <path d="M12,16.8731908 C14.0016679,17.3519935 15.6455481,16.7120303 16.9316408,14.9533012" id="路径-4" stroke="#313131" stroke-width="2" stroke-linecap="round"/>
  </g>
</svg>
