<?xml version="1.0" encoding="UTF-8"?>
<svg xmlns="http://www.w3.org/2000/svg" xmlns:xlink="http://www.w3.org/1999/xlink" width="24px" height="24px" viewBox="0 0 24 24" version="1.1">
  <title>bbpd_切片</title>
  <g id="页面-1" stroke="none" stroke-width="1" fill="none" fill-rule="evenodd">
    <g id="个人页主播中心" transform="translate(-28.000000, -1160.000000)">
      <g id="base" transform="translate(0.000000, 913.000000)">
        <g id="list" transform="translate(0.000000, 8.000000)">
          <g transform="translate(0.000000, 225.000000)" id="ic_profile_god">
            <g transform="translate(28.000000, 14.000000)" id="christmas-gift">
              <polygon id="路径" points="0 0 24 0 24 24 0 24"/>
              <path d="M14,11 L19.5,11 C20.3284271,11 21,10.3284271 21,9.5 L21,8.5 C21,7.67157288 20.3284271,7 19.5,7 L4.5,7 C3.67157288,7 3,7.67157288 3,8.5 L3,9.5 C3,10.3284271 3.67157288,11 4.5,11 L10,11" id="路径" stroke="#323232" stroke-width="2" stroke-linecap="round" stroke-linejoin="round"/>
              <path d="M20,11 L20,19 C20,20.1045695 19.1045695,21 18,21 L6,21 C4.8954305,21 4,20.1045695 4,19 L4,11" id="路径" stroke="#323232" stroke-width="2" stroke-linecap="round" stroke-linejoin="round"/>
              <path d="M10,3 L10,3 C11.1045695,3 12,3.8954305 12,5 L12,7 L10,7 C8.8954305,7 8,6.1045695 8,5 L8,5 C8,3.8954305 8.8954305,3 10,3 Z" id="路径" stroke="#323232" stroke-width="2" stroke-linecap="round" stroke-linejoin="round"/>
              <path d="M14,3 L14,3 C15.1045695,3 16,3.8954305 16,5 L16,5 C16,6.1045695 15.1045695,7 14,7 L12,7 L12,5 C12,3.8954305 12.8954305,3 14,3 Z" id="路径" stroke="#323232" stroke-width="2" stroke-linecap="round" stroke-linejoin="round"/>
              <rect id="矩形" stroke="#323232" stroke-width="2" stroke-linecap="round" stroke-linejoin="round" x="10" y="7" width="4" height="14" rx="1"/>
            </g>
          </g>
        </g>
      </g>
    </g>
  </g>
</svg>
