<svg width="24" height="24" viewBox="0 0 24 24" xmlns="http://www.w3.org/2000/svg"><g fill="none" fill-rule="evenodd"><path d="M0 0h24v24H0z"/><path d="M3.81 17.738a10 10 0 1 1 2.452 2.452l-3.152.7.7-3.152z" stroke="#202020" stroke-width="2" stroke-linecap="round" stroke-linejoin="round"/><path d="M11.774 9.907l.226.23.226-.23a2.187 2.187 0 0 1 3.126 0 2.27 2.27 0 0 1 0 3.175l-2.115 2.148a1.731 1.731 0 0 1-2.474 0l-2.115-2.148a2.27 2.27 0 0 1 0-3.175 2.187 2.187 0 0 1 3.126 0z" stroke="#202020" stroke-width="2" stroke-linecap="round" stroke-linejoin="round"/></g></svg>