<?xml version="1.0" encoding="UTF-8"?>
<svg xmlns="http://www.w3.org/2000/svg" xmlns:xlink="http://www.w3.org/1999/xlink" width="20px" height="20px" viewBox="0 0 20 20" version="1.1">
  <title>bbpd_信誉分切图</title>
  <g id="信誉分切图" stroke="none" stroke-width="1" fill="none" fill-rule="evenodd">
    <circle id="椭圆形" stroke="#313131" stroke-width="2" cx="10" cy="10" r="9"/>
    <g id="编组" transform="translate(4.700000, 4.856326)" fill-rule="nonzero">
      <path d="M10.6017145,1.89954974 L10.806721,0.927687081 L7.88008914,0.927687081 L7.68924092,9.05941988e-14 L6.72652234,0.37549239 L6.83091923,0.927687081 L3.79384843,0.927687081 L3.58884189,1.89954974 L10.6017145,1.89954974 Z M1.08434481,10.0942219 L2.62888273,2.77212032 C3.20811512,2.05058592 3.64904033,1.25174427 3.95165837,0.375595358 L2.99610305,0.298288101 C2.74352824,1.04191029 2.35757853,1.72847235 1.83825391,2.3579743 C1.3189293,2.98747625 0.706177999,3.47524822 3.01980663e-13,3.82129023 L0.284462817,4.67167005 C0.685610091,4.48024256 1.05770979,4.25200209 1.4007619,3.98694864 L0.112482158,10.0942219 L1.08434481,10.0942219 Z M9.70879107,3.71085129 L9.911468,2.75003253 L3.99194091,2.75003253 L3.78926399,3.71085129 L9.70879107,3.71085129 Z M9.34071115,5.45578651 L9.54338807,4.49496775 L3.62386098,4.49496775 L3.42118406,5.45578651 L9.34071115,5.45578651 Z M3.33729915,10.0942219 L3.39321003,9.82916846 L7.43527516,9.82916846 L7.37936429,10.0942219 L8.35122695,10.0942219 L9.05011288,6.78105377 C9.0796214,6.64116445 9.05622553,6.52520356 8.97992528,6.43317112 C8.90362504,6.34113867 8.79921155,6.29512244 8.66668482,6.29512244 L3.65275703,6.29512244 C3.5202303,6.29512244 3.39640332,6.34113867 3.28127608,6.43317112 C3.16614883,6.52520356 3.09383095,6.64116445 3.06432243,6.78105377 L2.3654365,10.0942219 L3.33729915,10.0942219 Z M7.64028171,8.85730581 L3.59821657,8.85730581 L3.93601144,7.25594121 L7.97807657,7.25594121 L7.64028171,8.85730581 Z" id="信" stroke="#313131" stroke-width="0.5" stroke-linejoin="round"/>
      <path d="M10.6017145,1.89954974 L10.806721,0.927687081 L7.88008914,0.927687081 L7.68924092,0 L6.72652234,0.37549239 L6.83091923,0.927687081 L3.79384843,0.927687081 L3.58884189,1.89954974 L10.6017145,1.89954974 Z M1.08434481,10.0942219 L2.62888273,2.77212032 C3.20811512,2.05058592 3.64904033,1.25174427 3.95165837,0.375595358 L2.99610305,0.298288101 C2.74352824,1.04191029 2.35757853,1.72847235 1.83825391,2.3579743 C1.3189293,2.98747625 0.706177999,3.47524822 0,3.82129023 L0.284462817,4.67167005 C0.685610091,4.48024256 1.05770979,4.25200209 1.4007619,3.98694864 L0.112482158,10.0942219 L1.08434481,10.0942219 Z M9.70879107,3.71085129 L9.911468,2.75003253 L3.99194091,2.75003253 L3.78926399,3.71085129 L9.70879107,3.71085129 Z M9.34071115,5.45578651 L9.54338807,4.49496775 L3.62386098,4.49496775 L3.42118406,5.45578651 L9.34071115,5.45578651 Z M3.33729915,10.0942219 L3.39321003,9.82916846 L7.43527516,9.82916846 L7.37936429,10.0942219 L8.35122695,10.0942219 L9.05011288,6.78105377 C9.0796214,6.64116445 9.05622553,6.52520356 8.97992528,6.43317112 C8.90362504,6.34113867 8.79921155,6.29512244 8.66668482,6.29512244 L3.65275703,6.29512244 C3.5202303,6.29512244 3.39640332,6.34113867 3.28127608,6.43317112 C3.16614883,6.52520356 3.09383095,6.64116445 3.06432243,6.78105377 L2.3654365,10.0942219 L3.33729915,10.0942219 Z M7.64028171,8.85730581 L3.59821657,8.85730581 L3.93601144,7.25594121 L7.97807657,7.25594121 L7.64028171,8.85730581 Z" id="信" fill="#313131"/>
    </g>
  </g>
</svg>
