<?xml version="1.0" encoding="UTF-8"?>
<svg xmlns="http://www.w3.org/2000/svg" xmlns:xlink="http://www.w3.org/1999/xlink" width="24px" height="24px" viewBox="0 0 24 24" version="1.1">
  <title>bbpd_ic_profile_god</title>
  <defs>
    <path d="M10.2,0.692820323 L15.5942286,3.80717968 C16.3367912,4.23589838 16.7942286,5.02820323 16.7942286,5.88564065 L16.7942286,12.1143594 C16.7942286,12.9717968 16.3367912,13.7641016 15.5942286,14.1928203 L10.2,17.3071797 C9.45743742,17.7358984 8.54256258,17.7358984 7.8,17.3071797 L2.40577137,14.1928203 C1.66320878,13.7641016 1.20577137,12.9717968 1.20577137,12.1143594 L1.20577137,5.88564065 C1.20577137,5.02820323 1.66320878,4.23589838 2.40577137,3.80717968 L7.8,0.692820323 C8.54256258,0.264101615 9.45743742,0.264101615 10.2,0.692820323 Z" id="path-1"/>
  </defs>
  <g id="ic_profile_god" stroke="none" stroke-width="1" fill="none" fill-rule="evenodd">
    <g id="ic" transform="translate(3.000000, 3.000000)">
      <mask id="mask-2" fill="white">
        <use xlink:href="#path-1"/>
      </mask>
      <path stroke="#313131" stroke-width="2" d="M7.3,-0.173205081 C8.35196366,-0.780556584 9.64803634,-0.780556584 10.7,-0.173205081 L10.7,-0.173205081 L16.0942286,2.94115427 C16.6202105,3.24483002 17.0452105,3.67727587 17.338715,4.18564065 C17.6322195,4.69400543 17.7942286,5.27828914 17.7942286,5.88564065 L17.7942286,5.88564065 L17.7942286,12.1143594 C17.7942286,12.7217109 17.6322195,13.3059946 17.338715,13.8143594 C17.0452105,14.3227241 16.6202105,14.75517 16.0942286,15.0588457 L16.0942286,15.0588457 L10.7,18.1732051 C9.64803634,18.7805566 8.35196366,18.7805566 7.3,18.1732051 L7.3,18.1732051 L1.90577137,15.0588457 C0.853807705,14.4514942 0.205771366,13.3290624 0.205771366,12.1143594 L0.205771366,12.1143594 L0.205771366,5.88564065 C0.205771366,5.27828914 0.367780451,4.69400543 0.661284993,4.18564065 C0.954789535,3.67727587 1.37978954,3.24483002 1.90577137,2.94115427 L1.90577137,2.94115427 Z"/>
      <path d="M13.9883063,7.36707658 L13.9883063,10.6329234 C13.9883063,11.4046171 13.5766127,12.1176915 12.9083063,12.5035383 L10.08,14.1364617 C9.41169367,14.5223085 8.58830633,14.5223085 7.92,14.1364617 L5.09169367,12.5035383" id="路径" stroke="#313131" stroke-width="2" stroke-linecap="round" mask="url(#mask-2)"/>
    </g>
  </g>
</svg>
