<?xml version="1.0" encoding="UTF-8"?>
<svg xmlns="http://www.w3.org/2000/svg" xmlns:xlink="http://www.w3.org/1999/xlink" width="24px" height="24px" viewBox="0 0 24 24" version="1.1">
  <title>bbpd_切片</title>
  <g id="8分钟通话" stroke="none" stroke-width="1" fill="none" fill-rule="evenodd">
    <g id="标签" transform="translate(-28.000000, -368.000000)">
      <g id="list" transform="translate(0.000000, 354.000000)">
        <g id="ic_profile_god" transform="translate(28.000000, 14.000000)">
          <polygon id="#" points="0 0 24 0 24 24 0 24"/>
          <g id="编组" stroke-linecap="round" stroke-linejoin="round" transform="translate(3.000464, 2.670000)" stroke="#202020" stroke-width="2">
            <path d="M7.13053641,11.199 C5.96053641,10.029 5.07853641,8.719 4.49253641,7.39 C4.36953641,7.109 4.44153641,6.78 4.65853641,6.563 L5.47753641,5.744 C6.14853641,5.073 6.14853641,4.124 5.56253641,3.538 L4.38953641,2.365 C3.60853641,1.584 2.34253641,1.584 1.56153641,2.365 L0.909536411,3.016 C0.168536411,3.757 -0.140463589,4.826 0.0595364108,5.886 C0.553536411,8.499 2.07153641,11.36 4.52053641,13.809 C6.96953641,16.258 9.83053641,17.776 12.4435364,18.27 C13.5035364,18.47 14.5725364,18.161 15.3135364,17.42 L15.9645364,16.769 C16.7455364,15.988 16.7455364,14.722 15.9645364,13.941 L14.7915364,12.768 C14.2055364,12.182 13.2555364,12.182 12.6705364,12.768 L11.7675364,13.672 C11.5505364,13.889 11.2215364,13.962 10.9405364,13.838 C9.61153641,13.251 8.30053641,12.368 7.13053641,11.199 Z" id="路径"/>
            <path d="M15.8315364,0.001 C17.1285364,0.001 17.9995364,1.179 17.9995364,2.277 C17.9995364,4.506 14.3855364,6.33 14.3205364,6.33 C14.2545364,6.33 10.6415364,4.506 10.6415364,2.277 C10.6415364,1.179 11.5125364,0 12.8095364,0 C13.5515364,0 14.0385364,0.358 14.3205364,0.677 C14.6025364,0.359 15.0895364,0.001 15.8315364,0.001 Z" id="路径"/>
          </g>
        </g>
      </g>
    </g>
  </g>
</svg>
