<svg width="24" height="24" viewBox="0 0 24 24" xmlns="http://www.w3.org/2000/svg"><g fill="none" fill-rule="evenodd"><path d="M0 0h24v24H0z"/><g stroke-linecap="round" stroke-linejoin="round" stroke="#323232" stroke-width="2"><path d="M18 21H6c-1.65 0-3-1.35-3-3V6c0-1.65 1.35-3 3-3h12c1.65 0 3 1.35 3 3v12c0 1.65-1.35 3-3 3z"/><path d="M12.001 11.258C12.001 8.906 13.634 7 15.648 7c.867 0 1.57.703 1.57 1.57 0 1.894-2.337 3.43-5.219 3.43S6.78 10.465 6.78 8.57c0-.867.703-1.57 1.571-1.57 2.014 0 3.647 1.906 3.647 4.258"/><path d="M8 15.854c2.208 0 3.998-2.09 3.998-4.668l.004.014c0 2.578 1.79 4.668 3.998 4.668M12 3v18M21 12H3"/></g></g></svg>