<?xml version="1.0" encoding="UTF-8"?>
<svg xmlns="http://www.w3.org/2000/svg" xmlns:xlink="http://www.w3.org/1999/xlink" width="48px" height="48px" viewBox="0 0 48 48" version="1.1">
  <title>bbpd_房间数据</title>
  <g id="页面-1" stroke="none" stroke-width="1" fill="none" fill-rule="evenodd">
    <g id="我的备份" transform="translate(-129.000000, -2092.000000)">
      <g id="房间数据" transform="translate(129.000000, 2092.000000)">
        <rect id="矩形" opacity="0.5" x="0" y="0" width="48" height="48"/>
        <path d="M43.9952837,18.5167305 C42.6673799,10.3307806 35.725491,4.24087073 27.4489624,4.00114165 C27.0554455,3.98569009 26.671944,4.12759835 26.382975,4.39559231 C26.094006,4.66358627 25.9232875,5.03566952 25.9084429,5.42984134 L25.9084429,5.42984134 L25.9084429,5.56318665 L26.8403621,19.526345 C26.9014924,20.4662973 27.7082767,21.180811 28.6471443,21.1264886 L42.625933,20.1930715 C43.0198176,20.1638978 43.3858258,19.9786046 43.6428624,19.6782466 C43.899899,19.3778886 44.0267407,18.987266 43.9952837,18.5929278 L43.9952837,18.5167305 Z" id="Path_33948" stroke="#000000" stroke-width="4" stroke-linecap="round" stroke-linejoin="round"/>
        <path d="M17.7684135,12.3066492 C18.6576225,12.100633 19.5675753,12.5563407 19.9365522,13.392461 C20.0332047,13.5891173 20.0913102,13.8025132 20.107721,14.0210888 C20.2979086,16.7260936 20.6973026,22.650435 20.9255277,25.8507223 C20.9644939,26.4272061 21.2312248,26.9643682 21.6666925,27.3433336 C22.1021602,27.7222989 22.6704565,27.9118184 23.2458164,27.8699512 L23.2458164,27.8699512 L34.9803914,27.1460767 C35.5042639,27.1145361 36.0178639,27.3012216 36.3996132,27.6619413 C36.7813626,28.022661 36.9973256,28.5253488 36.9963831,29.0510096 L36.9963831,29.0510096 C36.5208395,36.1484716 31.4297396,42.0818705 24.4957114,43.6198562 C17.5616831,45.157842 10.4455625,41.9320367 7.02281406,35.6992255 C6.0010552,33.9053467 5.35399781,31.9221686 5.12093805,29.8701307 C5.02130432,29.2403632 4.98308673,28.6023796 5.00682548,27.9651978 C5.02700873,20.3856954 10.3415927,13.8549346 17.7493948,12.3066492" id="Path_33949" stroke="#000000" stroke-width="4" stroke-linecap="round" stroke-linejoin="round"/>
      </g>
    </g>
  </g>
</svg>
