<?xml version="1.0" encoding="UTF-8"?>
<svg xmlns="http://www.w3.org/2000/svg" xmlns:xlink="http://www.w3.org/1999/xlink" width="48px" height="48px" viewBox="0 0 48 48" version="1.1">
  <title>bbpd_ic_settings@2x</title>
  <defs>
    <path d="M26.8856406,2.4 L32.6143594,12.3224319 C33.4717968,13.807557 33.4717968,15.6373067 32.6143594,17.1224319 L26.8856406,27.0448637 C26.0282032,28.5299889 24.4435935,29.4448637 22.7287187,29.4448637 L11.2712813,29.4448637 C9.55640646,29.4448637 7.97179677,28.5299889 7.11435935,27.0448637 L1.38564065,17.1224319 C0.52820323,15.6373067 0.52820323,13.807557 1.38564065,12.3224319 L7.11435935,2.4 C7.97179677,0.914874832 9.55640646,-1.46133944e-15 11.2712813,0 L22.7287187,0 C24.4435935,-6.17753745e-17 26.0282032,0.914874832 26.8856406,2.4 Z" id="path-1"/>
  </defs>
  <g id="页面-1" stroke="none" stroke-width="1" fill="none" fill-rule="evenodd">
    <g id="我的" transform="translate(-670.000000, -120.000000)">
      <g id="titlebar_homepage" transform="translate(0.000000, 88.000000)">
        <g id="ic_settings" transform="translate(670.000000, 32.000000)">
          <rect id="#" x="0" y="0" width="48" height="48"/>
          <g id="ic_setting" transform="translate(7.000000, 9.040000)">
            <mask id="mask-2" fill="white">
              <use xlink:href="#path-1"/>
            </mask>
            <path stroke="#000000" stroke-width="4" d="M22.7287187,-2 C23.9434217,-2 25.1119891,-1.67598183 26.1287187,-1.08897275 C27.1454483,-0.501963661 28.01034,0.348036339 28.6176915,1.4 L34.3464102,11.3224319 C34.9537617,12.3743955 35.2574374,13.5484137 35.2574374,14.7224319 C35.2574374,15.89645 34.9537617,17.0704682 34.3464102,18.1224319 L28.6176915,28.0448637 C28.01034,29.0968274 27.1454483,29.9468274 26.1287187,30.5338365 C25.1119891,31.1208456 23.9434217,31.4448637 22.7287187,31.4448637 L11.2712813,31.4448637 C8.84187528,31.4448637 6.59701155,30.1487911 5.38230855,28.0448637 L-0.346410162,18.1224319 C-0.953761664,17.0704682 -1.25743742,15.89645 -1.25743742,14.7224319 C-1.25743742,13.5484137 -0.953761664,12.3743955 -0.346410162,11.3224319 L5.38230855,1.4 C5.98966005,0.348036339 6.85455173,-0.501963661 7.87128129,-1.08897275 C8.88801085,-1.67598183 10.0565783,-2 11.2712813,-2 Z"/>
            <path d="M23,14.96 C23,11.6462915 20.3137085,8.96 17,8.96 C13.6862915,8.96 11,11.6462915 11,14.96 C11,18.2737085 13.6862915,20.96 17,20.96 C17.813511,20.96 18.5892078,20.7980983 19.2966271,20.5047583" id="路径" stroke="#000000" stroke-width="4" stroke-linecap="round" stroke-linejoin="round" mask="url(#mask-2)"/>
          </g>
        </g>
      </g>
    </g>
  </g>
</svg>
