<?xml version="1.0" encoding="UTF-8"?>
<svg xmlns="http://www.w3.org/2000/svg" xmlns:xlink="http://www.w3.org/1999/xlink" width="18px" height="18px" viewBox="0 0 18 18" version="1.1">
  <title>bbpd_换一换</title>
  <g id="页面-1" stroke="none" stroke-width="1" fill="none" fill-rule="evenodd">
    <g id="完善资料_昵称头像" transform="translate(-317.000000, -320.000000)" fill="#575759" fill-rule="nonzero">
      <g id="input_field_cell备份-3" transform="translate(40.000000, 320.000000)">
        <g id="换一换" transform="translate(277.000000, 0.000000)">
          <path d="M8.92904663,15.2702406 L9.57035937,15.2702406 C9.66902287,15.2702406 9.81701812,15.2209088 9.91568162,15.2209088 C9.96501336,15.2209088 10.0636769,15.1715771 10.1130086,15.1715771 C10.2116721,15.1222453 10.3596674,15.1222453 10.4583309,15.0729136 C10.5076626,15.0729136 10.5569944,15.0235818 10.6063261,15.0235818 C10.7543213,14.9742501 10.8529848,14.9249183 11.0009801,14.8755866 C11.0503118,14.8755866 11.0503118,14.8262548 11.0996436,14.8262548 C11.2476388,14.7769231 11.3956341,14.6782596 11.5436293,14.6289278 C12.0369468,14.3822691 12.4316008,14.0369468 12.8262548,13.6422928 C12.9249183,13.5436293 13.0729136,13.3956341 13.1715771,13.2476388 C13.1715771,13.1983071 13.2209088,13.1983071 13.2209088,13.1489753 C14.0102168,12.1623404 14.4542026,10.9290466 14.4542026,9.5970894 L13.1222453,9.5970894 C13.0729136,9.5970894 13.0729136,9.5970894 13.0235818,9.54775764 L13.0235818,9.44909414 L15.342174,6.04520345 C15.342174,5.99587169 15.3915058,5.99587169 15.4408375,5.99587169 C15.4901693,5.99587169 15.4901693,5.99587169 15.539501,6.04520345 L17.710098,9.3997624 L17.710098,9.4984259 C17.710098,9.54775764 17.6607663,9.54775764 17.6114345,9.54775764 L16.2794773,9.54775764 C16.2794773,11.1263736 15.7861598,12.6063261 14.94752,13.8396198 C14.94752,13.8396198 14.94752,13.8889516 14.8981883,13.8889516 C14.7995248,14.0369468 14.7008613,14.1356103 14.6021978,14.2342738 C14.5528661,14.2836056 14.5528661,14.3329373 14.5035343,14.3822691 C14.3555391,14.5302643 14.2075438,14.7275913 14.0595486,14.8755866 L14.0102168,14.9249183 C13.5168993,15.4182358 12.9249183,15.8622216 12.3329373,16.2075438 C12.3329373,16.2075438 12.2836056,16.2075438 12.2836056,16.2568756 C12.0862786,16.3555391 11.9382833,16.4542026 11.7409563,16.5035343 C11.6916246,16.5035343 11.6422928,16.552866 11.5929611,16.552866 C11.4449658,16.6021978 11.2969706,16.7008613 11.0996436,16.750193 C11.0009801,16.7995248 10.9516483,16.7995248 10.8529848,16.8488565 C10.7049896,16.8981883 10.5569943,16.94752 10.4089991,16.94752 C10.3103356,16.94752 10.2116721,16.9968518 10.1130086,16.9968518 C10.0636769,16.9968518 10.0143451,16.9968518 10.0143451,17.0461835 C9.86634988,17.0955153 9.71835462,17.0955153 9.61969112,17.0955153 L9.47169587,17.0955153 C9.22503713,17.0955153 8.97837839,17.144847 8.73171963,17.144847 C7.2024354,17.144847 5.72248292,16.6515296 4.48918919,15.763558 C4.09453519,15.4675675 3.99587171,14.9249183 4.29186219,14.4809326 C4.58785269,14.0862786 5.13050194,13.9876151 5.52515592,14.2836056 C6.56112265,14.9249183 7.74508464,15.3195723 8.92904663,15.2702406 L8.92904663,15.2702406 Z M2.71324622,5.30522721 C2.71324622,5.30522721 2.71324622,5.25589546 2.76257796,5.25589546 C2.86124146,5.10790022 2.95990496,4.95990496 3.1079002,4.81190972 L3.15723196,4.76257796 C3.89720821,3.82527473 4.88384318,3.13463025 5.91980993,2.64131274 C5.96914167,2.64131274 5.96914167,2.591981 6.01847343,2.591981 C6.16646867,2.54264926 6.36379567,2.44398576 6.56112267,2.394654 C6.61045441,2.394654 6.70911791,2.34532226 6.75844965,2.34532224 C6.9064449,2.2959905 7.05444016,2.24665874 7.2024354,2.24665876 C7.3010989,2.24665876 7.3997624,2.19732702 7.44909416,2.197327 C7.4984259,2.197327 7.54775766,2.197327 7.5970894,2.14799526 C7.6957529,2.14799526 7.84374814,2.09866352 7.94241164,2.0986635 C8.04107514,2.0986635 8.09040688,2.0986635 8.18907038,2.04933176 C8.33706563,2.04933176 8.53439263,2 8.73171963,2 L8.83038313,2 C10.3596674,2 11.8396198,2.49331749 13.1222453,3.38128899 C13.5168993,3.67727949 13.6155628,4.21992874 13.3195723,4.66391446 C13.0235818,5.05856846 12.4809326,5.15723195 12.0862786,4.86124146 C11.0996436,4.17059698 9.96501336,3.82527473 8.78105139,3.82527473 C8.63305615,3.82527473 8.43572914,3.82527473 8.28773389,3.87460647 L8.13973864,3.87460647 C7.9917434,3.87460647 7.8930799,3.92393822 7.74508464,3.92393823 C7.6957529,3.92393823 7.64642114,3.97326998 7.5970894,3.97326998 C7.44909416,4.02260172 7.35043066,4.02260172 7.2024354,4.07193348 C7.15310366,4.07193348 7.1037719,4.12126522 7.1037719,4.12126522 L6.65978615,4.26926048 L6.61045441,4.26926048 C5.77181467,4.61458272 5.03183844,5.20656371 4.48918919,5.89720819 C3.69988121,6.88384318 3.20656371,8.16646865 3.20656371,9.54775764 L4.53852094,9.54775764 C4.58785268,9.54775764 4.58785268,9.54775764 4.63718444,9.5970894 L4.63718444,9.6957529 L2.41725572,13.0503118 C2.41725572,13.0996436 2.36792398,13.0996436 2.31859222,13.0996436 C2.26926046,13.0996436 2.26926048,13.0996436 2.21992872,13.0503118 L-2.18491891e-13,9.6957529 L-2.18491891e-13,9.5970894 C-2.18491891e-13,9.54775766 0.0493317416,9.54775766 0.0986635005,9.54775764 L1.43062073,9.54775764 C1.38128899,7.96914167 1.87460647,6.48918918 2.71324622,5.30522721 Z" id="形状"/>
        </g>
      </g>
    </g>
  </g>
</svg>
