<?xml version="1.0"?>
<svg xmlns="http://www.w3.org/2000/svg" width="16" height="16" viewBox="0 0 16 16">
  <title>bbpd_ic_female</title>
  <defs>
    <linearGradient id="a" x1="19.133%" x2="80.867%" y1="0%" y2="83.329%">
      <stop offset="0%" stop-color="#FF8D8D"/>
      <stop offset="100%" stop-color="#FF6CD2"/>
    </linearGradient>
  </defs>
  <path fill="url(#a)" fill-rule="evenodd" d="M4.314 8.555l.032.019 4.017 2.384c.744.443 1 1.398.576 2.153l-.013.024a1.547 1.547 0 0 1-2.138.573l-.653-.388-.506.901a1.525 1.525 0 0 1-2.108.565l-.005-.003a1.595 1.595 0 0 1-.577-2.153l.508-.905-.676-.402a1.595 1.595 0 0 1-.576-2.153l.013-.024a1.547 1.547 0 0 1 2.106-.591zm6.613-6.966c2.04 1.178 2.712 3.834 1.5 5.932-1.21 2.099-3.847 2.845-5.888 1.667C4.5 8.01 3.826 5.353 5.038 3.255 6.249 1.156 8.886.41 10.927 1.589zM7.725 4.806c-.33.573-.147 1.297.41 1.618.556.322 1.275.118 1.606-.454.33-.572.147-1.297-.41-1.618-.556-.321-1.275-.118-1.606.454z"/>
</svg>
