<?xml version="1.0"?>
<svg xmlns="http://www.w3.org/2000/svg" width="48" height="48" viewBox="0 0 48 48">
  <title>bbpd_ic_cell</title>
  <defs>
    <linearGradient id="a" x1="24.691%" x2="100%" y1="10.485%" y2="114.19%">
      <stop offset="0%" stop-color="#FFE688"/>
      <stop offset="100%" stop-color="#FFA257"/>
    </linearGradient>
  </defs>
  <g fill="none" fill-rule="evenodd">
    <circle cx="24" cy="24" r="24" fill="url(#a)"/>
    <path fill="#FFF" d="M27.611 15.5a2.889 2.889 0 0 1 2.889 2.889V29.61a2.889 2.889 0 0 1-2.889 2.889H20.39a2.889 2.889 0 0 1-2.889-2.889V18.39a2.889 2.889 0 0 1 2.889-2.889h7.222zM24 29.352c-.718 0-1.3.564-1.3 1.26 0 .695.582 1.258 1.3 1.258.718 0 1.3-.563 1.3-1.259 0-.695-.582-1.26-1.3-1.26zm3.828-11.963h-7.656a.722.722 0 0 0-.722.722V28c0 .399.323.722.722.722h7.656A.722.722 0 0 0 28.55 28v-9.889a.722.722 0 0 0-.722-.722zm-2.843-1.26h-1.97a.315.315 0 0 0 0 .63h1.97a.315.315 0 0 0 0-.63z"/>
  </g>
</svg>
