<?xml version="1.0"?>
<svg xmlns="http://www.w3.org/2000/svg" xmlns:xlink="http://www.w3.org/1999/xlink" width="48" height="48" viewBox="0 0 48 48">
  <title>bbpd_ic_sharetofriend</title>
  <defs>
    <linearGradient id="b" x1="82.446%" x2="14.462%" y1="85.821%" y2="14.437%">
      <stop offset="0%" stop-color="#FF7092"/>
      <stop offset="100%" stop-color="#FFA8D0"/>
    </linearGradient>
    <circle id="a" cx="24" cy="24" r="24"/>
  </defs>
  <g fill="none" fill-rule="evenodd">
    <mask id="c" fill="#fff">
      <use xlink:href="#a"/>
    </mask>
    <use fill="url(#b)" xlink:href="#a"/>
    <g fill="#FFF" fill-rule="nonzero" mask="url(#c)">
      <path d="M23.32 26.238c-.08-.027-.586-.546-.27-1.523h-.004c.825-.862 1.53-2.25 1.53-3.616 0-2.1-1.451-3.2-3.05-3.2-1.6 0-2.988 1.1-2.988 3.2 0 1.372.647 2.764 1.476 3.626.323.86-.255 1.467-.376 1.513-1.674.614-3.638 1.735-3.638 2.84v.416c0 1.507 2.878 1.85 5.542 1.85 2.667 0 5.51-.343 5.51-1.85v-.415c0-1.14-1.974-2.251-3.731-2.841z"/>
      <path d="M28.467 23.469c-.075-.025-.551-.142-.254-1.06h-.004c.776-.81 1.31-2.116 1.31-3.4 0-1.974-1.237-3.009-2.74-3.009-1.106 0-2.059.565-2.487 1.648.898.742 1.516 1.896 1.516 3.45 0 1.66-.778 3.175-1.591 4.152 1.296.49 3.32 1.477 3.9 2.984 2.042-.113 3.858-.537 3.858-1.705v-.39c0-1.07-1.856-2.116-3.508-2.67z"/>
    </g>
  </g>
</svg>
