<svg width="134" height="134" viewBox="0 0 134 134" fill="none" xmlns="http://www.w3.org/2000/svg">
<rect x="7.62857" y="7.62859" width="118.743" height="118.743" rx="59.3714" fill="#43D6BC" fill-opacity="0.1" stroke="url(#paint0_linear_1_1439)" stroke-width="0.9"/>
<path d="M79.1613 56.0621C79.9521 56.0621 80.732 56.1199 81.5043 56.2039C79.4002 46.5069 68.9215 39.3005 56.9617 39.3005C43.5897 39.3005 32.6355 48.3202 32.6355 59.7726C32.6355 66.3821 36.2807 71.8107 42.3697 76.0212L39.9371 83.2641L48.4401 79.0433C51.4846 79.6384 53.9246 80.2521 56.9617 80.2521C57.7247 80.2521 58.4801 80.2149 59.232 80.1553C58.7562 78.5472 58.4801 76.8608 58.4801 75.1127C58.4802 64.5968 67.6063 56.0621 79.1613 56.0621ZM66.084 49.5347C67.9159 49.5347 69.1285 50.7286 69.1285 52.54C69.1285 54.344 67.9159 55.5528 66.084 55.5528C64.2595 55.5528 62.4313 54.344 62.4313 52.54C62.4313 50.7286 64.2596 49.5347 66.084 49.5347ZM49.0594 55.5527C47.2349 55.5527 45.3955 54.3439 45.3955 52.54C45.3955 50.7285 47.2349 49.5346 49.0594 49.5346C50.8819 49.5346 52.0964 50.7285 52.0964 52.54C52.0964 54.344 50.8819 55.5527 49.0594 55.5527ZM101.365 74.8236C101.365 65.1994 91.6322 57.3549 80.7022 57.3549C69.1285 57.3549 60.0136 65.1994 60.0136 74.8236C60.0136 84.4617 69.1285 92.2894 80.7022 92.2894C83.1236 92.2894 85.5674 91.6886 87.9999 91.0843L94.6731 94.6996L92.8429 88.6852C97.727 85.0587 101.365 80.2521 101.365 74.8236ZM73.9937 71.8107C72.7831 71.8107 71.5612 70.6187 71.5612 69.4023C71.5612 68.2028 72.7831 66.9959 73.9937 66.9959C75.8331 66.9959 77.0382 68.2028 77.0382 69.4023C77.0382 70.6187 75.8331 71.8107 73.9937 71.8107ZM87.3731 71.8107C86.1719 71.8107 84.9574 70.6187 84.9574 69.4023C84.9574 68.2028 86.1719 66.9959 87.3731 66.9959C89.1977 66.9959 90.4177 68.2028 90.4177 69.4023C90.4177 70.6187 89.1977 71.8107 87.3731 71.8107Z" fill="url(#paint1_linear_1_1439)"/>
<defs>
<linearGradient id="paint0_linear_1_1439" x1="68.9941" y1="7.17858" x2="68.9941" y2="126.821" gradientUnits="userSpaceOnUse">
<stop stop-color="#4A9686" stop-opacity="0"/>
<stop offset="1" stop-color="#4A9686"/>
</linearGradient>
<linearGradient id="paint1_linear_1_1439" x1="67" y1="39.3005" x2="67" y2="94.6996" gradientUnits="userSpaceOnUse">
<stop stop-color="#D7FFDB"/>
<stop offset="1" stop-color="#79FF51"/>
</linearGradient>
</defs>
</svg>
