<?xml version="1.0" encoding="UTF-8"?>
<svg xmlns="http://www.w3.org/2000/svg" xmlns:xlink="http://www.w3.org/1999/xlink" width="48px" height="48px" viewBox="0 0 48 48" version="1.1">
  <title>bbpd_ic_room_voice_close备份 2</title>
  <g id="房间" stroke="none" stroke-width="1" fill="none" fill-rule="evenodd">
    <g id="房间底部bar切图" transform="translate(-343.000000, -29.000000)" fill="#FFFFFF">
      <g id="ic_room_voice_close" transform="translate(343.000000, 29.000000)">
        <circle id="base" fill-opacity="0.12" opacity="0" cx="24" cy="24" r="24"/>
        <g id="编组" transform="translate(11.250000, 9.700000)" fill-rule="nonzero">
          <path d="M3.46625917,22.2500521 L22.034743,22.2500521 L20.5633408,19.7125732 C20.4378699,19.4967284 20.3810378,19.2490564 20.400135,19.0013292 L20.400135,12.2501354 C20.400135,8.11391987 16.9689883,4.7501979 12.7498636,4.7501979 C8.53201393,4.7501979 5.09959213,8.11391987 5.09959213,12.2501354 L5.09959213,18.9938292 L5.10341726,19.0375788 C5.11373505,19.2733549 5.05630254,19.5072327 4.93766137,19.7125732 L3.46625917,22.2500521 Z M24.2252707,24.7500321 L1.2744564,24.7500321 C0.820606281,24.7500321 0.401078213,24.5131282 0.172886245,24.1285258 C-0.055305723,23.7439234 -0.0577599585,23.2693979 0.166442069,22.8825468 L2.55587687,18.7625812 L2.54950163,12.2501354 C2.54950163,6.73643134 7.12563901,2.25021874 12.7498636,2.25021874 C18.3740881,2.25021874 22.9502255,6.73643137 22.9502255,12.2501354 L22.9502255,18.7700811 L25.3332851,22.8825468 C25.5573785,23.2693912 25.5554374,23.7437173 25.3281849,24.1287864 C25.0998372,24.5138459 24.679602,24.7505543 24.2252707,24.7500321 L24.2252707,24.7500321 Z" id="形状"/>
          <path d="M12.75,28.5 C9.44159999,28.5 6.75,25.6962734 6.75,22.2500521 L9.14999999,22.2500521 C9.14999999,24.3175349 10.7652,26.0000208 12.75,26.0000208 C14.7348,26.0000208 16.35,24.3175349 16.35,22.2500521 L18.75,22.2500521 C18.75,25.6962734 16.0584,28.5 12.75,28.5 M9.15191721,3.74746875 C9.15191721,1.68123597 10.76592,0 12.74952,0 C14.73432,0 16.34712,1.681236 16.34712,3.74746875 C16.34712,4.24746459 15.4792,4.48037932 13.74336,4.44621294 C13.87776,4.23871466 13.94736,3.99746669 13.94736,3.74746875 C13.94736,3.05997447 13.41096,2.49997916 12.74976,2.49997916 C12.08976,2.49997916 11.55216,3.0599745 11.55216,3.74746875 C11.55216,3.99746666 11.62296,4.23871466 11.75616,4.44496294 C10.0195987,4.47808381 9.15151781,4.24558574 9.15191721,3.74746875 Z" id="形状"/>
        </g>
      </g>
    </g>
  </g>
</svg>
