<?xml version="1.0" encoding="UTF-8"?>
<svg xmlns="http://www.w3.org/2000/svg" xmlns:xlink="http://www.w3.org/1999/xlink" width="48px" height="48px" viewBox="0 0 48 48" version="1.1">
  <title>bbpd_ic_room_voice_close备份</title>
  <g id="房间" stroke="none" stroke-width="1" fill="none" fill-rule="evenodd">
    <g id="房间底部bar切图" transform="translate(-20.000000, -29.000000)" fill="#FFFFFF">
      <g id="ic_room_voice_close" transform="translate(20.000000, 29.000000)">
        <circle id="base" fill-opacity="0.12" opacity="0" cx="24" cy="24" r="24"/>
        <g id="编组" transform="translate(10.139284, 10.000000)" fill-rule="nonzero">
          <path d="M19.7597867,0 C21.8498526,0 23.8185496,0.815546682 25.2974557,2.29417279 C28.3483163,5.34667877 28.3483163,10.3126332 25.2973269,13.3652679 C23.8193096,14.8430054 21.8514995,15.6582449 19.7618678,15.6582449 C19.6836126,15.6582449 19.6049114,15.6570375 19.5259063,15.6546385 L19.5259063,15.6546385 L19.2597158,15.641 L5.23928959,27.4983443 C4.63872155,27.9145104 2.52888877,27.4837915 1.45021336,26.5237173 L1.45021336,26.5237173 L1.31579603,26.395742 C0.285776238,25.3436989 -0.315395798,22.7311979 0.171878824,22.248295 L0.171878824,22.248295 L11.9477158,8.328 L11.9419865,8.25287415 C11.8259442,6.1329075 12.5721819,4.0622538 14.021197,2.50351262 L14.021197,2.50351262 L14.223131,2.29417346 C15.7010858,0.815416032 17.6688994,0 19.7597867,0 Z M13.7911713,12.9614351 C13.0325588,12.2968515 11.8788304,12.373077 11.2142469,13.1316895 L11.2142469,13.1316895 L2.63336323,22.9266439 C2.16884341,23.4568866 2.1914667,24.255533 2.68525795,24.7586296 C3.17712781,25.2597685 3.97408651,25.2914756 4.50421447,24.830997 L4.50421447,24.830997 L14.3446025,16.2834603 C14.3725732,16.2591645 14.3997979,16.2340231 14.426239,16.2080711 C15.1460138,15.5016092 15.1568061,14.3454159 14.4503443,13.6256411 L14.4503443,13.6256411 L13.891104,13.0558621 C13.8589902,13.0231432 13.8256557,12.9916452 13.7911713,12.9614351 Z M19.7592071,1.82384698 C18.154201,1.82384698 16.6468549,2.44911095 15.5118264,3.58392461 C14.1658693,4.92956515 13.556157,6.81615125 13.8272979,8.68947585 C14.369709,10.3674203 14.9312185,11.4966416 15.5118264,12.0771395 C16.0587754,12.6239849 17.1886011,13.1857788 18.9013037,13.762521 C20.761719,14.0299714 22.6703166,13.4143914 24.0078217,12.0771395 C26.3478387,9.73522163 26.3478387,5.92590416 24.0078217,3.58392461 C22.8727931,2.44911095 21.3629794,1.82384698 19.7592071,1.82384698 Z" id="形状结合"/>
        </g>
      </g>
    </g>
  </g>
</svg>
