<svg width="40" height="40" viewBox="0 0 40 40" fill="none" xmlns="http://www.w3.org/2000/svg">
<rect width="40" height="40" rx="20" fill="white"/>
<g clip-path="url(#clip0_119_185)">
<path fill-rule="evenodd" clip-rule="evenodd" d="M24.0361 9.6001C24.1828 10.7742 23.6936 11.9484 23.0087 12.829C22.2749 13.7096 21.1496 14.3456 19.9755 14.1988C19.8287 13.0736 20.4158 11.8505 21.0518 11.1167C21.7856 10.285 23.0087 9.64902 24.0361 9.6001ZM21.3543 15.081C22.0981 14.7919 23.0217 14.4329 24.0364 14.4926C24.6724 14.5415 26.5315 14.7372 27.6567 16.4984C27.5588 16.5474 25.4552 17.7704 25.5041 20.3144C25.5041 23.0922 27.7198 24.1467 28.1305 24.3422C28.1682 24.3602 28.1907 24.3709 28.1948 24.375C28.1948 24.4239 27.8035 25.7938 26.825 27.2125C25.9933 28.4845 25.1127 29.6586 23.7429 29.7076C23.0617 29.7319 22.6103 29.5385 22.1422 29.3378C21.669 29.135 21.1785 28.9248 20.4161 28.9248C19.6068 28.9248 19.0901 29.1477 18.5909 29.363C18.1545 29.5512 17.7315 29.7337 17.1383 29.7565C15.8174 29.8054 14.79 28.4356 13.9583 27.2125C12.1971 24.7175 10.9251 20.1676 12.6863 17.0855C13.5669 15.52 15.1325 14.5905 16.8448 14.5415C17.5911 14.5415 18.3062 14.8227 18.9284 15.0673C19.4073 15.2555 19.831 15.4221 20.1715 15.4221C20.4768 15.4221 20.8788 15.2659 21.3543 15.081Z" fill="black"/>
</g>
<defs>
<clipPath id="clip0_119_185">
<rect x="9.59961" y="9.6001" width="20.8" height="20.8" fill="white"/>
</clipPath>
</defs>
</svg>
