<svg width="32" height="32" viewBox="0 0 32 32" fill="none" xmlns="http://www.w3.org/2000/svg">
<g id="ic_script_close">
<path id="Union" fill-rule="evenodd" clip-rule="evenodd" d="M16 3C23.1797 3 29 8.8203 29 16C29 23.1797 23.1797 29 16 29C8.8203 29 3 23.1797 3 16C3 8.8203 8.8203 3 16 3ZM16 0C24.8366 0 32 7.16344 32 16C32 24.8366 24.8366 32 16 32C7.16344 32 0 24.8366 0 16C0 7.16344 7.16344 0 16 0ZM22.0607 9.93934C22.6464 10.5251 22.6464 11.4749 22.0607 12.0607L18.1213 16L22.0607 19.9393C22.6464 20.5251 22.6464 21.4749 22.0607 22.0607C21.4749 22.6464 20.5251 22.6464 19.9393 22.0607L16 18.1213L12.0607 22.0607C11.4749 22.6464 10.5251 22.6464 9.93934 22.0607C9.35355 21.4749 9.35355 20.5251 9.93934 19.9393L13.8787 16L9.93934 12.0607C9.35355 11.4749 9.35355 10.5251 9.93934 9.93934C10.5251 9.35355 11.4749 9.35355 12.0607 9.93934L16 13.8787L19.9393 9.93934C20.5251 9.35355 21.4749 9.35355 22.0607 9.93934Z" fill="white"/>
</g>
</svg>
