<?xml version="1.0" encoding="UTF-8"?>
<svg xmlns="http://www.w3.org/2000/svg" xmlns:xlink="http://www.w3.org/1999/xlink" width="31px" height="10px" viewBox="0 0 31 10" version="1.1">
  <title>bbpd_形状结合</title>
  <g id="页面-1" stroke="none" stroke-width="1" fill="none" fill-rule="evenodd">
    <g id="n号玩家作画" transform="translate(-103.000000, -107.000000)" fill="#5955FA">
      <g id="编组-19" transform="translate(12.000000, 92.000000)">
        <g id="编组-18" transform="translate(4.000000, 12.000000)">
          <g id="编组-14" transform="translate(16.000000, 0.000000)">
            <path d="M97.7990381,3.75025046 L101.799038,10.6784537 C101.932153,10.9090147 101.997102,11.1602256 102.000139,11.40875 C101.999887,11.4186281 102,11.4293561 102,11.4401105 L101.999798,11.4638868 C101.999396,11.4802421 101.998727,11.4965781 101.997792,11.5128883 L102,11.4401105 C102,12.2685377 101.328427,12.9401105 100.5,12.9401105 L72.5,12.9401105 C71.6715729,12.9401105 71,12.2685377 71,11.4401105 C71,10.6116834 71.6715729,9.94011055 72.5,9.94011055 L97.908,9.94 L95.2009619,5.25025046 C94.7867483,4.53281153 95.0325611,3.61542592 95.75,3.20121236 C96.4674389,2.78699879 97.3848245,3.03281153 97.7990381,3.75025046 Z" id="形状结合"/>
          </g>
        </g>
      </g>
    </g>
  </g>
</svg>
