<?xml version="1.0" encoding="UTF-8"?>
<svg xmlns="http://www.w3.org/2000/svg" xmlns:xlink="http://www.w3.org/1999/xlink" width="31px" height="10px" viewBox="0 0 31 10" version="1.1">
  <title>bbpd_形状结合备份</title>
  <g id="页面-1" stroke="none" stroke-width="1" fill="none" fill-rule="evenodd">
    <g id="复盘阶段-播放n+1号-2s快放备份" transform="translate(-103.000000, -107.000000)" fill="#B6B6B6">
      <path d="M129.799038,107.75025 L133.799038,114.678454 C133.953114,114.945321 134.015867,115.239854 133.996992,115.525864 L134,115.440111 C134,116.268538 133.328427,116.940111 132.5,116.940111 L128.973684,116.940111 C128.145257,116.940111 127.473684,116.268538 127.473684,115.440111 C127.473684,114.611683 128.145257,113.940111 128.973684,113.940111 L129.908,113.94 L127.200962,109.25025 C126.786748,108.532812 127.032561,107.615426 127.75,107.201212 C128.467439,106.786999 129.384825,107.032812 129.799038,107.75025 Z M124.342105,113.940111 C125.170532,113.940111 125.842105,114.611683 125.842105,115.440111 C125.842105,116.268538 125.170532,116.940111 124.342105,116.940111 L120.815789,116.940111 C119.987362,116.940111 119.315789,116.268538 119.315789,115.440111 C119.315789,114.611683 119.987362,113.940111 120.815789,113.940111 L124.342105,113.940111 Z M116.184211,113.940111 C117.012638,113.940111 117.684211,114.611683 117.684211,115.440111 C117.684211,116.268538 117.012638,116.940111 116.184211,116.940111 L112.657895,116.940111 C111.829468,116.940111 111.157895,116.268538 111.157895,115.440111 C111.157895,114.611683 111.829468,113.940111 112.657895,113.940111 L116.184211,113.940111 Z M108.026316,113.940111 C108.854743,113.940111 109.526316,114.611683 109.526316,115.440111 C109.526316,116.268538 108.854743,116.940111 108.026316,116.940111 L104.5,116.940111 C103.671573,116.940111 103,116.268538 103,115.440111 C103,114.611683 103.671573,113.940111 104.5,113.940111 L108.026316,113.940111 Z" id="形状结合备份"/>
    </g>
  </g>
</svg>
