<?xml version="1.0" encoding="UTF-8"?>
<svg xmlns="http://www.w3.org/2000/svg" xmlns:xlink="http://www.w3.org/1999/xlink" width="40px" height="40px" viewBox="0 0 40 40" version="1.1">
  <title>bbpd_编组 9</title>
  <g id="页面-1" stroke="none" stroke-width="1" fill="none" fill-rule="evenodd">
    <g id="复盘阶段-播放n+1号-2s快放备份-2" transform="translate(-312.000000, -307.000000)" stroke="#343434" stroke-width="2.4">
      <g id="编组-9" transform="translate(312.000000, 307.000000)">
        <circle id="椭圆形备份-3" fill="#FE9153" cx="20" cy="20" r="18.8"/>
        <g id="编组-30" transform="translate(7.500000, 7.500000)" fill="#FFFFFF" fill-rule="nonzero">
          <g id="icon-分享">
            <path d="M14.4256186,1.96084364 C14.8489451,1.73997766 15.3320254,1.66787153 15.8017253,1.74885029 C16.24113,1.82460599 16.6690329,2.03444445 17.0224648,2.38793749 L17.0224648,2.38793749 L24.160124,9.64786932 C24.8867503,10.3868113 25.1701146,11.1516319 25.1579741,11.8881605 C25.1459256,12.6190996 24.8349146,13.3794771 24.1145332,14.1120683 L24.1145332,14.1120683 L17.1528475,21.1960923 C16.8022595,21.5466803 16.399289,21.7543801 15.995503,21.8493713 C15.5286899,21.9591897 15.0559022,21.9181228 14.6361921,21.7522696 C14.2096791,21.5837282 13.8370946,21.2865738 13.5774744,20.8833806 C13.3529507,20.5346928 13.2090751,20.1031634 13.2090751,19.598637 L13.2090751,19.598637 L13.209,16.618 L13.0774703,16.6192041 C10.8935327,16.6433183 8.01909863,16.894852 5.99918398,19.4989451 L5.80642783,19.7583695 C2.59084142,21.155542 2.63145011,20.1648137 2.34061778,19.7264261 C2.0561636,19.2976526 1.88639322,18.7222306 1.88639322,18.0543006 C1.88639322,13.0741081 3.19636918,10.8767295 6.0972015,8.60356993 C7.96339582,7.13185571 10.1984077,6.26042065 12.8973677,5.98331743 L13.209,5.955 L13.2090751,4.14628277 C13.2090751,3.72081685 13.2916142,3.36108898 13.4199792,3.06140693 L13.4878106,2.91654338 C13.7150321,2.47072936 14.0494128,2.15712491 14.4256186,1.96084364 Z" id="路径"/>
          </g>
        </g>
      </g>
    </g>
  </g>
</svg>
