<?xml version="1.0" encoding="UTF-8"?>
<svg xmlns="http://www.w3.org/2000/svg" xmlns:xlink="http://www.w3.org/1999/xlink" width="15px" height="15px" viewBox="0 0 15 15" version="1.1">
  <title>bbpd_编组 19</title>
  <g id="页面-1" stroke="none" stroke-width="1" fill="none" fill-rule="evenodd">
    <g id="复盘阶段-播放n+1号-2s快放" transform="translate(-77.000000, -120.000000)">
      <g id="编组-19" transform="translate(77.000000, 120.000000)">
        <rect id="矩形" x="0" y="0" width="15" height="15"/>
        <path d="M10.7990381,3.48230127 L13.7990381,8.67845369 C13.9321526,8.90901474 13.9971018,9.16022559 14.0001386,9.40874998 C13.9998868,9.41862812 14,9.42935612 14,9.44011055 L13.9997978,9.46388683 C13.9993959,9.48024207 13.9987267,9.49657811 13.997792,9.51288826 L14,9.44011055 C14,10.2685377 13.3284271,10.9401105 12.5,10.9401105 L2.5,10.9401105 C1.67157288,10.9401105 1,10.2685377 1,9.44011055 C1,8.61168342 1.67157288,7.94011055 2.5,7.94011055 L9.908,7.94005081 L8.20096189,4.98230127 C7.78674833,4.26486234 8.03256106,3.34747673 8.75,2.93326316 C9.46743894,2.5190496 10.3848245,2.76486234 10.7990381,3.48230127 Z" id="形状结合备份" fill="#5955FA"/>
      </g>
    </g>
  </g>
</svg>
