<svg width="30" height="30" viewBox="0 0 30 30" fill="none" xmlns="http://www.w3.org/2000/svg">
<path d="M11.64 27.12V27.84C11.64 28.031 11.5641 28.2141 11.4291 28.3491C11.2941 28.4841 11.111 28.56 10.92 28.56C10.729 28.56 10.5459 28.4841 10.4109 28.3491C10.2759 28.2141 10.2 28.031 10.2 27.84V27.12H11.64ZM19.8 27.12V27.84C19.8 28.031 19.7241 28.2141 19.5891 28.3491C19.4541 28.4841 19.271 28.56 19.08 28.56C18.889 28.56 18.7059 28.4841 18.5709 28.3491C18.4359 28.2141 18.36 28.031 18.36 27.84V27.12H19.8ZM25.4102 15.012L25.5029 15.0744C26.006 15.4281 26.3543 15.9615 26.4757 16.5644C26.5972 17.1674 26.4826 17.7939 26.1557 18.3149L26.0933 18.409L22.6306 23.3846V24.24C22.6306 25.0038 22.3271 25.7364 21.787 26.2765C21.2469 26.8166 20.5144 27.12 19.7506 27.12H10.2494C9.48561 27.12 8.75307 26.8166 8.21297 26.2765C7.67286 25.7364 7.36944 25.0038 7.36944 24.24L7.36896 23.3846L3.90672 18.409C3.54456 17.8885 3.40308 17.2459 3.51316 16.6215C3.62324 15.997 3.97594 15.4416 4.49424 15.0763L4.49712 15.0739C5.01223 14.7112 5.6503 14.568 6.27102 14.6756C6.89174 14.7833 7.4443 15.133 7.8072 15.648L7.81536 15.659L9.84576 18.5784C11.2482 17.2806 13.0892 16.5605 15 16.5624C16.9867 16.5624 18.7963 17.3266 20.1538 18.5784L22.1846 15.659L22.1928 15.648C22.5446 15.1488 23.0751 14.8043 23.6742 14.6858C24.2733 14.5674 24.895 14.6842 25.4102 15.012ZM17.2368 7.44C20.6856 7.44 23.5507 9.9384 24.12 13.224C23.5275 13.2498 22.9489 13.411 22.4283 13.6951C21.9078 13.9793 21.4593 14.3788 21.1171 14.8632L19.9205 16.56L19.8725 16.5298C18.4085 15.6251 16.721 15.1472 15 15.1498L14.7811 15.1522C13.1347 15.1883 11.5279 15.6639 10.127 16.5298L10.079 16.56L8.8824 14.8632C8.54023 14.379 8.09176 13.9795 7.57134 13.6953C7.05092 13.4112 6.47236 13.25 5.88 13.224C6.44928 9.9384 9.3144 7.44 12.7632 7.44H17.2368Z" fill="url(#paint0_linear_3236_2083)"/>
<path d="M12.3895 5.99913C12.2103 5.99913 12.0583 5.86611 12.0365 5.68874L11.5017 1.44936C11.4929 1.38241 11.52 1.33633 11.5436 1.30938C11.5786 1.27025 11.6301 1.24678 11.6826 1.24678C11.7158 1.24678 11.7656 1.25634 11.8093 1.30155L13.1707 2.69178L14.8484 0.0825967C14.8816 0.0304304 14.9384 0 15.0004 0C15.0625 0 15.1193 0.0312998 15.1525 0.0825967L16.8293 2.69265L18.1907 1.30242C18.2353 1.25721 18.2842 1.24765 18.3174 1.24765C18.3699 1.24765 18.4214 1.27112 18.4564 1.31024C18.48 1.3372 18.5071 1.38328 18.4983 1.45022L17.9635 5.68961C17.9408 5.86611 17.7897 6 17.6105 6H12.3895V5.99913Z" fill="url(#paint1_linear_3236_2083)"/>
<path d="M7.00111 9C6.93147 9 6.84414 8.96463 6.80766 8.86517L6.08585 6.91564L4.13486 6.19396C4.03537 6.15749 4 6.07018 4 6.00055C4 5.93093 4.03537 5.84362 4.13486 5.80715L6.08475 5.08547L6.80656 3.13483C6.84304 3.03537 6.93036 3 7 3C7.06964 3 7.15696 3.03537 7.19344 3.13483L7.91525 5.08436L9.86514 5.80604C9.96463 5.84251 10 5.92982 10 5.99945C10 6.06907 9.96463 6.15638 9.86514 6.19285L7.91525 6.91453L7.19344 8.86406C7.15696 8.96353 7.06964 8.99889 7 8.99889L7.00111 9Z" fill="url(#paint2_linear_3236_2083)"/>
<path d="M24.0007 10C23.9543 10 23.8961 9.97642 23.8718 9.91011L23.3906 8.61043L22.0899 8.12931C22.0236 8.10499 22 8.04679 22 8.00037C22 7.95395 22.0236 7.89574 22.0899 7.87143L23.3898 7.39031L23.871 6.08989C23.8954 6.02358 23.9536 6 24 6C24.0464 6 24.1046 6.02358 24.129 6.08989L24.6102 7.38957L25.9101 7.87069C25.9764 7.89501 26 7.95321 26 7.99963C26 8.04605 25.9764 8.10425 25.9101 8.12857L24.6102 8.60969L24.129 9.90938C24.1046 9.97569 24.0464 9.99926 24 9.99926L24.0007 10Z" fill="url(#paint3_linear_3236_2083)"/>
<defs>
<linearGradient id="paint0_linear_3236_2083" x1="14.9999" y1="7.44" x2="14.9999" y2="28.56" gradientUnits="userSpaceOnUse">
<stop stop-color="#FFE895"/>
<stop offset="0.85" stop-color="#FFC021"/>
</linearGradient>
<linearGradient id="paint1_linear_3236_2083" x1="15" y1="0" x2="15" y2="6" gradientUnits="userSpaceOnUse">
<stop stop-color="#FFEFB5"/>
<stop offset="1" stop-color="#FFD544"/>
</linearGradient>
<linearGradient id="paint2_linear_3236_2083" x1="7" y1="3" x2="7" y2="9" gradientUnits="userSpaceOnUse">
<stop stop-color="#FFE484"/>
<stop offset="1" stop-color="#FFCE21"/>
</linearGradient>
<linearGradient id="paint3_linear_3236_2083" x1="24" y1="6" x2="24" y2="10" gradientUnits="userSpaceOnUse">
<stop stop-color="#FFE484"/>
<stop offset="1" stop-color="#FFCE21"/>
</linearGradient>
</defs>
</svg>
