<?xml version="1.0"?>
<svg xmlns="http://www.w3.org/2000/svg" xmlns:xlink="http://www.w3.org/1999/xlink" width="133" height="117" viewBox="0 0 133 117">
  <title>bbpd_&#x5207;&#x7247;</title>
  <defs>
    <linearGradient id="b" x1="50%" x2="50%" y1="24.438%" y2="50%">
      <stop offset="0%" stop-color="#313131" stop-opacity=".719"/>
      <stop offset="100%" stop-color="#313131" stop-opacity="0"/>
    </linearGradient>
    <path id="a" d="M19.76 91.64c5.867 0 10.373-1.627 13.52-4.88C36.427 83.507 38 78.813 38 72.68V41.64c0-6.507-1.52-11.467-4.56-14.88-3.04-3.413-7.6-5.12-13.68-5.12-6.027 0-10.56 1.707-13.6 5.12-3.04 3.413-4.56 8.373-4.56 14.88v31.04c0 6.08 1.573 10.76 4.72 14.04 3.147 3.28 7.627 4.92 13.44 4.92zm0-12.64c-1.013 0-1.827-.467-2.44-1.4-.613-.933-.92-2.04-.92-3.32V40.36c0-1.973.213-3.48.64-4.52.427-1.04 1.333-1.56 2.72-1.56 1.387 0 2.307.52 2.76 1.56.453 1.04.68 2.547.68 4.52v33.92c0 1.28-.32 2.387-.96 3.32-.64.933-1.467 1.4-2.48 1.4zm43.76 12V22.2H52.48c-1.013 2.4-2.68 4.347-5 5.84-2.32 1.493-4.653 2.427-7 2.8V41.8c1.493 0 3.053-.347 4.68-1.04 1.627-.693 2.893-1.6 3.8-2.72V91h14.56zm13.94 0l12.06-51.78H78.84L66.84 91h10.62zm41.4 0v-9.72h-14.04c.72-1.36 1.53-2.68 2.43-3.96.9-1.28 2.03-2.74 3.39-4.38 1.88-2.32 3.39-4.34 4.53-6.06 1.14-1.72 2.1-3.73 2.88-6.03.78-2.3 1.17-4.87 1.17-7.71 0-4.44-1.18-7.87-3.54-10.29-2.36-2.42-5.7-3.63-10.02-3.63-3.52 0-6.28.66-8.28 1.98-2 1.32-3.4 3.24-4.2 5.76-.8 2.52-1.2 5.74-1.2 9.66l.12 3.18h10.86v-6.3c0-3.08.86-4.62 2.58-4.62 1.04 0 1.76.39 2.16 1.17.4.78.6 1.87.6 3.27 0 2.36-.37 4.55-1.11 6.57-.74 2.02-1.64 3.81-2.7 5.37-1.06 1.56-2.49 3.46-4.29 5.7-1.76 2.16-3.18 4.04-4.26 5.64-1.08 1.6-1.99 3.4-2.73 5.4-.74 2-1.11 4.18-1.11 6.54V91h26.76z"/>
  </defs>
  <g fill="none" fill-rule="nonzero">
    <use fill="#202020" fill-opacity="0" xlink:href="#a"/>
    <use fill="url(#b)" xlink:href="#a"/>
  </g>
</svg>
