<svg width="30" height="30" viewBox="0 0 30 30" fill="none" xmlns="http://www.w3.org/2000/svg">
<rect width="30" height="30" rx="15" fill="#34B8FF"/>
<path fill-rule="evenodd" clip-rule="evenodd" d="M17.8527 8.03589C15.1383 5.32137 10.7461 5.32137 8.03177 8.03589C5.32274 10.7451 5.32274 15.1428 8.03177 17.852C8.51266 18.3329 9.05233 18.7283 9.62406 19.0329L19.0335 9.62292C18.7289 9.05116 18.3335 8.51681 17.8527 8.03589ZM15.32 19.4604C16.2443 19.1291 17.1099 18.5894 17.8527 17.852C18.59 17.1146 19.1297 16.2436 19.4663 15.3191L15.32 19.4604ZM23.7569 21.165L20.4441 15.2764C20.0808 16.4573 19.4343 17.5688 18.4992 18.5039C17.5641 19.439 16.4581 20.0802 15.2772 20.4436C19.2045 22.6505 21.1655 23.7566 21.1655 23.7566C21.9082 24.1734 22.8379 24.0452 23.4417 23.4467C24.0455 22.8429 24.1737 21.9077 23.7569 21.165Z" fill="white"/>
<path fill-rule="evenodd" clip-rule="evenodd" d="M24 9.14874C24 9.44465 23.8883 9.73497 23.6649 9.9583L20.2192 13.4031L13.4674 20.1532L9.95462 23.665C9.50785 24.1117 8.78185 24.1117 8.33508 23.665C7.88831 23.2128 7.88831 22.487 8.33508 22.0403L10.608 19.7679L19.8339 10.5445L22.0454 8.33918C22.4921 7.88694 23.2181 7.88694 23.6649 8.33918C23.8883 8.56251 24 8.85283 24 9.14874Z" fill="white"/>
</svg>
