<?xml version="1.0"?>
<svg xmlns="http://www.w3.org/2000/svg" width="24" height="24" viewBox="0 0 24 24">
  <title>bbpd_&#x65F6;&#x95F4;</title>
  <g fill="none" fill-rule="evenodd">
    <path d="M-12-14h335v52H-12z"/>
    <g fill="#000" fill-rule="nonzero">
      <path d="M11.97 4.052c1.073 0 2.111.209 3.089.624a7.968 7.968 0 0 1 4.225 4.226c.413.977.624 2.015.624 3.089a7.857 7.857 0 0 1-.624 3.089 7.968 7.968 0 0 1-4.225 4.225 7.899 7.899 0 0 1-3.09.624 7.857 7.857 0 0 1-3.089-.624 7.968 7.968 0 0 1-4.225-4.225 7.899 7.899 0 0 1-.624-3.09c0-1.073.209-2.111.624-3.088A7.968 7.968 0 0 1 8.88 4.676a7.899 7.899 0 0 1 3.09-.624m0-2.578c-5.808 0-10.517 4.709-10.517 10.517 0 5.807 4.709 10.516 10.517 10.516 5.807 0 10.516-4.709 10.516-10.516 0-5.808-4.709-10.517-10.516-10.517z"/>
      <path d="M16.826 15.872l-6.146-3.087V6.448h2.579v4.748l4.725 2.372z"/>
    </g>
  </g>
</svg>
