<?xml version="1.0" encoding="UTF-8"?>
<svg xmlns="http://www.w3.org/2000/svg" xmlns:xlink="http://www.w3.org/1999/xlink" width="24px" height="24px" viewBox="0 0 24 24" version="1.1">
  <title>bbpd_切片</title>
  <g id="投屏迭代" stroke="none" stroke-width="1" fill="none" fill-rule="evenodd" opacity="0.900000036">
    <g id="创建一起看房间" transform="translate(-32.000000, -386.000000)">
      <g id="2" transform="translate(20.000000, 374.000000)">
        <g id="User,Profile.4" transform="translate(12.000000, 12.000000)">
          <polygon id="路径" points="0 0 24 0 24 24 0 24"/>
          <g id="编组" stroke-linecap="round" stroke-linejoin="round" transform="translate(2.000000, 5.857148)" stroke="#202020" stroke-width="1.5">
            <path d="M6.94454,0.805455 C8.01848,1.879395 8.01848,3.620605 6.94454,4.694545 C5.8706,5.768485 4.12939,5.768485 3.05545,4.694545 C1.98151,3.620605 1.98151,1.879395 3.05545,0.805455 C4.12939,-0.268485 5.8706,-0.268485 6.94454,0.805455" id="路径"/>
            <path d="M16.9445,0.805455 C18.01844,1.879395 18.01844,3.620605 16.9445,4.694545 C15.87056,5.768485 14.12935,5.768485 13.05541,4.694545 C11.98147,3.620605 11.98147,1.879395 13.05541,0.805455 C14.12935,-0.268485 15.87056,-0.268485 16.9445,0.805455" id="路径"/>
            <path d="M20,13.1428521 C20,10.3818521 17.761,8.14285214 15,8.14285214 C12.239,8.14285214 10,10.3818521 10,13.1428521 C10,10.3818521 7.761,8.14285214 5,8.14285214 C2.239,8.14285214 0,10.3818521 0,13.1428521" id="路径"/>
          </g>
        </g>
      </g>
    </g>
  </g>
</svg>
