<?xml version="1.0" encoding="UTF-8"?>
<svg xmlns="http://www.w3.org/2000/svg" xmlns:xlink="http://www.w3.org/1999/xlink" width="20px" height="20px" viewBox="0 0 20 20" version="1.1">
  <title>bbpd_Slice</title>
  <g id="Lanhu" stroke="none" stroke-width="1" fill="none" fill-rule="evenodd" opacity="0.4">
    <g id="Entrance-1---Mic-Queue" transform="translate(-303.000000, -415.000000)" fill="#313131" fill-rule="nonzero">
      <g id="song_list" transform="translate(0.000000, 389.000000)">
        <g id="ic_report-copy-2" transform="translate(303.000000, 26.000000)">
          <g id="Group" transform="translate(2.374875, 3.308833)">
            <path d="M15.1251254,2.1911669 C15.6774101,2.1911669 16.1251254,2.63888215 16.1251254,3.1911669 C16.1251254,3.70400274 15.7390852,4.12667406 15.2417465,4.18443917 L15.1251254,4.1911669 L0,4.1911669 C-0.55228475,4.1911669 -1,3.74345165 -1,3.1911669 C-1,2.67833106 -0.61395981,2.25565974 -0.116621125,2.19789463 L0,2.1911669 L15.1251254,2.1911669 Z" id="Line"/>
            <path d="M9.12512537,-1 C10.4506088,-1 11.535164,0.0315359364 11.6198077,1.33562431 L11.6251254,1.5 L11.6251254,2.6911669 C11.6251254,3.24345165 11.1774101,3.6911669 10.6251254,3.6911669 C10.1122895,3.6911669 9.68961821,3.30512671 9.6318531,2.80778803 L9.62512537,2.6911669 L9.62512537,1.5 C9.62512537,1.25454011 9.44825021,1.05039163 9.215001,1.00805567 L9.12512537,1 L6.12512537,1 C5.87966548,1 5.675517,1.17687516 5.63318104,1.41012437 L5.62512537,1.5 L5.62512537,2.6911669 C5.62512537,3.24345165 5.17741012,3.6911669 4.62512537,3.6911669 C4.11228953,3.6911669 3.68961821,3.30512671 3.6318531,2.80778803 L3.62512537,2.6911669 L3.62512537,1.5 C3.62512537,0.1745166 4.6566613,-0.910038672 5.96074968,-0.99468232 L6.12512537,-1 L9.12512537,-1 Z" id="Path"/>
            <path d="M11.1251254,5.1911669 C12.4506088,5.1911669 13.535164,6.22270284 13.6198077,7.52679121 L13.6251254,7.6911669 L13.6251254,13.5967985 C13.6251254,14.1490832 13.1774101,14.5967985 12.6251254,14.5967985 C12.1122895,14.5967985 11.6896182,14.2107583 11.6318531,13.7134196 L11.6251254,13.5967985 L11.6251254,7.6911669 C11.6251254,7.44570701 11.4482502,7.24155853 11.215001,7.19922257 L11.1251254,7.1911669 L4.12512537,7.1911669 C3.87966548,7.1911669 3.675517,7.36804206 3.63318104,7.60129127 L3.62512537,7.6911669 L3.62512537,13.5967985 C3.62512537,14.1490832 3.17741012,14.5967985 2.62512537,14.5967985 C2.11228953,14.5967985 1.68961821,14.2107583 1.6318531,13.7134196 L1.62512537,13.5967985 L1.62512537,7.6911669 C1.62512537,6.3656835 2.6566613,5.28112823 3.96074968,5.19648458 L4.12512537,5.1911669 L11.1251254,5.1911669 Z" id="Path-Copy" transform="translate(7.625125, 9.893983) rotate(-180.000000) translate(-7.625125, -9.893983) "/>
            <path d="M7.62512537,6.6911669 C8.13796121,6.6911669 8.56063253,7.07720709 8.61839764,7.57454578 L8.62512537,7.6911669 L8.62512537,9.9411669 C8.62512537,10.4934517 8.17741012,10.9411669 7.62512537,10.9411669 C7.11228953,10.9411669 6.68961821,10.5551267 6.6318531,10.057788 L6.62512537,9.9411669 L6.62512537,7.6911669 C6.62512537,7.13888215 7.07284062,6.6911669 7.62512537,6.6911669 Z" id="Line-2"/>
          </g>
        </g>
      </g>
    </g>
  </g>
</svg>
