<?xml version="1.0"?>
<svg xmlns="http://www.w3.org/2000/svg" width="32" height="32" viewBox="0 0 32 32">
  <title>bbpd_ic_room_yizi2&#x5907;&#x4EFD; 3</title>
  <path fill="#FFF" fill-rule="nonzero" d="M25.625 13.2c.76 0 1.375.616 1.375 1.375V16c0 5.712-4.235 10.416-9.625 11.088v1.537a1.375 1.375 0 0 1-2.75 0v-1.537C9.235 26.416 5 21.712 5 16v-1.425a1.375 1.375 0 0 1 2.75 0V16c0 4.648 3.685 8.4 8.25 8.4 4.565 0 8.25-3.752 8.25-8.4v-1.425c0-.76.616-1.375 1.375-1.375zM16 3c1.54 0 2.915.616 3.905 1.624.99 1.008 1.595 2.408 1.595 3.976V16c0 3.08-2.475 5.6-5.5 5.6s-5.5-2.52-5.5-5.6V8.6C10.5 5.52 12.975 3 16 3z" opacity=".9"/>
</svg>
