<?xml version="1.0"?>
<svg xmlns="http://www.w3.org/2000/svg" width="12" height="12" viewBox="0 0 12 12">
  <title>bbpd_&#x77E9;&#x5F62;</title>
  <defs>
    <linearGradient id="a" x1="50%" x2="50%" y1="0%" y2="100%">
      <stop offset="0%" stop-color="#FFF"/>
      <stop offset="100%" stop-color="#C3C3C3"/>
    </linearGradient>
  </defs>
  <path fill="url(#a)" d="M.5 3.929a.5.5 0 0 1 .5.5c0 2.365 1.741 4.266 3.867 4.266.448 0 .88-.084 1.281-.24l.758.758a4.551 4.551 0 0 1-1.54.455v.865a.5.5 0 1 1-1 0v-.865C1.906 9.397 0 7.146 0 4.428a.5.5 0 0 1 .5-.5zm1.222-2.466L8.7 8.44a.533.533 0 1 1-.754.754L.968 2.217a.533.533 0 1 1 .754-.754zM1.9 4.205l3.563 3.564A2.967 2.967 0 0 1 1.9 4.862l-.001-.657zm7.334-.276a.5.5 0 0 1 .5.5 5.54 5.54 0 0 1-.949 3.126l-.723-.722A4.55 4.55 0 0 0 8.733 4.5v-.071a.5.5 0 0 1 .5-.5zM4.867.029a2.967 2.967 0 0 1 2.966 2.966v1.867c0 .504-.125.98-.347 1.395L2.472 1.243A2.963 2.963 0 0 1 4.867.03z" transform="translate(1.167 .671)"/>
</svg>
