<?xml version="1.0"?>
<svg xmlns="http://www.w3.org/2000/svg" width="8" height="8" viewBox="0 0 8 8">
  <title>bbpd_icon-&#x623F;&#x95F4;&#x70ED;&#x5EA6;</title>
  <path fill="#FFF" fill-rule="nonzero" d="M5.824 1.79a5.756 5.756 0 0 0-.86-.88c-.126-.105-.337-.006-.301.142.068.29.14.674.14 1.017 0 .636-.484 1.152-1.222 1.152-.552 0-1.004-.287-1.2-.698a.707.707 0 0 1-.072-.167c-.04-.13-.237-.17-.323-.056a3.509 3.509 0 0 0-.183.257 3.816 3.816 0 0 0-.67 2.15c0 1.365 1.283 2.549 2.867 2.549s2.867-1.184 2.867-2.55c0-1.077-.387-2.078-1.043-2.915z"/>
</svg>
