<?xml version="1.0"?>
<svg xmlns="http://www.w3.org/2000/svg" width="16" height="16" viewBox="0 0 16 16">
  <title>bbpd_icon-&#x623F;&#x95F4;&#x70ED;&#x5EA6;</title>
  <path fill="none" fill-rule="nonzero" stroke="#FFF" stroke-width="1.5" d="M11.648 3.581a11.512 11.512 0 0 0-1.72-1.76c-.251-.21-.674-.013-.602.284.136.58.28 1.347.28 2.032 0 1.273-.968 2.305-2.444 2.305-1.104 0-2.007-.575-2.401-1.396a1.414 1.414 0 0 1-.144-.334c-.079-.26-.473-.34-.645-.111-.129.167-.25.333-.365.513-.853 1.26-1.34 2.73-1.34 4.3 0 2.73 2.565 5.097 5.733 5.097 3.168 0 5.733-2.367 5.733-5.098 0-2.156-.774-4.157-2.085-5.832z"/>
</svg>
