<?xml version="1.0" encoding="UTF-8"?>
<svg xmlns="http://www.w3.org/2000/svg" xmlns:xlink="http://www.w3.org/1999/xlink" width="12px" height="12px" viewBox="0 0 12 12" version="1.1">
  <title>bbpd_切片</title>
  <g id="开黑8麦" stroke="none" stroke-width="1" fill="none" fill-rule="evenodd">
    <g id="开黑厅_8麦" transform="translate(-46.000000, -164.000000)" fill="#FFFFFF">
      <g id="avatars" transform="translate(29.000000, 108.000000)">
        <g id="numtag" transform="translate(17.000000, 56.000000)">
          <g id="ic_host_small" transform="translate(0.000000, 0.000000)">
            <g transform="translate(6.179147, 6.017047) rotate(-315.000000) translate(-6.179147, -6.017047) translate(3.679147, 2.270399)">
              <path d="M2.5,5 C3.88071187,5 5,3.88071187 5,2.5 C5,1.11928813 3.88071187,-1.77635684e-15 2.5,-1.77635684e-15 C1.11928813,-1.77635684e-15 -1.13686838e-13,1.11928813 -1.13686838e-13,2.5 C-1.13686838e-13,3.88071187 1.11928813,5 2.5,5 Z" id="椭圆形" transform="translate(2.500000, 2.500000) rotate(-720.000000) translate(-2.500000, -2.500000) "/>
              <path d="M2.5,7.49329677 C3.05228475,7.49329677 3.5,7.04558152 3.5,6.49329677 C3.5,5.94101202 3.05228475,5.49329677 2.5,5.49329677 C1.94771525,5.49329677 1.5,5.94101202 1.5,6.49329677 C1.5,7.04558152 1.94771525,7.49329677 2.5,7.49329677 Z" id="椭圆形备份" transform="translate(2.500000, 6.493297) rotate(-720.000000) translate(-2.500000, -6.493297) "/>
            </g>
          </g>
        </g>
      </g>
    </g>
  </g>
</svg>
