<?xml version="1.0"?>
<svg xmlns="http://www.w3.org/2000/svg" width="20" height="20" viewBox="0 0 20 20">
  <title>bbpd_&#x73A9;&#x6CD5;&#x4ECB;&#x7ECD;</title>
  <g fill="none" fill-rule="evenodd">
    <path d="M0 0h20v20H0z"/>
    <g transform="translate(3 3)">
      <circle cx="7" cy="7" r="7.835" stroke="#FFF" stroke-width="1.67"/>
      <g fill="#FFF" fill-rule="nonzero">
        <path d="M7.085 2.798c-.819 0-1.479.245-1.968.713-.5.478-.745 1.138-.745 1.957 0 .032 0 .362.234.617.107.117.309.245.639.245.638 0 .904-.5.925-.851 0-.351.064-.617.192-.788.074-.106.223-.255.66-.255.255 0 .435.064.552.17.128.128.192.32.192.543a.75.75 0 01-.192.49l-.085.106c-.702.638-1.095 1.074-1.244 1.372-.16.309-.234.67-.234 1.128v.138c0 .287.234.713.883.713.67 0 .893-.447.925-.713v-.138c0-.181.032-.34.117-.5a1.24 1.24 0 01.32-.394c.446-.394.765-.68.904-.84.287-.383.436-.862.436-1.426 0-.702-.234-1.266-.702-1.68-.468-.394-1.064-.607-1.809-.607zM6 10.298a.926.926 0 101.851 0 .926.926 0 00-1.851 0z"/>
      </g>
    </g>
  </g>
</svg>
