<?xml version="1.0"?>
<svg xmlns="http://www.w3.org/2000/svg" width="24" height="24" viewBox="0 0 24 24">
  <title>bbpd_ic_addfriend_w</title>
  <g fill="#FFF" fill-rule="evenodd">
    <g fill-rule="nonzero">
      <path d="M10 3a5.643 5.643 0 100 11.286A5.643 5.643 0 0010 3zm0 2a3.643 3.643 0 110 7.286A3.643 3.643 0 0110 5zM9.976 15.071c1.013 0 2.006.17 2.953.5.778.27 1.519.647 2.206 1.12a9.965 9.965 0 012.147 2.007 1 1 0 11-1.564 1.246 7.966 7.966 0 00-1.715-1.605 7.289 7.289 0 00-1.732-.88 6.962 6.962 0 00-2.295-.388c-2.199 0-4.252 1.034-5.699 2.82a1 1 0 11-1.554-1.259c1.818-2.243 4.435-3.56 7.253-3.56z"/>
    </g>
    <path d="M19.5 10a1 1 0 0 1 1 1v1h1a1 1 0 1 1 0 2h-1.001l.001 1a1 1 0 1 1-2 0l-.001-1H17.5a1 1 0 0 1 0-2h1v-1a1 1 0 0 1 1-1z"/>
  </g>
</svg>
