<?xml version="1.0"?>
<svg xmlns="http://www.w3.org/2000/svg" width="16" height="16" viewBox="0 0 16 16">
  <title>bbpd_&#x623F;&#x95F4;</title>
  <g fill="none" fill-rule="evenodd">
    <path d="M0 0h16v16H0z"/>
    <path fill="#FFF" d="M8.699 4.263l4.114 3.66a.526.526 0 0 1-.35.918h-.744v3.108c0 .58-.47 1.051-1.05 1.051H5.331c-.58 0-1.051-.47-1.051-1.051V8.84h-.744a.526.526 0 0 1-.35-.919l4.114-3.66a1.051 1.051 0 0 1 1.398 0zM8.006 10.3h-.023c-.58 0-1.051.47-1.051 1.05V13h2.125v-1.65c0-.58-.47-1.05-1.051-1.05z"/>
  </g>
</svg>
