<?xml version="1.0" encoding="UTF-8"?>
<svg xmlns="http://www.w3.org/2000/svg" xmlns:xlink="http://www.w3.org/1999/xlink" width="24px" height="24px" viewBox="0 0 24 24" version="1.1">
  <title>bbpd_切片</title>
  <g id="投屏迭代" stroke="none" stroke-width="1" fill="none" fill-rule="evenodd" opacity="0.900000036">
    <g id="创建一起看房间" transform="translate(-205.000000, -386.000000)">
      <g id="2" transform="translate(193.000000, 374.000000)">
        <g id="Group,-User.1" transform="translate(12.000000, 12.000000)">
          <polygon id="路径" points="0 0 24 0 24 24 0 24"/>
          <g id="编组" stroke-linecap="round" stroke-linejoin="round" transform="translate(1.857143, 5.000000)" stroke="#202020" stroke-width="1.5">
            <path d="M18.9353571,4.52352 C19.7253881,5.313551 19.7253881,6.59444 18.9353571,7.38447 C18.1453261,8.174501 16.8644371,8.174501 16.0744071,7.38447 C15.2843761,6.594439 15.2843761,5.31355 16.0744071,4.52352 C16.8644381,3.733489 18.1453271,3.733489 18.9353571,4.52352" id="路径"/>
            <path d="M12.3454571,0.91236 C13.5619371,2.12884 13.5619371,4.10115 12.3454571,5.31764 C11.1289771,6.53412 9.15666714,6.53412 7.94017714,5.31764 C6.72369714,4.10116 6.72369714,2.12885 7.94017714,0.91236 C9.15665714,-0.30412 11.1289671,-0.30412 12.3454571,0.91236" id="路径"/>
            <path d="M4.21133714,4.52352 C5.00136814,5.313551 5.00136814,6.59444 4.21133714,7.38447 C3.42130614,8.174501 2.14041714,8.174501 1.35038714,7.38447 C0.560356143,6.594439 0.560356143,5.31355 1.35038714,4.52352 C2.14041814,3.733489 3.42130714,3.733489 4.21133714,4.52352" id="路径"/>
            <path d="M20.2857143,14 L20.2857143,12.904 C20.2857143,11.523 19.1667143,10.404 17.7857143,10.404" id="路径"/>
            <path d="M0,14 L0,12.904 C0,11.523 1.119,10.404 2.5,10.404" id="路径"/>
            <path d="M15.4818571,14 L15.4818571,12.399 C15.4818571,10.466 13.9148571,8.899 11.9818571,8.899 L8.30285714,8.899 C6.36985714,8.899 4.80285714,10.466 4.80285714,12.399 L4.80285714,14" id="路径"/>
          </g>
        </g>
      </g>
    </g>
  </g>
</svg>
