<?xml version="1.0"?>
<svg xmlns="http://www.w3.org/2000/svg" width="16" height="16" viewBox="0 0 16 16">
  <title>bbpd_&#x7F16;&#x7EC4; 28</title>
  <path fill="#FFF" fill-rule="nonzero" d="M13.176 4.668a.824.824 0 1 0-1.166 1.166 3.39 3.39 0 0 1 1 2.413c0 .91-.356 1.768-1 2.412a.824.824 0 1 0 1.166 1.166 5.027 5.027 0 0 0 1.483-3.579 5.026 5.026 0 0 0-1.483-3.578zM4.053 4.7H2.667c-.737 0-1.334.597-1.334 1.333V10c0 .736.597 1.333 1.334 1.333h1.386l4.68 2.36a1.333 1.333 0 0 0 1.934-1.191V3.508A1.333 1.333 0 0 0 8.729 2.32L4.053 4.699z"/>
</svg>
