<?xml version="1.0"?>
<svg xmlns="http://www.w3.org/2000/svg" width="70" height="26" viewBox="0 0 70 26">
  <title>bbpd_&#x6B63;&#x5728;&#x73A9;</title>
  <defs>
    <linearGradient id="a" x1="96.91%" x2="4.656%" y1="43.999%" y2="56.898%">
      <stop offset="0%" stop-color="#B281F5"/>
      <stop offset="100%" stop-color="#7963FF"/>
    </linearGradient>
  </defs>
  <g fill="none" fill-rule="evenodd">
    <path fill="url(#a)" d="M12 0h58v14c0 6.627-5.373 12-12 12H0V12C0 5.373 5.373 0 12 0z"/>
    <path fill="#FFF" d="M14.545 6c1.996 0 3.85.362 5.564 1.087a4.773 4.773 0 0 1 2.899 4.035l.447 5.892a2.229 2.229 0 0 1-3.898 1.638c-1.726-1.966-3.29-2.949-4.693-2.949-1.445 0-3.13 1.043-5.053 3.127a2.41 2.41 0 0 1-4.175-1.816l.447-5.892a4.773 4.773 0 0 1 2.9-4.035C10.694 6.362 12.55 6 14.544 6zm-3.181 2.386a2.917 2.917 0 1 0 0 5.834 2.917 2.917 0 0 0 0-5.834zm7.159-.265a.795.795 0 0 0-.796.796v1.325h-1.06a.795.795 0 0 0 0 1.591h1.06v1.326a.795.795 0 0 0 1.591 0v-1.326h1.06a.795.795 0 0 0 0-1.59h-1.06V8.916a.795.795 0 0 0-.795-.796zm-7.16 1.856a1.326 1.326 0 1 1 0 2.652 1.326 1.326 0 0 1 0-2.652z"/>
  </g>
</svg>
