<?xml version="1.0" encoding="UTF-8"?>
<svg xmlns="http://www.w3.org/2000/svg" xmlns:xlink="http://www.w3.org/1999/xlink" width="24px" height="24px" viewBox="0 0 24 24" version="1.1">
  <title>bbpd_切片</title>
  <defs>
    <path d="M5,0 C5.51283584,-9.42064153e-17 5.93550716,0.38604019 5.99327227,0.883378875 L6,1 C6,2.1045695 6.8954305,3 8,3 C9.0543618,3 9.91816512,2.18412221 9.99451426,1.14926234 L10,1 C10,0.44771525 10.4477153,1.01453063e-16 11,0 L12,0 C14.209139,0 16,1.790861 16,4 L16,13 C16,15.209139 14.209139,17 12,17 L4,17 C1.790861,17 0,15.209139 0,13 L0,4 C0,1.790861 1.790861,0 4,0 L5,0 Z M11.5360735,5.45058034 C11.0774424,5.06922611 10.3964998,5.13187138 10.0151456,5.59050246 L10.0151456,5.59050246 L6.88,9.359 L5.30918692,7.83796817 L5.2136609,7.75555955 C4.78443765,7.42667727 4.16736982,7.46450579 3.78203085,7.86234718 C3.36705042,8.29079176 3.37796528,8.97452283 3.80640986,9.38950325 L3.80640986,9.38950325 L6.21482628,11.7222336 L6.30865402,11.8033668 C6.76206545,12.1524202 7.42148437,12.0881452 7.79663984,11.636969 L7.79663984,11.636969 L11.6759956,6.97150828 L11.750936,6.87001766 C12.0463802,6.41712819 11.9619452,5.80469498 11.5360735,5.45058034 Z" id="path-1"/>
  </defs>
  <g id="页面-2" stroke="none" stroke-width="1" fill="none" fill-rule="evenodd">
    <g id="房间展示活动模版" transform="translate(-144.000000, -54.000000)">
      <g id="ic_crown" transform="translate(148.000000, 58.000000)">
        <mask id="mask-2" fill="white">
          <use xlink:href="#path-1"/>
        </mask>
        <use id="形状结合" fill="#FFFFFF" xlink:href="#path-1"/>
      </g>
    </g>
  </g>
</svg>
