<?xml version="1.0"?>
<svg xmlns="http://www.w3.org/2000/svg" width="40" height="40" viewBox="0 0 40 40">
  <title>bbpd_&#x4E86;&#x89E3;&#x8FD0;&#x8425;&#x6570;&#x636E;&#x5907;&#x4EFD;</title>
  <g fill="none" fill-rule="evenodd">
    <path fill="#FFF" d="M27.2 8a4.8 4.8 0 0 1 4.8 4.8v8.8a4.8 4.8 0 0 1-4.8 4.8H12.8A4.8 4.8 0 0 1 8 21.6v-8.8A4.8 4.8 0 0 1 12.8 8h14.4zm-.573 4.651a1.6 1.6 0 0 0-2.248.251L20.68 17.53l-2.277-2.034-.12-.097a1.6 1.6 0 0 0-2.135.22L12.41 19.77l-.098.12a1.6 1.6 0 0 0 .217 2.14l.119.097a1.6 1.6 0 0 0 2.14-.216l2.67-2.967 2.35 2.099.124.1a1.6 1.6 0 0 0 2.192-.294l4.753-5.949.09-.125a1.6 1.6 0 0 0-.34-2.124z"/>
    <rect width="19.2" height="4" x="10.4" y="28" fill="#FFF" rx="2"/>
    <path d="M0 0h40v40H0z"/>
  </g>
</svg>
