<?xml version="1.0"?>
<svg xmlns="http://www.w3.org/2000/svg" width="40" height="40" viewBox="0 0 40 40">
  <title>bbpd_&#x5206;&#x6790;&#x8BBF;&#x5BA2;&#x6784;&#x6210;&#x5907;&#x4EFD;</title>
  <g fill="#FFF" fill-rule="nonzero">
    <path d="M18.93 10.956c.067.138.113.287.134.44l.373 5.55.185 2.79c.001.286.047.572.134.845.224.532.761.87 1.347.846l8.925-.583c.387-.007.76.138 1.037.402.232.219.381.507.43.815l.014.188c-.368 5.114-4.125 9.38-9.229 10.48-5.102 1.101-10.336-1.225-12.858-5.715a11.011 11.011 0 0 1-1.336-4.217A8.067 8.067 0 0 1 8 21.475c-.008-5.483 3.896-10.223 9.362-11.365a1.463 1.463 0 0 1 1.567.844v.002z"/>
    <path d="M21.76 7.001c6.113.157 11.25 4.553 12.24 10.473l-.01.044-.026.063.004.174a1.072 1.072 0 0 1-.258.633c-.16.187-.378.315-.619.365l-.147.02-10.296.667a1.23 1.23 0 0 1-.939-.304 1.185 1.185 0 0 1-.387-.72l-.69-10.282a.164.164 0 0 1 0-.107c.01-.285.134-.553.345-.744.214-.194.495-.295.783-.282z"/>
  </g>
</svg>
