<?xml version="1.0" encoding="UTF-8"?>
<svg xmlns="http://www.w3.org/2000/svg" xmlns:xlink="http://www.w3.org/1999/xlink" width="24px" height="24px" viewBox="0 0 24 24" version="1.1">
  <title>bbpd_ic_settings</title>
  <defs>
    <path d="M13.9428203,1.7 L16.8071797,6.66121593 C17.2358984,7.40377852 17.2358984,8.31865335 16.8071797,9.06121593 L13.9428203,14.0224319 C13.5141016,14.7649944 12.7217968,15.2224319 11.8643594,15.2224319 L6.13564065,15.2224319 C5.27820323,15.2224319 4.48589838,14.7649944 4.05717968,14.0224319 L1.19282032,9.06121593 C0.764101615,8.31865335 0.764101615,7.40377852 1.19282032,6.66121593 L4.05717968,1.7 C4.48589838,0.957437416 5.27820323,0.5 6.13564065,0.5 L11.8643594,0.5 C12.7217968,0.5 13.5141016,0.957437416 13.9428203,1.7 Z" id="path-1"/>
  </defs>
  <g id="ic_settings" stroke="none" stroke-width="1" fill="none" fill-rule="evenodd">
    <g id="ic_setting" transform="translate(3.000000, 4.000000)">
      <mask id="mask-2" fill="white">
        <use xlink:href="#path-1"/>
      </mask>
      <path stroke-opacity="0.6" stroke="#313131" stroke-width="2" d="M11.8643594,-0.5 C12.4717109,-0.5 13.0559946,-0.337990915 13.5643594,-0.0444863729 C14.0727241,0.24901817 14.50517,0.67401817 14.8088457,1.2 L14.8088457,1.2 L17.6732051,6.16121593 C18.2805566,7.21317959 18.2805566,8.50925227 17.6732051,9.56121593 L17.6732051,9.56121593 L14.8088457,14.5224319 C14.2014942,15.5743955 13.0790624,16.2224319 11.8643594,16.2224319 L11.8643594,16.2224319 L6.13564065,16.2224319 C4.92093764,16.2224319 3.79850578,15.5743955 3.19115427,14.5224319 L3.19115427,14.5224319 L0.326794919,9.56121593 C-0.280556584,8.50925227 -0.280556584,7.21317959 0.326794919,6.16121593 L0.326794919,6.16121593 L3.19115427,1.2 C3.49483002,0.67401817 3.92727587,0.24901817 4.43564065,-0.0444863729 C4.94400543,-0.337990915 5.52828914,-0.5 6.13564065,-0.5 L6.13564065,-0.5 Z"/>
      <path d="M12,8 C12,6.34314575 10.6568542,5 9,5 C7.34314575,5 6,6.34314575 6,8 C6,9.65685425 7.34314575,11 9,11 C9.40675549,11 9.7946039,10.9190492 10.1483136,10.7723791" id="路径" stroke-opacity="0.6" stroke="#313131" stroke-width="2" stroke-linecap="round" stroke-linejoin="round" mask="url(#mask-2)"/>
    </g>
  </g>
</svg>
