<?xml version="1.0"?>
<svg xmlns="http://www.w3.org/2000/svg" width="16" height="16" viewBox="0 0 16 16">
  <title>bbpd_icon/16/ID@2x</title>
  <path fill="#202020" fill-opacity=".405" fill-rule="evenodd" d="M13 1a2 2 0 0 1 2 2v10a2 2 0 0 1-2 2H3a2 2 0 0 1-2-2V3a2 2 0 0 1 2-2h10zM5.23 4.5H4v7h1.23v-7zm4.48 0H7.1v7h2.61a4.07 4.07 0 0 0 1.505-.27 3.62 3.62 0 0 0 1.18-.74 3.26 3.26 0 0 0 .765-1.11c.18-.427.27-.887.27-1.38v-.02c0-.493-.09-.952-.27-1.375a3.273 3.273 0 0 0-.765-1.105 3.554 3.554 0 0 0-1.18-.735A4.138 4.138 0 0 0 9.71 4.5zm0 1.12c.367 0 .7.06 1 .18.3.12.555.285.765.495.21.21.373.462.49.755.117.293.175.61.175.95v.02c0 .34-.058.655-.175.945-.117.29-.28.54-.49.75-.21.21-.465.373-.765.49-.3.117-.633.175-1 .175H8.33V5.62z"/>
</svg>
