<?xml version="1.0"?>
<svg xmlns="http://www.w3.org/2000/svg" width="24" height="24" viewBox="0 0 24 24">
  <title>bbpd_ic_room_bimai</title>
  <path fill="#FFF" fill-rule="nonzero" d="M4.5 3.575l3.499 3.499 7.251 7.25v.001l1.668 1.668 1.176 1.175h-.001l1.256 1.257a1 1 0 0 1-1.414 1.414l-1.32-1.32A7.92 7.92 0 0 1 13 19.92V21a1 1 0 0 1-2 0v-1.08c-3.92-.48-7-3.84-7-7.92v-1a1 1 0 0 1 2 0v1c0 3.32 2.68 6 6 6a5.984 5.984 0 0 0 3.185-.911l-1.475-1.475c-.52.247-1.1.386-1.71.386-2.2 0-4-1.8-4-4V9.903L3.086 4.99A1 1 0 0 1 4.5 3.575zM19 10a1 1 0 0 1 1 1v1c0 1.24-.284 2.412-.79 3.458l-1.526-1.526A6.02 6.02 0 0 0 18 12v-1a1 1 0 0 1 1-1zm-7-8c1.12 0 2.12.44 2.84 1.16C15.56 3.88 16 4.88 16 6v6c0 .08-.002.16-.007.24L8.282 4.53A4.011 4.011 0 0 1 12 2z"/>
</svg>
