<?xml version="1.0"?>
<svg xmlns="http://www.w3.org/2000/svg" width="56" height="56" viewBox="0 0 56 56">
  <title>bbpd_1&#x5907;&#x4EFD;</title>
  <g fill="none" fill-rule="evenodd" stroke="#FFF">
    <rect width="55.5" height="55.5" x=".25" y=".25" stroke-opacity=".2" stroke-width=".5" rx="27.75"/>
    <path stroke-linejoin="round" stroke-width="1.5" d="M21 19a5 5 0 0 1 5 5v10a2 2 0 1 1-4 0v-5.1a4.992 4.992 0 0 1-5-1.9v-6a4.992 4.992 0 0 1 4-2zm13 2a5 5 0 0 0-5 5v10a2 2 0 1 0 4 0v-5.1a4.992 4.992 0 0 0 5.002-1.902v-5.996A4.992 4.992 0 0 0 34 21z"/>
  </g>
</svg>
