<svg width="24" height="30" viewBox="0 0 24 30" fill="none" xmlns="http://www.w3.org/2000/svg">
<path d="M7.83414 0.181688C8.07584 0.0488815 8.35163 -0.0133572 8.62862 0.00239344C8.90561 0.0181441 9.17211 0.11122 9.39633 0.270521C11.702 1.90477 13.7531 3.62785 15.1823 5.78804C16.2411 7.38146 16.9148 9.18856 17.1524 11.0729C17.5429 10.523 17.8684 9.75592 17.9667 8.69557C17.9926 8.41957 18.1013 8.15712 18.2793 7.941C18.4573 7.72489 18.6967 7.5647 18.9675 7.48045C19.2384 7.3962 19.5287 7.39163 19.8022 7.46731C20.0757 7.54298 20.3202 7.69555 20.5053 7.90594C21.6929 9.25536 22.5882 10.6287 23.1712 12.263C23.7527 13.886 24 15.6894 24 17.8679C24 25.2763 18.4094 30 11.9016 30C5.45178 30 0 25.3722 0 18.807C0 17.1855 0.370299 15.4709 1.32353 13.5898C2.0323 12.1953 2.86837 11.1914 3.65236 10.2805L3.85342 10.0478C4.56654 9.22433 5.22035 8.46855 5.83944 7.45613C6.82305 5.84727 7.31485 3.94229 7.10366 1.53111C7.08008 1.2618 7.1364 0.991561 7.2659 0.752571C7.39541 0.513581 7.59265 0.31591 7.83414 0.183098V0.181688ZM9.94166 4.27365C9.74194 5.90939 9.19092 7.48575 8.32449 8.90002C7.57811 10.1197 6.77821 11.0433 6.07522 11.8555L5.86692 12.0952C5.10897 12.9737 4.46384 13.7647 3.91707 14.842C3.15188 16.3479 2.89296 17.6339 2.89296 18.807C2.89296 23.6463 6.87078 27.1799 11.9016 27.1799C16.8717 27.1799 21.107 23.6618 21.107 17.8679C21.107 15.8939 20.8814 14.4274 20.4402 13.1908C20.2996 12.7979 20.1314 12.4149 19.9368 12.0444C18.8447 14.0143 17.0916 14.8448 16.1977 15.0789C15.9787 15.1363 15.7489 15.1427 15.5268 15.0976C15.3048 15.0525 15.0968 14.9571 14.9195 14.8192C14.7423 14.6813 14.6008 14.5047 14.5065 14.3036C14.4121 14.1025 14.3676 13.8827 14.3766 13.6618C14.4836 10.9798 13.8631 8.9945 12.7522 7.31654C12.0362 6.23503 11.0945 5.24941 9.94166 4.27365Z" fill="white"/>
</svg>
