<?xml version="1.0" encoding="UTF-8"?>
<svg xmlns="http://www.w3.org/2000/svg" xmlns:xlink="http://www.w3.org/1999/xlink" width="12px" height="12px" viewBox="0 0 12 12" version="1.1">
  <title>bbpd_形状结合</title>
  <g id="形状结合" stroke="none" stroke-width="1" fill="none" fill-rule="evenodd">
    <path d="M3,1.58578644 L5.82789322,4.41289322 L8.65685425,1.58578644 C9.01733821,1.22530248 9.58456927,1.19757294 9.97686047,1.50259783 L10.0710678,1.58578644 C10.4615921,1.97631073 10.4615921,2.60947571 10.0710678,3 L10.0710678,3 L7.24289322,5.82789322 L10.0710678,8.65685425 C10.4615921,9.04737854 10.4615921,9.68054352 10.0710678,10.0710678 C9.68054352,10.4615921 9.04737854,10.4615921 8.65685425,10.0710678 L5.82789322,7.24289322 L3,10.0710678 C2.63951604,10.4315518 2.07228498,10.4592813 1.67999378,10.1542564 L1.58578644,10.0710678 C1.19526215,9.68054352 1.19526215,9.04737854 1.58578644,8.65685425 L1.58578644,8.65685425 L4.41289322,5.82789322 L1.58578644,3 C1.19526215,2.60947571 1.19526215,1.97631073 1.58578644,1.58578644 C1.97631073,1.19526215 2.60947571,1.19526215 3,1.58578644 Z" fill="#313131"/>
  </g>
</svg>
