<?xml version="1.0" encoding="UTF-8"?>
<svg xmlns="http://www.w3.org/2000/svg" xmlns:xlink="http://www.w3.org/1999/xlink" width="28px" height="28px" viewBox="0 0 28 28" version="1.1">
  <title>bbpd_画板</title>
  <g id="画板" stroke="none" stroke-width="1" fill="none" fill-rule="evenodd">
    <path d="M25,10.5492569 C25,6.66313366 22.1216897,3.5 18.5889491,3.5 C16.8438949,3.5 15.1923645,4.29772976 14,5.65857495 C12.8060223,4.29775255 11.1528357,3.5 9.41105086,3.5 C5.87667555,3.5 3,6.66140135 3,10.5492569 C3,10.6796134 3.01148614,10.796043 3.02131604,10.8916393 C3.01968131,10.9229349 3.01804657,10.9542077 3.01804657,10.9872356 C3.01804657,11.6754422 3.17547551,12.4314597 3.4854507,13.2344548 C3.4953021,13.2639725 3.505132,13.2918034 3.51661814,13.3178109 C5.46995008,18.2832558 12.9897145,23.9960111 13.3094981,24.258388 C13.5079674,24.4200401 13.7441,24.5 13.9819534,24.5 C14.2230548,24.5 14.4608867,24.4165983 14.6609262,24.2514816 C14.9348082,24.0255744 21.3491501,19.1331601 23.8945559,14.5048778 C23.9913062,14.3484911 24.0634925,14.1973012 24.1274621,14.0668992 C24.1471219,14.0252097 24.1651685,13.9835202 24.1864845,13.9435175 L24.1947012,13.9243937 C24.2029179,13.9087573 24.2127478,13.8913658 24.2225777,13.8774617 C24.3751024,13.5628647 24.4964382,13.2709017 24.5932315,12.985868 C24.8572406,12.2524389 24.9868576,11.5989469 24.9868576,10.9889223 C24.9868576,10.9420131 24.9852014,10.9003009 24.9819319,10.8655179 C24.9901916,10.7856264 25,10.6778583 25,10.5492569 Z" id="路径" stroke="#ADADAD" stroke-width="3" fill-rule="nonzero"/>
    <path d="M4.03370802,12.6514017 L8.60182673,12.6514017 L11.0344275,8.89127223 C12.910964,15.5252852 13.8492323,18.7821918 13.8492323,18.6619921 C13.8492323,18.5417925 15.0691915,15.6241285 17.5091098,9.90900032 L19.7982773,12.6514017 L24.0295618,12.6514017" id="路径-43" stroke="#ADADAD" stroke-width="2" stroke-linecap="round" stroke-linejoin="round"/>
  </g>
</svg>
