<?xml version="1.0" encoding="UTF-8"?>
<svg xmlns="http://www.w3.org/2000/svg" xmlns:xlink="http://www.w3.org/1999/xlink" width="28px" height="28px" viewBox="0 0 28 28" version="1.1">
  <title>bbpd_ic_giftbox</title>
  <defs>
    <linearGradient x1="0%" y1="30.46875%" x2="133.984412%" y2="82.5812442%" id="linearGradient-1">
      <stop stop-color="#FF578E" offset="0%"/>
      <stop stop-color="#FE2C55" offset="100%"/>
    </linearGradient>
    <linearGradient x1="44.5014989%" y1="50%" x2="52.9278706%" y2="46.3956397%" id="linearGradient-2">
      <stop stop-color="#FF6B9B" offset="0%"/>
      <stop stop-color="#FF5777" offset="100%"/>
    </linearGradient>
    <linearGradient x1="-7.871939%" y1="50%" x2="97.3866606%" y2="51.106693%" id="linearGradient-3">
      <stop stop-color="#D84776" stop-opacity="0.8" offset="0%"/>
      <stop stop-color="#D71A3F" offset="100%"/>
    </linearGradient>
    <linearGradient x1="160.496091%" y1="50.4118753%" x2="-32.3621477%" y2="112.922938%" id="linearGradient-4">
      <stop stop-color="#FF96B8" offset="0%"/>
      <stop stop-color="#FF6684" offset="100%"/>
    </linearGradient>
    <linearGradient x1="-32.3621477%" y1="112.922938%" x2="160.496091%" y2="50.4118753%" id="linearGradient-5">
      <stop stop-color="#FF96B8" offset="0%"/>
      <stop stop-color="#FF6684" offset="100%"/>
    </linearGradient>
  </defs>
  <g id="ic_giftbox" stroke="none" stroke-width="1" fill="none" fill-rule="evenodd">
    <g id="1" transform="translate(1.000000, 1.000000)">
      <path d="M2.6,12.375 L23.4,12.375 L23.4,21.475 C23.4,23.6289105 21.6539105,25.375 19.5,25.375 L6.5,25.375 C4.34608948,25.375 2.6,23.6289105 2.6,21.475 L2.6,12.375 L2.6,12.375 Z" id="矩形" fill="url(#linearGradient-1)"/>
      <rect id="矩形" fill="url(#linearGradient-2)" x="0" y="7.175" width="26" height="5.2" rx="1.95"/>
      <polygon id="Fill-10" fill="#FFE9FA" points="10.4 21.475 13.0169972 20.1110658 15.6 21.475 15.6 7.175 10.4 7.175"/>
      <polygon id="Fill-10" fill="#FFD2EB" points="10.4 21.475 13.0169972 20.0902727 15.6 21.475 15.6 12.375 10.4 12.375"/>
      <path d="M10.0532268,15.0974127 C13.9952561,15.0974127 19.9341633,15.6084908 23.4,16.275 L23.4,12.375 L2.6,12.375 L2.6,15.6512459 C4.91055782,15.2069064 7.39496677,15.0222954 10.0532268,15.0974127 Z" id="Fill-12" fill-opacity="0.3" fill="url(#linearGradient-3)"/>
      <path d="M8.775,0.025 L8.125,0.025 C6.15058202,0.025 4.55,1.62558202 4.55,3.6 C4.55,5.57441798 6.15058202,7.175 8.125,7.175 L13,7.175 L13,4.25 C13,1.91659693 11.1084031,0.025 8.775,0.025 Z M8.93076046,1.98024849 C10.1145588,2.06029236 11.05,3.04590419 11.05,4.25 L11.049,5.225 L8.125,5.225 C7.22753728,5.225 6.5,4.49746272 6.5,3.6 C6.5,2.70253728 7.22753728,1.975 8.125,1.975 L8.775,1.975 L8.93076046,1.98024849 Z" id="2" fill="url(#linearGradient-4)" fill-rule="nonzero"/>
      <path d="M17.225,0.025 L16.575,0.025 C14.600582,0.025 13,1.62558202 13,3.6 C13,5.57441798 14.600582,7.175 16.575,7.175 L21.45,7.175 L21.45,4.25 C21.45,1.91659693 19.5584031,0.025 17.225,0.025 Z M17.3807605,1.98024849 C18.5645588,2.06029236 19.5,3.04590419 19.5,4.25 L19.5,5.225 L16.575,5.225 C15.6775373,5.225 14.95,4.49746272 14.95,3.6 C14.95,2.70253728 15.6775373,1.975 16.575,1.975 L17.225,1.975 L17.3807605,1.98024849 Z" fill="url(#linearGradient-5)" fill-rule="nonzero" transform="translate(17.225000, 3.600000) scale(-1, 1) translate(-17.225000, -3.600000) "/>
    </g>
  </g>
</svg>
