<?xml version="1.0" encoding="UTF-8"?>
<svg xmlns="http://www.w3.org/2000/svg" xmlns:xlink="http://www.w3.org/1999/xlink" width="24px" height="24px" viewBox="0 0 24 24" version="1.1">
  <title>bbpd_切片</title>
  <defs>
    <filter color-interpolation-filters="auto" id="filter-1">
      <feColorMatrix in="SourceGraphic" type="matrix" values="0 0 0 0 1.000000 0 0 0 0 1.000000 0 0 0 0 1.000000 0 0 0 1.000000 0"/>
    </filter>
  </defs>
  <g id="页面-1" stroke="none" stroke-width="1" fill="none" fill-rule="evenodd">
    <g id="作战室" transform="translate(-346.000000, -54.000000)">
      <g id="ic_createroom" transform="translate(0.000000, 44.000000)" filter="url(#filter-1)">
        <g transform="translate(346.000000, 10.000000)" id="ic_order_noti">
          <path d="M12,2.25 C14.6923882,2.25 17.1298882,3.34130592 18.8942911,5.10570888 C20.6586941,6.87011184 21.75,9.30761184 21.75,12 C21.75,14.6923882 20.6586941,17.1298882 18.8942911,18.8942911 C17.1298882,20.6586941 14.6923882,21.75 12,21.75 C9.30761184,21.75 6.87011184,20.6586941 5.10570888,18.8942911 C3.34130592,17.1298882 2.25,14.6923882 2.25,12 C2.25,9.30761184 3.34130592,6.87011184 5.10570888,5.10570888 C6.87011184,3.34130592 9.30761184,2.25 12,2.25 Z" id="形状结合" stroke="#FFFFFF" stroke-width="2.5"/>
          <rect id="矩形" fill="#FFFFFF" x="10.75" y="10.5" width="2.5" height="6.5" rx="1.25"/>
          <rect id="矩形" fill="#FFFFFF" x="10.75" y="7" width="2.5" height="2.5" rx="1.25"/>
        </g>
      </g>
    </g>
  </g>
</svg>
