<?xml version="1.0" encoding="UTF-8"?>
<svg xmlns="http://www.w3.org/2000/svg" xmlns:xlink="http://www.w3.org/1999/xlink" width="28px" height="28px" viewBox="0 0 28 28" version="1.1">
  <title>bbpd_inviteRoom</title>
  <g id="inviteRoom" stroke="none" stroke-width="1" fill="none" fill-rule="evenodd">
    <path d="M16.4664233,2.84298885 L16.6712582,2.97160446 L22.8408961,7.06304854 C24.4293777,8.11646265 25.4119291,9.86414939 25.4943655,11.7580233 L25.5,12.0171335 L25.5,13.1959986 C25.5,14.0244257 24.8284271,14.6959986 24,14.6959986 C23.2203039,14.6959986 22.5795513,14.1011105 22.5068666,13.3404586 L22.5,13.1959986 L22.5,12.0171335 C22.5,11.095912 22.0691974,10.2318838 21.3429671,9.67726096 L21.1828738,9.56324093 L15.0132359,5.47179685 C14.4463668,5.09587318 13.7225912,5.06695597 13.1315826,5.38504524 L12.9867641,5.47179685 L6.81712624,9.56324093 C6.04938263,10.0723762 5.56739712,10.908932 5.50654458,11.8206962 L5.5,12.0171335 L5.5,18.4444444 C5.5,20.6163926 7.20735692,22.3895661 9.35314243,22.4950367 L9.55555556,22.5 L10.6668638,22.5 C11.4952909,22.5 12.1668638,23.1715729 12.1668638,24 C12.1668638,24.7796961 11.5719757,25.4204487 10.8113238,25.4931334 L10.6668638,25.5 L9.55555556,25.5 C5.73840382,25.5 2.62924116,22.4687384 2.50392638,18.682074 L2.5,18.4444444 L2.5,12.0171335 C2.5,10.1111022 3.41348698,8.32634518 4.94627619,7.21094779 L5.15910392,7.06304854 L11.3287418,2.97160446 C12.8802953,1.94267954 14.8777144,1.89980766 16.4664233,2.84298885 Z M23.9547676,18.3722282 C24.7831947,18.3722282 25.4547676,19.0438011 25.4547676,19.8722282 L25.4547676,23.8722282 C25.4547676,24.7006553 24.7831947,25.3722282 23.9547676,25.3722282 C23.1263405,25.3722282 22.4547676,24.7006553 22.4547676,23.8722282 L22.4547676,19.8722282 C22.4547676,19.0438011 23.1263405,18.3722282 23.9547676,18.3722282 Z M15.9547676,20.3722282 C16.7831947,20.3722282 17.4547676,21.0438011 17.4547676,21.8722282 L17.4547676,23.8722282 C17.4547676,24.7006553 16.7831947,25.3722282 15.9547676,25.3722282 C15.1263405,25.3722282 14.4547676,24.7006553 14.4547676,23.8722282 L14.4547676,21.8722282 C14.4547676,21.0438011 15.1263405,20.3722282 15.9547676,20.3722282 Z M19.9547676,16.3722282 C20.7831947,16.3722282 21.4547676,17.0438011 21.4547676,17.8722282 L21.4547676,23.8722282 C21.4547676,24.7006553 20.7831947,25.3722282 19.9547676,25.3722282 C19.1263405,25.3722282 18.4547676,24.7006553 18.4547676,23.8722282 L18.4547676,17.8722282 C18.4547676,17.0438011 19.1263405,16.3722282 19.9547676,16.3722282 Z" id="形状结合" fill="#ADADAD"/>
  </g>
</svg>
