<?xml version="1.0" encoding="UTF-8"?>
<svg xmlns="http://www.w3.org/2000/svg" xmlns:xlink="http://www.w3.org/1999/xlink" width="24px" height="24px" viewBox="0 0 24 24" version="1.1">
  <title>bbpd_Hi</title>
  <defs>
    <linearGradient x1="100%" y1="50%" x2="0%" y2="50%" id="linearGradient-1">
      <stop stop-color="#E0ACFD" offset="0%"/>
      <stop stop-color="#BA97FE" offset="100%"/>
    </linearGradient>
  </defs>
  <g id="Hi" stroke="none" stroke-width="1" fill="none" fill-rule="evenodd">
    <path d="M12.9631391,20.0273484 C13.3277844,20.0273484 13.6963932,20.0035672 14.0689655,19.9560048 C14.4415379,19.9084423 14.7150218,19.8608799 14.8894174,19.8133175 L14.8894174,19.8133175 L14.8894174,7.2568371 C14.8894174,6.84462941 14.8418549,6.51169243 14.7467301,6.25802616 C14.6516052,6.00435989 14.508918,5.80618312 14.3186683,5.66349584 C14.1284185,5.52080856 13.89457,5.42172017 13.6171225,5.36623068 C13.339675,5.31074118 13.0186286,5.28299643 12.6539834,5.28299643 C12.3051922,5.28299643 11.940547,5.31074118 11.5600476,5.36623068 C11.1795482,5.42172017 10.9021007,5.46531906 10.7277051,5.49702735 L10.7277051,5.49702735 L10.7277051,11.0618312 L6.16171225,11.0618312 L6.16171225,7.2568371 C6.16171225,6.84462941 6.11414982,6.51169243 6.01902497,6.25802616 C5.92390012,6.00435989 5.78121284,5.80618312 5.59096314,5.66349584 C5.40071344,5.52080856 5.16686484,5.42172017 4.88941736,5.36623068 C4.61196988,5.31074118 4.2909235,5.28299643 3.92627824,5.28299643 C3.57748712,5.28299643 3.21284185,5.31074118 2.83234245,5.36623068 C2.45184304,5.42172017 2.17439556,5.46531906 2,5.49702735 L2,5.49702735 L2,18.0535077 C2,18.4657154 2.04756243,18.7986524 2.14268728,19.0523187 C2.23781213,19.3059849 2.38049941,19.5041617 2.57074911,19.646849 C2.76099881,19.7895363 2.9948474,19.8886247 3.27229489,19.9441141 C3.54974237,19.9996036 3.87078874,20.0273484 4.23543401,20.0273484 C4.60007927,20.0273484 4.96868807,20.0035672 5.3412604,19.9560048 C5.71383274,19.9084423 5.98731669,19.8608799 6.16171225,19.8133175 L6.16171225,19.8133175 L6.16171225,14.3436385 L10.7277051,14.3436385 L10.7277051,18.0535077 C10.7277051,18.4657154 10.7752675,18.7986524 10.8703924,19.0523187 C10.9655172,19.3059849 11.1082045,19.5041617 11.2984542,19.646849 C11.4887039,19.7895363 11.7225525,19.8886247 12,19.9441141 C12.2774475,19.9996036 12.5984939,20.0273484 12.9631391,20.0273484 Z M19.7883472,7.28061831 C20.4542212,7.28061831 20.9892985,7.07451447 21.3935791,6.66230678 C21.7978597,6.25009909 22,5.74276655 22,5.14030916 C22,4.53785176 21.7978597,4.03051922 21.3935791,3.61831153 C20.9892985,3.20610384 20.4542212,3 19.7883472,3 C19.1224732,3 18.587396,3.20610384 18.1831153,3.61831153 C17.7788347,4.03051922 17.5766944,4.53785176 17.5766944,5.14030916 C17.5766944,5.74276655 17.7788347,6.25009909 18.1831153,6.66230678 C18.587396,7.07451447 19.1224732,7.28061831 19.7883472,7.28061831 Z M20.0023781,20.098692 C20.3511692,20.098692 20.6959968,20.0709473 21.0368609,20.0154578 C21.3777249,19.9599683 21.6353547,19.9163694 21.8097503,19.8846611 L21.8097503,19.8846611 L21.8097503,10.2057075 C21.8097503,9.80935394 21.7582243,9.48830757 21.6551724,9.24256837 C21.5521205,8.99682917 21.4054697,8.80261593 21.21522,8.65992866 C21.0249703,8.51724138 20.7911217,8.42211653 20.5136742,8.3745541 C20.2362267,8.32699168 19.9231074,8.30321046 19.5743163,8.30321046 C19.2255252,8.30321046 18.8806976,8.33095521 18.5398335,8.38644471 C18.1989695,8.44193421 17.9413397,8.4855331 17.7669441,8.51724138 L17.7669441,8.51724138 L17.7669441,18.196195 C17.7669441,18.5925486 17.8184701,18.9135949 17.921522,19.1593341 C18.0245739,19.4050733 18.1712247,19.5992866 18.3614744,19.7419738 C18.5517241,19.8846611 18.7855727,19.979786 19.0630202,20.0273484 C19.3404677,20.0749108 19.653587,20.098692 20.0023781,20.098692 Z" fill="url(#linearGradient-1)"/>
  </g>
</svg>
