<?xml version="1.0" encoding="UTF-8"?>
<svg xmlns="http://www.w3.org/2000/svg" xmlns:xlink="http://www.w3.org/1999/xlink" width="16px" height="16px" viewBox="0 0 16 16" version="1.1">
  <title>bbpd_ic_avatar</title>
  <defs>
    <filter x="-26.8%" y="-26.8%" width="153.6%" height="153.6%" filterUnits="objectBoundingBox" id="filter-1">
      <feOffset dx="0" dy="0.5" in="SourceAlpha" result="shadowOffsetOuter1"/>
      <feGaussianBlur stdDeviation="0.5" in="shadowOffsetOuter1" result="shadowBlurOuter1"/>
      <feColorMatrix values="0 0 0 0 0   0 0 0 0 0   0 0 0 0 0  0 0 0 0.2 0" type="matrix" in="shadowBlurOuter1" result="shadowMatrixOuter1"/>
      <feMerge>
        <feMergeNode in="shadowMatrixOuter1"/>
        <feMergeNode in="SourceGraphic"/>
      </feMerge>
    </filter>
  </defs>
  <g id="ic_avatar" stroke="none" stroke-width="1" fill="none" fill-rule="evenodd">
    <g fill="#FFFFFF" fill-rule="nonzero" id="1">
      <g filter="url(#filter-1)" transform="translate(1.250000, 1.250000)">
        <path d="M3.75,0 C4.16421356,0 4.5,0.335786438 4.5,0.75 C4.5,1.12969577 4.21784612,1.44349096 3.85177056,1.49315338 L3.75,1.5 L1.75,1.5 C1.63165327,1.5 1.53251318,1.58223341 1.50660268,1.69267729 L1.5,1.75 L1.5,3.75 C1.5,4.16421356 1.16421356,4.5 0.75,4.5 C0.370304234,4.5 0.0565090391,4.21784612 0.006846616,3.85177056 L0,3.75 L0,1.75 C0,0.831826603 0.707110273,0.0788076603 1.60647279,0.00580119953 L1.75,0 L3.75,0 Z" id="路径"/>
        <path d="M12.75,0 C13.1642136,0 13.5,0.335786438 13.5,0.75 C13.5,1.12969577 13.2178461,1.44349096 12.8517706,1.49315338 L12.75,1.5 L10.75,1.5 C10.6316533,1.5 10.5325132,1.58223341 10.5066027,1.69267729 L10.5,1.75 L10.5,3.75 C10.5,4.16421356 10.1642136,4.5 9.75,4.5 C9.37030423,4.5 9.05650904,4.21784612 9.00684662,3.85177056 L9,3.75 L9,1.75 C9,0.831826603 9.70711027,0.0788076603 10.6064728,0.00580119953 L10.75,0 L12.75,0 Z" id="路径" transform="translate(11.250000, 2.250000) scale(-1, 1) translate(-11.250000, -2.250000) "/>
        <path d="M12.75,9 C13.1642136,9 13.5,9.33578644 13.5,9.75 C13.5,10.1296958 13.2178461,10.443491 12.8517706,10.4931534 L12.75,10.5 L10.75,10.5 C10.6316533,10.5 10.5325132,10.5822334 10.5066027,10.6926773 L10.5,10.75 L10.5,12.75 C10.5,13.1642136 10.1642136,13.5 9.75,13.5 C9.37030423,13.5 9.05650904,13.2178461 9.00684662,12.8517706 L9,12.75 L9,10.75 C9,9.8318266 9.70711027,9.07880766 10.6064728,9.0058012 L10.75,9 L12.75,9 Z" id="路径" transform="translate(11.250000, 11.250000) scale(-1, -1) translate(-11.250000, -11.250000) "/>
        <path d="M3.75,9 C4.16421356,9 4.5,9.33578644 4.5,9.75 C4.5,10.1296958 4.21784612,10.443491 3.85177056,10.4931534 L3.75,10.5 L1.75,10.5 C1.63165327,10.5 1.53251318,10.5822334 1.50660268,10.6926773 L1.5,10.75 L1.5,12.75 C1.5,13.1642136 1.16421356,13.5 0.75,13.5 C0.370304234,13.5 0.0565090391,13.2178461 0.006846616,12.8517706 L0,12.75 L0,10.75 C0,9.8318266 0.707110273,9.07880766 1.60647279,9.0058012 L1.75,9 L3.75,9 Z" id="路径" transform="translate(2.250000, 11.250000) scale(1, -1) translate(-2.250000, -11.250000) "/>
        <path d="M6.75,2.5 C5.23121694,2.5 4,3.73121694 4,5.25 C4,6.76878306 5.23121694,8 6.75,8 C8.26878306,8 9.5,6.76878306 9.5,5.25 C9.5,3.73121694 8.26878306,2.5 6.75,2.5 Z M6.75,4 C7.44035594,4 8,4.55964406 8,5.25 C8,5.94035594 7.44035594,6.5 6.75,6.5 C6.05964406,6.5 5.5,5.94035594 5.5,5.25 C5.5,4.55964406 6.05964406,4 6.75,4 Z" id="椭圆形"/>
        <path d="M6.75,6.5 C7.95333742,6.5 9.06280842,7.07161472 9.76518112,8.02006294 C10.0112706,8.35236966 10.2012545,8.72346269 10.326297,9.11923366 C10.4510862,9.5142027 10.2320621,9.93554996 9.83709305,10.0603391 C9.442124,10.1851282 9.02077675,9.96610415 8.89598761,9.5711351 C8.82120267,9.33443392 8.70741641,9.11217673 8.55973498,8.91275527 C8.13730853,8.34233217 7.47286165,8 6.75,8 C6.02713835,8 5.36269147,8.34233217 4.94026502,8.91275527 C4.79258359,9.11217673 4.67879733,9.33443392 4.60401239,9.5711351 C4.47922325,9.96610415 4.057876,10.1851282 3.66290695,10.0603391 C3.26793791,9.93554996 3.04891382,9.5142027 3.17370295,9.11923366 C3.29874546,8.72346269 3.48872936,8.35236966 3.73481888,8.02006294 C4.43719158,7.07161472 5.54666258,6.5 6.75,6.5 Z" id="路径"/>
      </g>
    </g>
  </g>
</svg>
