<?xml version="1.0" encoding="UTF-8"?>
<svg xmlns="http://www.w3.org/2000/svg" xmlns:xlink="http://www.w3.org/1999/xlink" width="24px" height="24px" viewBox="0 0 24 24" version="1.1">
  <title>bbpd_形状</title>
  <g id="页面-1" stroke="none" stroke-width="1" fill="none" fill-rule="evenodd">
    <g id="开黑入口" transform="translate(-618.000000, -1136.000000)" fill="#6CFFFF">
      <g id="编组-2" transform="translate(0.000000, 856.000000)">
        <g id="导航栏" transform="translate(0.000000, 248.000000)">
          <g id="资料页关注" transform="translate(600.000000, 15.000000)">
            <g id="形状" transform="translate(18.000000, 17.000000)">
              <path d="M23.4915976,10.839177 C22.3156204,5.38996212 20.654787,4.04560162 19.6448932,3.50730532 C18.02692,2.64327074 16.1491068,3.14568062 15.5276336,3.4714189 C14.82044,3.83856458 14.3436201,4.53973001 13.6257115,4.84338434 C12.7952948,5.19396705 11.6648566,5.28782384 10.8156885,4.86546829 C10.1379613,4.52868804 9.54059707,3.80819915 8.72089543,3.48798186 C7.68153517,3.08218927 5.94837515,2.51628803 4.23664524,3.75574976 C3.82947318,4.0511226 0.93908731,6.49692015 0.0738466828,14.1434881 C-0.461906027,18.8584116 2.09631316,20.3739227 2.00255644,20.3049103 C2.66153227,20.7824758 4.13485223,21.5857795 6.13320984,20.3242338 C7.46723408,19.4822832 8.55213332,17.8149449 8.55213332,17.8149449 C8.55213332,17.8149449 9.03431076,16.887419 9.67721401,16.4954288 C10.1299251,16.216619 10.810331,16.429177 10.810331,16.429177 L13.2131819,16.429177 C13.2131819,16.429177 13.9766295,16.3325597 14.5097035,16.5699622 C15.0293836,16.7990832 15.3240476,17.3649844 15.3240476,17.3649844 C15.3240476,17.3649844 16.9071968,19.4325943 18.423377,20.4843424 C19.068959,20.9315424 21.6646809,21.4477548 23.0067414,19.794219 C23.8773396,18.7148659 24.4747039,15.3884708 23.4915976,10.839177 Z M10.6603202,10.3560905 C10.6603202,10.7701646 10.3335111,11.1041844 9.93169655,11.1041844 L8.1128161,11.1041844 L8.1128161,12.9813202 C8.1128161,13.3953943 7.78600695,13.7321745 7.38419241,13.7321745 L6.83772465,13.7321745 C6.43591012,13.7321745 6.10910096,13.3981548 6.10910096,12.9813202 L6.10910096,11.1041844 L4.29022051,11.1041844 C3.88840598,11.1041844 3.56159683,10.7701646 3.56159683,10.3560905 L3.56159683,9.79294979 C3.56159683,9.37887572 3.88840598,9.04209547 4.29022051,9.04209547 L6.10910096,9.04209547 L6.10910096,7.16772015 C6.10910096,6.75364607 6.43591012,6.41686583 6.83772465,6.41686583 L7.38419241,6.41686583 C7.78600695,6.41686583 8.1128161,6.75364607 8.1128161,7.16772015 L8.1128161,9.04209547 L9.93169655,9.04209547 C10.3335111,9.04209547 10.6603202,9.37611522 10.6603202,9.79294979 L10.6603202,10.3560905 L10.6603202,10.3560905 Z M15.7874737,12.9813202 C15.0347411,12.9813202 14.423983,12.3519276 14.423983,11.5734683 C14.423983,10.7977696 15.0347411,10.168377 15.7874737,10.168377 C16.5402062,10.168377 17.1509643,10.7977696 17.1509643,11.5734683 C17.1509643,12.3519276 16.5402062,12.9813202 15.7874737,12.9813202 Z M18.2894388,9.85644115 C17.5447426,9.85644115 16.939342,9.23256954 16.939342,8.46515226 C16.939342,7.69773497 17.5447426,7.07662385 18.2894388,7.07662385 C19.0341351,7.07662385 19.6395357,7.70049546 19.6395357,8.46515226 C19.6368569,9.23256954 19.0341351,9.85644115 18.2894388,9.85644115 Z"/>
            </g>
          </g>
        </g>
      </g>
    </g>
  </g>
</svg>
