<?xml version="1.0" encoding="UTF-8"?>
<svg xmlns="http://www.w3.org/2000/svg" xmlns:xlink="http://www.w3.org/1999/xlink" width="16px" height="16px" viewBox="0 0 16 16" version="1.1">
  <title>bbpd_切片</title>
  <g id="1.7.6" stroke="none" stroke-width="1" fill="none" fill-rule="evenodd">
    <g id="首页-未建房" transform="translate(-85.000000, -509.000000)" fill="#FFFFFF">
      <g id="编组-19备份" transform="translate(16.000000, 408.000000)">
        <g id="编组-2" transform="translate(0.000000, 36.000000)">
          <g id="编组-20" transform="translate(16.000000, 12.000000)">
            <g id="形状结合" transform="translate(53.000000, 53.000000)">
              <path d="M8,2.5 C8.82842712,2.5 9.5,3.17157288 9.5,4 L9.5,6.5 L12,6.5 C12.8284271,6.5 13.5,7.17157288 13.5,8 C13.5,8.82842712 12.8284271,9.5 12,9.5 L9.5,9.5 L9.5,12 C9.5,12.8284271 8.82842712,13.5 8,13.5 C7.17157288,13.5 6.5,12.8284271 6.5,12 L6.5,9.5 L4,9.5 C3.17157288,9.5 2.5,8.82842712 2.5,8 C2.5,7.17157288 3.17157288,6.5 4,6.5 L6.5,6.5 L6.5,4 C6.5,3.17157288 7.17157288,2.5 8,2.5 Z"/>
            </g>
          </g>
        </g>
      </g>
    </g>
  </g>
</svg>
