<?xml version="1.0" encoding="UTF-8"?>
<svg width="70px" height="40px" viewBox="0 0 70 40" version="1.1" xmlns="http://www.w3.org/2000/svg" xmlns:xlink="http://www.w3.org/1999/xlink">
    <title>快速匹配-悬浮入口</title>
    <g id="页面-1" stroke="none" stroke-width="1" fill="none" fill-rule="evenodd">
        <g id="首页" transform="translate(-274, -780)">
            <g id="快速匹配-悬浮入口" transform="translate(274, 780.0001)">
                <rect id="矩形" stroke="#1A1A1A" fill="#93DAFF" x="0.5" y="14.5021334" width="69" height="25" rx="12.5"></rect>
                <text id="快速匹配" font-family="PingFangSC-Medium, PingFang SC" font-size="12" font-weight="400" fill="#1A1A1A">
                    <tspan x="11" y="31.5021334">快速匹配</tspan>
                </text>
                <g id="编组-19" transform="translate(19.8494, -0)">
                    <path d="M0,12.1793703 C1.24042174,9.49978287 2.85863785,7.9570942 4.85464833,7.5513043 C7.84866404,6.94261944 9.2631141,8.53990671 9.56297982,8.98083171 C9.86284554,9.4217567 10.3662283,10.7188834 9.29053679,11.4491269 C8.21484529,12.1793703 7.24294188,10.9844995 7.24294188,10.3921518 C7.24294188,9.88152572 6.95787356,8.42332432 8.61303721,6.39576806 C9.60993381,5.1745813 11.1531031,4.71676717 11.9725914,4.5830676 C13.3804998,4.35336725 14.8025089,4.47631234 16.0635597,4.77565284 C18.3124693,5.30948522 20.04947,6.40432185 20.2816666,7.06051372" id="路径-4" stroke="#1A1A1A" stroke-linecap="round" stroke-linejoin="round"></path>
                    <path d="M16.3765154,8.08824274 C16.3765154,8.08824274 17.7710939,7.74631357 20.5602509,7.06245523 L20.2822859,3.00004256" id="路径-5" stroke="#1A1A1A" stroke-linecap="round" stroke-linejoin="round"></path>
                    <g id="编组-13" transform="translate(23.8333, 0)">
                        <path d="M12.744761,0.5 C13.7112593,0.5 14.5862593,0.891750844 15.2196347,1.52512627 C15.8530101,2.15850169 16.244761,3.03350169 16.244761,4 L16.244761,5.66244328 C16.244761,6.62894159 15.8530101,7.50394159 15.2196347,8.13731701 C14.5862593,8.77069244 13.7112593,9.16244328 12.744761,9.16244328 L9.37958656,9.16244328 L6.66145974,10.6034211 L5.7438971,9.16244328 L4,9.16244328 C3.03350169,9.16244328 2.15850169,8.77069244 1.52512627,8.13731701 C0.891750844,7.50394159 0.5,6.62894159 0.5,5.66244328 L0.5,4 C0.5,3.03350169 0.891750844,2.15850169 1.52512627,1.52512627 C2.15850169,0.891750844 3.03350169,0.5 4,0.5 L12.744761,0.5 Z" id="矩形" stroke="#1A1A1A" fill="#1A1A1A"></path>
                        <path d="M7.39342449,6.28735741 L5.55418606,6.28735741 C5.31405692,6.28735741 5.14841122,6.04699978 5.23386156,5.82274978 L7.06144767,1.02565038 C7.11206601,0.892779227 7.23947159,0.804941771 7.38165794,0.804941771 L10.4656381,0.804941771 C10.7089659,0.804941771 10.8748401,1.05146827 10.7829924,1.27686065 L9.71886161,3.8888077 L11.7221464,3.8888077 C12.0167673,3.8888077 12.1739593,4.23609248 11.9796398,4.45748652 L7.0680735,10.0540263 C6.82931523,10.3261422 6.38664137,10.0903541 6.47928873,9.74044189 L7.39342449,6.28735741 Z M7.61778874,1.49037224 L6.05135163,5.60204117 L7.83849735,5.60204117 C7.94484164,5.60205162 8.04515588,5.65142866 8.11002756,5.73569473 C8.17489924,5.81996081 8.19697744,5.92956734 8.16978875,6.03237727 L7.5150884,8.50586736 L10.9655454,4.57412394 L9.20924406,4.57412394 C8.96591624,4.57412394 8.80004207,4.32759744 8.89188975,4.10220506 L9.95602056,1.490258 L7.61778874,1.490258 L7.61778874,1.49037224 Z" id="形状" fill="#FFFFFF" fill-rule="nonzero"></path>
                    </g>
                </g>
            </g>
        </g>
    </g>
</svg>