<?xml version="1.0" encoding="UTF-8"?>
<svg xmlns="http://www.w3.org/2000/svg" xmlns:xlink="http://www.w3.org/1999/xlink" width="28px" height="28px" viewBox="0 0 28 28" version="1.1">
  <title>bbpd_ic_next_small@2x</title>
  <g id="首页" stroke="none" stroke-width="1" fill="none" fill-rule="evenodd">
    <g id="1首页-直播备份-2" transform="translate(-104.000000, -318.000000)">
      <g id="subsub备份" transform="translate(0.000000, 288.000000)">
        <g id="编组-3" transform="translate(32.000000, 16.000000)">
          <g id="ic_next_small" transform="translate(86.000000, 28.000000) scale(1, -1) rotate(90.000000) translate(-86.000000, -28.000000) translate(72.000000, 14.000000)">
            <rect id="#" x="0" y="0" width="28" height="28"/>
            <path d="M10.8219223,2.07192235 C11.2878888,1.60595587 12.0170503,1.56359528 12.5308704,1.94484058 L12.6780777,2.07192235 L19.6780777,9.07192235 C20.1440441,9.53788883 20.1864047,10.2670503 19.8051594,10.7808704 L19.6780777,10.9280777 L12.6780777,17.9280777 C12.1655145,18.4406408 11.3344855,18.4406408 10.8219223,17.9280777 C10.3559559,17.4621112 10.3135953,16.7329497 10.6948406,16.2191296 L10.8219223,16.0719223 L16.89325,10 L10.8219223,3.92807765 C10.3559559,3.46211117 10.3135953,2.73294972 10.6948406,2.21912961 L10.8219223,2.07192235 Z" id="arrow" fill="#926AFF" fill-rule="nonzero"/>
          </g>
        </g>
      </g>
    </g>
  </g>
</svg>
