<?xml version="1.0" encoding="UTF-8"?>
<svg xmlns="http://www.w3.org/2000/svg" xmlns:xlink="http://www.w3.org/1999/xlink" width="42px" height="42px" viewBox="0 0 42 42" version="1.1">
  <title>bbpd_快速匹配@1x</title>
  <g id="页面-1" stroke="none" stroke-width="1" fill="none" fill-rule="evenodd">
    <g id="2首页-女神" transform="translate(-532.000000, -1351.000000)">
      <g id="快速匹配" transform="translate(476.000000, 1302.000000)">
        <g transform="translate(56.000000, 49.000000)">
          <rect id="矩形" fill-rule="nonzero" x="0" y="0" width="42" height="42"/>
          <path d="M27.8529926,12.1544042 L38.6933807,28.8188441 C39.8979999,30.6706508 39.3733507,33.1483734 37.5215441,34.3529926 C36.8724451,34.7752381 36.11474,35 35.3403882,35 L13.6596118,35 C11.4504728,35 9.65961181,33.209139 9.65961181,31 C9.65961181,30.2256482 9.88437375,29.4679431 10.3066193,28.8188441 L21.1470074,12.1544042 C22.3516266,10.3025976 24.8293492,9.77794843 26.6811559,10.9825676 C27.149289,11.287093 27.5484671,11.6862711 27.8529926,12.1544042 Z" id="三角形" fill="#FFFFFF" transform="translate(24.500000, 21.000000) rotate(-270.000000) translate(-24.500000, -21.000000) "/>
        </g>
      </g>
    </g>
  </g>
</svg>
