<?xml version="1.0" encoding="UTF-8"?>
<svg xmlns="http://www.w3.org/2000/svg" xmlns:xlink="http://www.w3.org/1999/xlink" width="32px" height="32px" viewBox="0 0 32 32" version="1.1">
  <title>bbpd_创建派对</title>
  <g id="页面" stroke="none" stroke-width="1" fill="none" fill-rule="evenodd">
    <g id="首页备份-5" transform="translate(-562.000000, -252.000000)">
      <g id="编组-5" transform="translate(32.000000, 240.000000)">
        <g id="创建派对" transform="translate(530.000000, 12.000000)">
          <g transform="translate(2.000000, 2.000000)" id="形状结合">
            <path d="M14,0 C21.7319865,0 28,6.2680135 28,14 C28,21.7319865 21.7319865,28 14,28 C6.2680135,28 0,21.7319865 0,14 C0,6.2680135 6.2680135,0 14,0 Z M14,6 C12.8954305,6 12,6.8954305 12,8 L12,12 L8,12 C6.9456382,12 6.08183488,12.8158778 6.00548574,13.8507377 L6,14 C6,15.1045695 6.8954305,16 8,16 L12,16 L12,20 C12,21.0543618 12.8158778,21.9181651 13.8507377,21.9945143 L14,22 C15.1045695,22 16,21.1045695 16,20 L16,16 L20,16 C21.0543618,16 21.9181651,15.1841222 21.9945143,14.1492623 L22,14 C22,12.8954305 21.1045695,12 20,12 L16,12 L16,8 C16,6.9456382 15.1841222,6.08183488 14.1492623,6.00548574 Z" fill="#D4FA00" fill-rule="nonzero"/>
            <g transform="translate(5.894737, 5.894737)"/>
          </g>
        </g>
      </g>
    </g>
  </g>
</svg>
