<?xml version="1.0" encoding="UTF-8"?><svg version="1.1" width="16px" height="16px" viewBox="0 0 16.0 16.0" xmlns="http://www.w3.org/2000/svg" xmlns:xlink="http://www.w3.org/1999/xlink"><defs><clipPath id="i0"><path d="M8,0 C12.418278,0 16,3.581722 16,8 C16,12.418278 12.418278,16 8,16 C3.581722,16 0,12.418278 0,8 C0,3.581722 3.581722,0 8,0 Z"></path></clipPath><linearGradient id="i1" x1="8px" y1="0px" x2="8px" y2="16px" gradientUnits="userSpaceOnUse"><stop stop-color="#FEA11D" offset="0%"></stop><stop stop-color="#FE7E1D" offset="100%"></stop></linearGradient><clipPath id="i2"><path d="M4.182,0 L2.652,8 L0,8 L1.53,0 L4.182,0 Z M9.269,0 C12.017,0.029 13.165,1.304 12.712,3.826 C12.15,6.609 10.464,8 7.652,8 L4.218,8 L5.748,0 Z M8.67794394,1.86331373 L8.52,1.87 L7.999,1.87 L7.184,6.13 L7.9230271,6.1290203 C9.06148299,6.08833787 9.76542857,5.36461905 10.034,3.957 C10.375,2.478 9.87,1.783 8.52,1.87 Z"></path></clipPath></defs><g clip-path="url(#i0)"><polygon points="0,0 16,0 16,16 0,16 0,0" stroke="none" fill="url(#i1)"></polygon></g><g transform="translate(2.0 4.0)"><g clip-path="url(#i2)"><polygon points="0,0 12.8081345,0 12.8081345,8 0,8 0,0" stroke="none" fill="#FFFFFF"></polygon></g></g></svg>