<?xml version="1.0"?>
<svg xmlns="http://www.w3.org/2000/svg" width="12" height="12" viewBox="0 0 12 12">
  <title>bbpd_&#x70ED;&#x5EA6;</title>
  <path fill="none" fill-rule="nonzero" stroke="#FFF" stroke-width="1.5" d="M8.386 2.988A7.636 7.636 0 0 0 7.26 1.807c-.164-.14-.44-.008-.394.19.09.39.183.904.183 1.364 0 .854-.633 1.546-1.598 1.546-.722 0-1.313-.386-1.57-.937a.961.961 0 0 1-.095-.224c-.051-.174-.309-.227-.421-.074a4.708 4.708 0 0 0-.24.344A5.211 5.211 0 0 0 2.25 6.9c0 1.832 1.678 3.42 3.75 3.42S9.75 8.732 9.75 6.9c0-1.446-.506-2.789-1.364-3.912z"/>
</svg>
