<?xml version="1.0" encoding="UTF-8"?>
<svg xmlns="http://www.w3.org/2000/svg" xmlns:xlink="http://www.w3.org/1999/xlink" width="96px" height="96px" viewBox="0 0 96 96" version="1.1">
  <title>bbpd_close</title>
  <g id="页面-1" stroke="none" stroke-width="1" fill="none" fill-rule="evenodd">
    <g id="活动弹窗1" transform="translate(-327.000000, -1289.000000)">
      <g id="close" transform="translate(327.000000, 1289.000000)">
        <g id="编组-2" transform="translate(12.000000, 12.000000)">
          <circle id="椭圆形" stroke-opacity="0.595771416" stroke="#FFFFFF" stroke-width="6" fill-opacity="0.3" fill="#01050D" cx="36" cy="36" r="33"/>
          <path d="M48.4284453,22.6812884 C48.4325787,22.6853815 48.4366943,22.6894925 48.4407918,22.6936215 L49.3857485,23.6458266 C49.9428469,24.2071982 50.1157362,24.5115217 50.2221364,24.8636031 C50.3285367,25.2156845 50.3287317,25.5755032 50.2227133,25.9276998 C50.1166949,26.2798963 49.9441357,26.5844071 49.3876464,27.1463825 L27.2260347,49.5264708 C26.4488265,50.311341 25.1825118,50.3175523 24.3976416,49.5403441 L24.3852951,49.528011 L23.4403384,48.5758058 C22.8832401,48.0144342 22.7103508,47.7101107 22.6039505,47.3580293 C22.4975503,47.0059479 22.4973552,46.6461293 22.6033736,46.2939327 C22.709392,45.9417361 22.8819513,45.6372253 23.4384406,45.07525 L32.0251133,36.4024214 L23.2777054,27.5658841 C22.7050848,26.9873516 22.5353111,26.6855557 22.4293702,26.3333485 C22.3234294,25.9811413 22.3236969,25.6213357 22.4301611,25.2692864 C22.5366254,24.9172371 22.7068475,24.6156938 23.2803274,24.0380132 L24.2819972,23.0290063 C25.0601905,22.2451128 26.326512,22.2404919 27.1104055,23.0186852 L27.1228196,23.0311177 L36.1921133,32.1944214 L45.6000522,22.6951616 C46.3772604,21.9102915 47.6435751,21.9040802 48.4284453,22.6812884 Z M43.8057502,39.5953348 C43.8099401,39.5994955 43.8141115,39.6036747 43.8182644,39.6078724 L49.0758809,44.9221818 C49.6504623,45.5029588 49.8198125,45.8044206 49.9256778,46.1566349 C50.0315432,46.5088491 50.0312072,46.8686387 49.9246841,47.2206545 C49.818161,47.5726704 49.648248,47.8738154 49.0725828,48.4535181 L48.063582,49.4695958 C47.2852677,50.2533691 46.0189454,50.2577944 45.2351722,49.4794801 L45.222658,49.4669425 L39.9650415,44.1526331 C39.3904601,43.571856 39.2211099,43.2703943 39.1152446,42.91818 C39.0093792,42.5659658 39.0097152,42.2061762 39.1162383,41.8541603 C39.2227614,41.5021445 39.3926744,41.2009995 39.9683396,40.6212968 L40.9773404,39.6052191 C41.7556547,38.8214458 43.021977,38.8170205 43.8057502,39.5953348 Z" id="形状结合" fill="#FFFFFF" opacity="0.848818824"/>
        </g>
      </g>
    </g>
  </g>
</svg>
