<?xml version="1.0" encoding="UTF-8"?>
<svg xmlns="http://www.w3.org/2000/svg" xmlns:xlink="http://www.w3.org/1999/xlink" width="20px" height="20px" viewBox="0 0 20 20" version="1.1">
  <title>bbpd_矩形</title>
  <g id="认证主播" stroke="none" stroke-width="1" fill="none" fill-rule="evenodd" opacity="0.400000006">
    <g id="游戏资质" transform="translate(-214.000000, -1289.000000)" fill-rule="nonzero">
      <g id="删除" transform="translate(214.000000, 1289.000000)">
        <rect id="矩形" fill="#000000" opacity="0" x="0" y="0" width="20" height="20"/>
        <path d="M10,1.25 C5.16796875,1.25 1.25,5.16796875 1.25,10 C1.25,14.8320312 5.16796875,18.75 10,18.75 C14.8320312,18.75 18.75,14.8320312 18.75,10 C18.75,5.16796875 14.8320312,1.25 10,1.25 Z M13.4804688,12.046875 C13.8007812,12.3671875 13.8007812,12.8867188 13.4804688,13.2070312 C13.1601563,13.5273437 12.640625,13.5273437 12.3203125,13.2070312 L10,10.8867188 L7.6796875,13.2070312 C7.359375,13.5273438 6.83984375,13.5273438 6.51953125,13.2070312 C6.19921875,12.8867188 6.19921875,12.3671875 6.51953125,12.046875 L8.83984375,9.7265625 L6.51953125,7.40625 C6.19921875,7.0859375 6.19921875,6.56640625 6.51953125,6.24609375 C6.83984375,5.92578125 7.359375,5.92578125 7.6796875,6.24609375 L10,8.56640625 L12.3203125,6.24609375 C12.640625,5.92578125 13.1601562,5.92578125 13.4804687,6.24609375 C13.8007812,6.56640625 13.8007812,7.0859375 13.4804687,7.40625 L11.1601562,9.7265625 L13.4804687,12.046875 L13.4804688,12.046875 Z" id="形状" fill="#0E0E0E"/>
      </g>
    </g>
  </g>
</svg>
