<svg fill="none" xmlns="http://www.w3.org/2000/svg">
  <g clip-path="url(#clip0_93_4594)">
    <g filter="url(#filter0_d_93_4594)">
      <path
        d="M13.0328 7.33387C12.7281 6.64949 12.2922 6.04324 11.7375 5.53387L11.2828 5.11668C11.2156 5.05731 11.1094 5.08387 11.0797 5.16824L10.8766 5.75106C10.75 6.11668 10.5172 6.49012 10.1875 6.85731C10.1656 6.88074 10.1406 6.88699 10.1234 6.88856C10.1063 6.89012 10.0797 6.88699 10.0562 6.86512C10.0344 6.84637 10.0234 6.81824 10.025 6.79012C10.0828 5.84949 9.80156 4.78856 9.18594 3.63387C8.67656 2.67449 7.96875 1.92606 7.08437 1.40418L6.43906 1.02449C6.35469 0.974493 6.24688 1.04012 6.25156 1.13856L6.28594 1.88856C6.30937 2.40106 6.25 2.85418 6.10938 3.23074C5.9375 3.69168 5.69062 4.11981 5.375 4.50418C5.15313 4.77293 4.90469 5.01512 4.63281 5.22449C3.975 5.72918 3.43281 6.38699 3.06562 7.12293C2.69531 7.86668 2.5 8.69949 2.5 9.53387C2.5 10.2714 2.64531 10.9854 2.93281 11.6589C3.21094 12.3073 3.60781 12.8917 4.1125 13.3917C4.61875 13.8917 5.20625 14.2854 5.86094 14.5589C6.53906 14.8432 7.25781 14.987 8 14.987C8.74219 14.987 9.46094 14.8432 10.1391 14.5604C10.7938 14.287 11.3828 13.8948 11.8875 13.3932C12.3938 12.8932 12.7906 12.3089 13.0672 11.6604C13.3547 10.987 13.5 10.2729 13.5 9.53543C13.5 8.77293 13.3438 8.03231 13.0328 7.33387ZM11.1406 12.6354C10.3016 13.4667 9.1875 13.9229 8 13.9229C6.8125 13.9229 5.69844 13.4667 4.85938 12.6354C4.02344 11.8057 3.5625 10.7057 3.5625 9.53543C3.5625 8.85574 3.71563 8.20418 4.01719 7.59793C4.31094 7.00574 4.74844 6.47606 5.27969 6.06824C5.61562 5.81199 5.92344 5.51356 6.19531 5.18074C6.58594 4.70418 6.89219 4.17293 7.10469 3.60262C7.18906 3.37606 7.25312 3.13387 7.29375 2.87606C7.67031 3.22293 7.98594 3.64168 8.25 4.13231C8.77187 5.11043 9.0125 5.98074 8.96562 6.72137C8.94375 7.07762 9.08281 7.41668 9.34688 7.65574C9.57656 7.86199 9.87344 7.96668 10.1812 7.94949C10.4891 7.93387 10.7719 7.79793 10.9781 7.56824C11.1859 7.33543 11.3656 7.09793 11.5156 6.85574C11.7344 7.13543 11.9172 7.44012 12.0625 7.76824C12.3109 8.32762 12.4375 8.92293 12.4375 9.53543C12.4375 10.7057 11.9766 11.8073 11.1406 12.6354Z"
        fill="#D642E1" />
    </g>
  </g>
  <defs>
    <filter id="filter0_d_93_4594" x="-0.5" y="-1.99268" width="17" height="19.9795" filterUnits="userSpaceOnUse"
      color-interpolation-filters="sRGB">
      <feFlood flood-opacity="0" result="BackgroundImageFix" />
      <feColorMatrix in="SourceAlpha" type="matrix" values="0 0 0 0 0 0 0 0 0 0 0 0 0 0 0 0 0 0 127 0"
        result="hardAlpha" />
      <feOffset />
      <feGaussianBlur stdDeviation="1.5" />
      <feComposite in2="hardAlpha" operator="out" />
      <feColorMatrix type="matrix" values="0 0 0 0 0.988235 0 0 0 0 0.160784 0 0 0 0 0.658824 0 0 0 1 0" />
      <feBlend mode="normal" in2="BackgroundImageFix" result="effect1_dropShadow_93_4594" />
      <feBlend mode="normal" in="SourceGraphic" in2="effect1_dropShadow_93_4594" result="shape" />
    </filter>
    <clipPath id="clip0_93_4594">
      <rect width="16" height="16" fill="white" />
    </clipPath>
  </defs>
</svg>