<?xml version="1.0" encoding="UTF-8"?>
<svg xmlns="http://www.w3.org/2000/svg" xmlns:xlink="http://www.w3.org/1999/xlink" width="10px" height="10px" viewBox="0 0 10 10" version="1.1">
  <title>bbpd_聊天</title>
  <g id="聊天" stroke="none" stroke-width="1" fill="none" fill-rule="evenodd">
    <path d="M2.06103516,8.97949219 C2.12939453,8.97949219 2.19148763,8.96297201 2.24731445,8.92993164 C2.30314128,8.89689128 2.36979167,8.84391276 2.44726562,8.77099609 L3.37695312,7.91308594 C3.28580729,7.84016927 3.20776367,7.73649089 3.14282227,7.60205078 C3.07788086,7.46761068 3.04541016,7.27164714 3.04541016,7.01416016 L3.04541016,4.80273438 C3.04541016,4.46777344 3.11035156,4.1800944 3.24023438,3.93969727 C3.37011719,3.69930013 3.55582682,3.51529948 3.79736328,3.38769531 C4.03889974,3.26009115 4.32714844,3.19628906 4.66210938,3.19628906 L6.96240234,3.19628906 L6.95898438,3.08349609 C6.94075521,2.86702474 6.88094076,2.67732747 6.77954102,2.5144043 C6.67814128,2.35148112 6.53857422,2.22501628 6.36083984,2.13500977 C6.18310547,2.04500326 5.96891276,2 5.71826172,2 L1.25097656,2 C0.868164062,2 0.563964844,2.10709635 0.338378906,2.32128906 C0.112792969,2.53548177 0,2.83740234 0,3.22705078 L0,6.43994141 C0,6.8273112 0.112223307,7.13378906 0.336669922,7.359375 C0.561116536,7.58496094 0.861328125,7.69775391 1.23730469,7.69775391 L1.76367188,7.69775391 L1.76367188,8.63769531 C1.76367188,8.74251302 1.7898763,8.82568359 1.84228516,8.88720703 C1.89469401,8.94873047 1.96761068,8.97949219 2.06103516,8.97949219 Z M7.40673828,9.4375 C7.50244141,9.4375 7.5764974,9.40673828 7.62890625,9.34521484 C7.6813151,9.28369141 7.70751953,9.20052083 7.70751953,9.09570312 L7.70751953,8.15576172 L8.04589844,8.15576172 C8.421875,8.15576172 8.72151693,8.04239909 8.94482422,7.81567383 C9.16813151,7.58894857 9.27978516,7.28190104 9.27978516,6.89453125 L9.27978516,4.88134766 C9.27978516,4.49169922 9.16699219,4.18977865 8.94140625,3.97558594 C8.71582031,3.76139323 8.41276042,3.65429688 8.03222656,3.65429688 L4.75097656,3.65429688 C4.35677083,3.65429688 4.05029297,3.76139323 3.83154297,3.97558594 C3.61279297,4.18977865 3.50341797,4.49397786 3.50341797,4.88818359 L3.50341797,6.89453125 C3.50341797,7.28190104 3.61279297,7.58894857 3.83154297,7.81567383 C4.05029297,8.04239909 4.35677083,8.15576172 4.75097656,8.15576172 L5.83789062,8.15576172 L7.02392578,9.22900391 C7.10139974,9.29964193 7.16805013,9.35205078 7.22387695,9.38623047 C7.27970378,9.42041016 7.34065755,9.4375 7.40673828,9.4375 Z" id="􀘲" fill="#FFFFFF" fill-rule="nonzero"/>
  </g>
</svg>
