<?xml version="1.0"?>
<svg xmlns="http://www.w3.org/2000/svg" width="12" height="12" viewBox="0 0 12 12">
  <title>bbpd_ic_male</title>
  <path fill="#60C8FA" fill-rule="nonzero" d="M9.958 9.27c-.268-.763-.977-1.019-1.044-1.049-.525-.234-1.905-.5-1.905-.5a2.521 2.521 0 0 1-.008-.468c.806-.43.993-1.395.993-1.395 1.308-1.36.271-1.658.271-1.658.029-1.102-.338-1.742-.338-1.742.426-.417.393-.654.393-.654-.456.002-1.159-.387-1.159-.387-1.158-.357-1.868-.03-1.868-.03-1.78.64-1.574 2.857-1.574 2.857-1.015.276.228 1.614.228 1.614.103.997 1.067 1.407 1.067 1.407.03.185.028.339.008.467-.776.112-2.226.662-2.336.733-.32.21-.57.533-.658.847a.734.734 0 0 0 .7.938H9.27a.734.734 0 0 0 .687-.98z"/>
</svg>
