<?xml version="1.0"?>
<svg xmlns="http://www.w3.org/2000/svg" width="12" height="12" viewBox="0 0 12 12">
  <title>bbpd_ic_female</title>
  <path fill="#FF6F8A" fill-rule="nonzero" d="M8.914 8.157c-.524-.243-1.905-.516-1.905-.516a2.68 2.68 0 0 1-.008-.484c.025-.014-.016-.14.008-.156.345.074.62.11.825.11.188 0 .508-.074.96-.223a.1.1 0 0 0 .055-.146c-.303-.514-.484-1.216-.54-2.106-.092-1.428-.157-2.164-.746-2.758-.995-1.002-2.57-.678-3.212.088-.23.274-.567.866-.656 1.62-.231 1.976-.587 2.234-1.167 2.557a.036.036 0 0 0-.017.035.035.035 0 0 0 .025.03c.407.102.779.068 1.111-.113a.031.031 0 0 1 .038.004c.01.01.013.026.007.04-.155.334-.377.504-.606.65a.036.036 0 0 0-.016.029c0 .012.004.023.013.03.343.269.778.375 1.2.294l.555-.14c.02-.006.125-.047.154.01.012.051.02.103.022.155.03.191.028.35.008.483-.777.116-2.226.684-2.336.757-.32.217-.57.55-.658.874a.787.787 0 0 0 .119.667c.137.19.352.302.58.302h6.545c.5.002.853-.516.686-1.01-.267-.788-.976-1.052-1.044-1.083z"/>
</svg>
