<?xml version="1.0" encoding="UTF-8"?>
<svg width="9px" height="9px" viewBox="0 0 9 9" version="1.1" xmlns="http://www.w3.org/2000/svg" xmlns:xlink="http://www.w3.org/1999/xlink">
    <defs>
        <filter x="-11.6%" y="-17.2%" width="123.1%" height="134.5%" filterUnits="objectBoundingBox" id="filter-1">
            <feOffset dx="0" dy="2" in="SourceAlpha" result="shadowOffsetOuter1"></feOffset>
            <feGaussianBlur stdDeviation="4" in="shadowOffsetOuter1" result="shadowBlurOuter1"></feGaussianBlur>
            <feColorMatrix values="0 0 0 0 0.634655456   0 0 0 0 0.466910896   0 0 0 0 0.77754897  0 0 0 0.12 0" type="matrix" in="shadowBlurOuter1" result="shadowMatrixOuter1"></feColorMatrix>
            <feMerge>
                <feMergeNode in="shadowMatrixOuter1"></feMergeNode>
                <feMergeNode in="SourceGraphic"></feMergeNode>
            </feMerge>
        </filter>
    </defs>
    <g id="初稿" stroke="none" stroke-width="1" fill="none" fill-rule="evenodd">
        <g id="榜单" transform="translate(-18.000000, -148.000000)" fill="#FFFFFF" fill-rule="nonzero">
            <g id="编组" filter="url(#filter-1)" transform="translate(10.000000, 140.000000)">
                <g id="编组-3" transform="translate(8.000000, 8.000000)">
                    <path d="M7.64480235,0.529411765 C8.34923058,0.529411765 8.92812816,1.09848772 8.99379629,1.82613502 L9,1.96432692 L9,6.35294118 C9,7.75639419 7.96846406,8.90474683 6.66437569,8.99436952 L6.5,9 L2.5,9 C1.1745166,9 0.089961328,7.90778548 0.00531767968,6.52698602 L0,6.35294118 L0,1.96501465 C0,1.17215307 0.607033454,0.529411765 1.35584717,0.529411765 C1.63198954,0.529411765 1.85584717,0.766437485 1.85584717,1.05882353 C1.85584717,1.31872224 1.67897201,1.53487945 1.4457228,1.57970576 L1.35584717,1.58823529 C1.18388432,1.58823529 1.04041097,1.71738847 1.00722955,1.88908047 L1,1.96501465 L1,6.35294118 C1,7.17850177 1.59488808,7.85694566 2.35553999,7.93390598 L2.5,7.94117647 L6.5,7.94117647 C7.27969612,7.94117647 7.92044868,7.31129497 7.99313342,6.50589883 L8,6.35294118 L8,1.96432692 C8,1.78258096 7.87824464,1.63094528 7.71638707,1.59587614 L7.64480235,1.58823529 C7.36865998,1.58823529 7.14480235,1.35120957 7.14480235,1.05882353 C7.14480235,0.766437485 7.36865998,0.529411765 7.64480235,0.529411765 Z M4,5.29411765 C4.27614237,5.29411765 4.5,5.51797527 4.5,5.79411765 L4.5,5.85294118 C4.5,6.12908355 4.27614237,6.35294118 4,6.35294118 L3,6.35294118 C2.72385763,6.35294118 2.5,6.12908355 2.5,5.85294118 L2.5,5.79411765 C2.5,5.51797527 2.72385763,5.29411765 3,5.29411765 L4,5.29411765 Z M6,3.17647059 C6.27614237,3.17647059 6.5,3.40032821 6.5,3.67647059 L6.5,3.73529412 C6.5,4.01143649 6.27614237,4.23529412 6,4.23529412 L3,4.23529412 C2.72385763,4.23529412 2.5,4.01143649 2.5,3.73529412 L2.5,3.67647059 C2.5,3.40032821 2.72385763,3.17647059 3,3.17647059 L6,3.17647059 Z M3,0 C3.24545989,0 3.44960837,0.124853055 3.49194433,0.289499554 L3.5,0.352941176 L3.5,1.76470588 C3.5,1.95962991 3.27614237,2.11764706 3,2.11764706 C2.75454011,2.11764706 2.55039163,1.992794 2.50805567,1.82814751 L2.5,1.76470588 L2.5,0.352941176 C2.5,0.158017147 2.72385763,0 3,0 Z M6,0 C6.24545989,0 6.44960837,0.124853055 6.49194433,0.289499554 L6.5,0.352941176 L6.5,1.76470588 C6.5,1.95962991 6.27614237,2.11764706 6,2.11764706 C5.75454011,2.11764706 5.55039163,1.992794 5.50805567,1.82814751 L5.5,1.76470588 L5.5,0.352941176 C5.5,0.158017147 5.72385763,0 6,0 Z" id="形状结合"></path>
                </g>
            </g>
        </g>
    </g>
</svg>