<?xml version="1.0" encoding="UTF-8"?>
<svg width="12px" height="12px" viewBox="0 0 12 12" version="1.1" xmlns="http://www.w3.org/2000/svg" xmlns:xlink="http://www.w3.org/1999/xlink">
    <g id="初稿" stroke="none" stroke-width="1" fill="none" fill-rule="evenodd">
        <g id="拍卖房-亲密升级" transform="translate(-189.000000, -175.000000)" fill="#FFFFFF">
            <g id="倒计时备份" transform="translate(183.000000, 172.000000)">
                <g id="回合结束" transform="translate(4.000000, 1.200000)">
                    <path d="M7.85356371,2.18309827 C8.30061455,2.18309827 8.66302087,2.54550458 8.66302087,2.99255542 L8.66209827,6.64409827 L12.314572,6.64410656 C12.7616229,6.64410656 13.1240292,7.00651288 13.1240292,7.45356371 C13.1240292,7.90061455 12.7616229,8.26302087 12.314572,8.26302087 L8.66209827,8.26209827 L8.66302087,11.914572 C8.66302087,12.3616229 8.30061455,12.7240292 7.85356371,12.7240292 C7.40651288,12.7240292 7.04410656,12.3616229 7.04410656,11.914572 L7.04409827,8.26209827 L3.39255542,8.26302087 C2.94550458,8.26302087 2.58309827,7.90061455 2.58309827,7.45356371 C2.58309827,7.00651288 2.94550458,6.64410656 3.39255542,6.64410656 L7.04409827,6.64409827 L7.04410656,2.99255542 C7.04410656,2.54550458 7.40651288,2.18309827 7.85356371,2.18309827 Z" id="形状结合" transform="translate(7.853564, 7.453564) rotate(-315.000000) translate(-7.853564, -7.453564) "></path>
                </g>
            </g>
        </g>
    </g>
</svg>