<?xml version="1.0" encoding="UTF-8"?>
<svg width="59px" height="20px" viewBox="0 0 59 20" version="1.1" xmlns="http://www.w3.org/2000/svg" xmlns:xlink="http://www.w3.org/1999/xlink">
    <g id="初稿" stroke="none" stroke-width="1" fill="none" fill-rule="evenodd" fill-opacity="0.5" opacity="0.699999988">
        <g id="拍卖房-竞拍设置" transform="translate(-157.000000, -137.000000)" fill="#FFFFFF" stroke="#53008E">
            <g id="未开始模块背景" transform="translate(157.000000, 137.000000)">
                <path d="M50,1.5 C52.3472102,1.5 54.4722102,2.45139491 56.0104076,3.98959236 C57.5486051,5.52778981 58.5,7.65278981 58.5,10 C58.5,12.3472102 57.5486051,14.4722102 56.0104076,16.0104076 C54.4722102,17.5486051 52.3472102,18.5 50,18.5 L50,18.5 L9,18.5 C6.65278981,18.5 4.52778981,17.5486051 2.98959236,16.0104076 C1.45139491,14.4722102 0.5,12.3472102 0.5,10 C0.5,7.65278981 1.45139491,5.52778981 2.98959236,3.98959236 C4.52778981,2.45139491 6.65278981,1.5 9,1.5 L9,1.5 L50,1.5 Z" id="矩形"></path>
            </g>
        </g>
    </g>
</svg>