<?xml version="1.0" encoding="UTF-8"?>
<svg width="26px" height="26px" viewBox="0 0 26 26" version="1.1" xmlns="http://www.w3.org/2000/svg" xmlns:xlink="http://www.w3.org/1999/xlink">
    <defs>
        <filter id="filter-1">
            <feColorMatrix in="SourceGraphic" type="matrix" values="0 0 0 0 1.000000 0 0 0 0 1.000000 0 0 0 0 1.000000 0 0 0 1.000000 0"></feColorMatrix>
        </filter>
    </defs>
    <g id="初稿" stroke="none" stroke-width="1" fill="none" fill-rule="evenodd">
        <g id="拍卖房-竞拍设置" transform="translate(-276.000000, -273.000000)">
            <g id="people（空状态）" transform="translate(276.000000, 273.000000)">
                <g id="编组-16" transform="translate(1.000000, 1.000000)">
                    <circle id="base" stroke-opacity="0.3" stroke="#FFFFFF" fill-opacity="0.5" fill="#FFFFFF" cx="12" cy="12" r="12.5"></circle>
                    <g id="icon-老板椅" transform="translate(6.200000, 6.200000)">
                        <rect id="矩形" x="1" y="1" width="9.6" height="9.6"></rect>
                        <g filter="url(#filter-1)" id="老板椅备份">
                            <g>
                                <path d="M5.6,0 C7.25773448,0 8.44077546,0.440850283 9.29321899,1.15360876 C9.98290089,1.73027641 9.98533496,2.48493124 9.9611212,3.32810117 C9.9027435,3.32441463 9.84434632,3.32266667 9.78532049,3.32266667 L9.78532049,3.32266667 L9.61914451,3.32266667 C9.53778697,3.32266667 9.4565685,3.32998202 9.37631792,3.34453809 C8.57166135,3.49048885 7.72940883,4.20670412 7.86351826,5.08240867 L7.86351826,5.08240867 L7.88590687,5.2286013 C7.03223915,4.93380845 6.71677712,4.816 5.61840894,4.816 C4.52006037,4.816 4.2046136,4.93380324 3.35091012,5.22860708 L3.35091012,5.22860708 L3.37329962,5.08240867 C3.38667472,4.99507227 3.39339657,4.90668254 3.39339657,4.81814144 C3.39339657,3.93035764 2.43342916,3.32266667 1.61767337,3.32266667 L1.61767337,3.32266667 L1.42504668,3.3228671 L1.42504668,3.3228671 L1.3986011,3.32346838 C1.34477976,3.32510015 1.29154383,3.32816968 1.23897894,3.33267939 C1.21465904,2.48733028 1.21600308,1.73119285 1.90678101,1.15360876 C2.75922454,0.440850283 3.94226552,0 5.6,0 Z" id="形状结合" fill="#FFFFFF"></path>
                                <path d="M2.52,10.9013333 C2.05608081,10.9013333 1.68,10.5252525 1.68,10.0613333 L1.68007925,9.97717333 C1.17687764,9.7033421 0.770470602,9.2600853 0.546951479,8.70552614 C0.275650493,8.03241843 0.14,7.43902083 0.14,6.92533333 C0.14,6.50089666 0.143017645,6.08363915 0.149052934,5.6735608 C0.159729799,4.94943253 0.749782475,4.368 1.47398946,4.368 L1.57507891,4.368 C2.14231223,4.368 2.60214568,4.82783346 2.60214568,5.39506677 C2.60214568,5.44636249 2.59830283,5.49758614 2.59064938,5.54830769 C2.53905103,5.89026437 2.77443297,6.20930376 3.11638965,6.2609021 C3.21257947,6.27541633 3.31082806,6.26731982 3.40333712,6.23723298 C4.00952095,6.04024005 4.74784908,5.94174359 5.61832151,5.94174359 C6.48879393,5.94174359 7.22712206,6.04024005 7.8333059,6.23723298 C8.16219541,6.34413691 8.51546394,6.16415876 8.62234619,5.8352622 C8.65241136,5.7427461 8.66050786,5.64449751 8.64599364,5.54830769 C8.56136102,4.98742361 8.94743911,4.46412893 9.50832319,4.3794963 C9.55904474,4.37184286 9.61026839,4.368 9.66156411,4.368 L9.7145838,4.368 C10.424657,4.368 11.007838,4.92906762 11.0352418,5.6386118 C11.0517473,6.06548553 11.06,6.49439271 11.06,6.92533333 C11.06,7.42194891 10.9304155,8.00476091 10.6712465,8.67376935 C10.4501565,9.24448966 10.0361079,9.7007621 9.52083139,9.97975015 L9.52,10.0613333 C9.52,10.5252525 9.14391919,10.9013333 8.68,10.9013333 C8.29302894,10.9013333 7.96717413,10.6396636 7.86972414,10.2836128 L3.33027586,10.2836128 C3.23282587,10.6396636 2.90697106,10.9013333 2.52,10.9013333 Z" id="形状结合" fill="#FFFFFF"></path>
                            </g>
                        </g>
                    </g>
                </g>
            </g>
        </g>
    </g>
</svg>