<?xml version="1.0" encoding="UTF-8"?>
<svg width="12px" height="12px" viewBox="0 0 12 12" version="1.1" xmlns="http://www.w3.org/2000/svg" xmlns:xlink="http://www.w3.org/1999/xlink">
    <g id="初稿" stroke="none" stroke-width="1" fill="none" fill-rule="evenodd">
        <g id="拍卖房-亲密升级" transform="translate(-127.000000, -175.000000)" fill="#FFFFFF" fill-rule="nonzero">
            <g id="倒计时" transform="translate(120.000000, 172.000000)">
                <g id="秒表" transform="translate(7.000000, 3.000000)">
                    <path d="M5.82289417,1.84498256 C7.22264018,1.84498256 8.48953381,2.39294575 9.40673484,3.2777024 C10.3272534,4.16565924 10.8957883,5.39258053 10.8957883,6.74727529 C10.8957883,8.10197006 10.3272534,9.32889135 9.40673484,10.2168482 C8.48953381,11.1016048 7.22264018,11.649568 5.82289417,11.649568 C4.42314816,11.649568 3.15625453,11.1016048 2.2390535,10.2168482 C1.31853493,9.32889135 0.75,8.10197006 0.75,6.74727529 C0.75,5.39258053 1.31853493,4.16565924 2.2390535,3.2777024 C3.15625453,2.39294575 4.42314816,1.84498256 5.82289417,1.84498256 Z M6.08345467,2.99260963 L5.56226823,2.99260963 L5.32017517,3.01517921 C4.44050196,3.12379626 3.65189909,3.5139817 3.05520372,4.0896098 C2.40738384,4.71455738 1.9858511,5.5583261 1.92189211,6.4965561 L1.92189211,6.4965561 L1.92163241,6.9975847 L1.94339112,7.21758876 C2.0568516,8.09006462 2.48560266,8.86911143 3.1642259,9.44872959 C3.8795139,10.0596634 4.86949618,10.4483309 6.05754979,10.5028887 C7.06339037,10.4457474 7.96729637,10.0216423 8.62599044,9.30962674 C9.26252848,8.62156071 9.66861904,7.66679265 9.72561242,6.52065201 C9.66788892,5.57795311 9.24919653,4.72931139 8.60196335,4.10009901 C7.94992689,3.46621709 7.06605752,3.05478438 6.08345467,2.99260963 L6.08345467,2.99260963 Z" id="形状" stroke="#FFFFFF" stroke-width="0.5"></path>
                    <path d="M7.25672757,0 L4.38906077,0 C4.08554005,4.84125899e-05 3.83731681,0.23953078 3.83731681,0.53777022 C3.83731681,0.836009661 4.08554005,1.07549203 4.38903509,1.07554044 L7.25672757,1.07554044 C7.56024829,1.07549203 7.80847152,0.836009661 7.80847152,0.53777022 C7.80847152,0.23953078 7.56024829,4.84125899e-05 7.25672757,0 Z" id="路径"></path>
                    <path d="M5.82296712,5.94448881 C5.525609,5.94444139 5.25081772,6.09744125 5.10212447,6.34584373 C4.95343121,6.59424621 4.95343121,6.90030437 5.10212447,7.14870685 C5.25081772,7.39710933 5.525609,7.55010919 5.82296712,7.55006177 C6.28253854,7.54998845 6.65505449,7.19059018 6.65505449,6.74727529 C6.65505449,6.3039604 6.28253854,5.94456213 5.82296712,5.94448881 Z" id="路径"></path>
                    <polygon id="路径-2" points="7.43033426 4.55016196 8.0024589 5.11405664 6.10999928 7.02922263 5.53787463 6.46532795"></polygon>
                    <path d="M7.37313194,4.49376222 C7.56023544,4.30442514 7.86559761,4.30242025 8.05517744,4.48928419 C8.22369284,4.65538546 8.24400291,4.91480604 8.11502705,5.10338191 L8.05966122,5.17045638 L6.16609414,7.08662827 C5.97899064,7.27596536 5.67362847,7.27797024 5.48404865,7.09110631 C5.31553325,6.92500504 5.29522318,6.66558446 5.42419903,6.47700859 L5.47956487,6.40993411 L7.37313194,4.49376222 Z" id="路径-4"></path>
                </g>
            </g>
        </g>
    </g>
</svg>