<?xml version="1.0" encoding="UTF-8"?>
<svg width="33px" height="22px" viewBox="0 0 33 22" version="1.1" xmlns="http://www.w3.org/2000/svg" xmlns:xlink="http://www.w3.org/1999/xlink">
    <g id="初稿" stroke="none" stroke-width="1" fill="none" fill-rule="evenodd">
        <g id="拍卖房-竞拍设置" transform="translate(-170.000000, -201.000000)" fill-rule="nonzero">
            <g id="礼物空态备份" transform="translate(170.000000, 201.000000)">
                <path d="M29.0622517,15.628022 L29.0622517,15.3197802 C29.0622517,14.8846154 29.1549669,14.4857143 29.3589404,14.1230769 C29.5258278,13.7967033 29.7854305,13.4703297 30.1377483,13.1802198 C31.0092715,12.4368132 31.5284768,11.9653846 31.6953642,11.7659341 C32.1589404,11.1857143 32.4,10.4423077 32.4,9.55384615 C32.4,8.46593407 32.0291391,7.5956044 31.2874172,6.96098901 C30.5456954,6.30824176 29.581457,6 28.394702,6 C27.0225166,6 25.9470199,6.38076923 25.1682119,7.16043956 C24.389404,7.92197802 24,8.95549451 24,10.2791209 L25.9470199,10.2791209 C25.9470199,9.48131868 26.1139073,8.86483516 26.4476821,8.42967033 C26.818543,7.90384615 27.4304636,7.65 28.2649007,7.65 C28.9324503,7.65 29.4701987,7.83131868 29.8410596,8.19395604 C30.1933775,8.55659341 30.3788079,9.04615385 30.3788079,9.68076923 C30.3788079,10.1521978 30.1933775,10.5873626 29.8596026,11.0043956 L29.5443709,11.3489011 C28.394702,12.3461538 27.6900662,13.0895604 27.4490066,13.5972527 C27.189404,14.0686813 27.0781457,14.6489011 27.0781457,15.3197802 L27.0781457,15.628022 L29.0622517,15.628022 Z M28.0609272,19.2 C28.4317881,19.2 28.7655629,19.0730769 29.0251656,18.8373626 C29.2847682,18.5835165 29.4331126,18.2752747 29.4331126,17.8945055 C29.4331126,17.5137363 29.3033113,17.2054945 29.0437086,16.9697802 C28.784106,16.7159341 28.4503311,16.6071429 28.0609272,16.6071429 C27.6900662,16.6071429 27.3562914,16.7159341 27.0966887,16.9697802 C26.8370861,17.2054945 26.7072848,17.5137363 26.7072848,17.8945055 C26.7072848,18.2571429 26.8370861,18.5653846 27.0966887,18.8192308 C27.3562914,19.0730769 27.6900662,19.2 28.0609272,19.2 Z" id="？" fill="#FEFEFE" opacity="0.3"></path>
                <path d="M5.06225166,15.628022 L5.06225166,15.3197802 C5.06225166,14.8846154 5.15496689,14.4857143 5.3589404,14.1230769 C5.52582781,13.7967033 5.78543046,13.4703297 6.13774834,13.1802198 C7.00927152,12.4368132 7.52847682,11.9653846 7.69536424,11.7659341 C8.1589404,11.1857143 8.4,10.4423077 8.4,9.55384615 C8.4,8.46593407 8.02913907,7.5956044 7.28741722,6.96098901 C6.54569536,6.30824176 5.58145695,6 4.39470199,6 C3.02251656,6 1.94701987,6.38076923 1.16821192,7.16043956 C0.389403974,7.92197802 0,8.95549451 0,10.2791209 L1.94701987,10.2791209 C1.94701987,9.48131868 2.11390728,8.86483516 2.44768212,8.42967033 C2.81854305,7.90384615 3.43046358,7.65 4.26490066,7.65 C4.93245033,7.65 5.47019868,7.83131868 5.8410596,8.19395604 C6.19337748,8.55659341 6.37880795,9.04615385 6.37880795,9.68076923 C6.37880795,10.1521978 6.19337748,10.5873626 5.85960265,11.0043956 L5.54437086,11.3489011 C4.39470199,12.3461538 3.69006623,13.0895604 3.44900662,13.5972527 C3.18940397,14.0686813 3.0781457,14.6489011 3.0781457,15.3197802 L3.0781457,15.628022 L5.06225166,15.628022 Z M4.06092715,19.2 C4.43178808,19.2 4.76556291,19.0730769 5.02516556,18.8373626 C5.28476821,18.5835165 5.43311258,18.2752747 5.43311258,17.8945055 C5.43311258,17.5137363 5.30331126,17.2054945 5.04370861,16.9697802 C4.78410596,16.7159341 4.45033113,16.6071429 4.06092715,16.6071429 C3.69006623,16.6071429 3.35629139,16.7159341 3.09668874,16.9697802 C2.83708609,17.2054945 2.70728477,17.5137363 2.70728477,17.8945055 C2.70728477,18.2571429 2.83708609,18.5653846 3.09668874,18.8192308 C3.35629139,19.0730769 3.69006623,19.2 4.06092715,19.2 Z" id="？备份" fill="#FEFEFE" opacity="0.3"></path>
                <path d="M17.5549669,15.7549451 L17.5549669,15.2505495 C17.5549669,14.5384615 17.7006623,13.8857143 18.0211921,13.2923077 C18.2834437,12.7582418 18.6913907,12.2241758 19.2450331,11.7494505 C20.6145695,10.532967 21.4304636,9.76153846 21.6927152,9.43516484 C22.4211921,8.48571429 22.8,7.26923077 22.8,5.81538462 C22.8,4.03516484 22.2172185,2.61098901 21.0516556,1.57252747 C19.8860927,0.504395604 18.3708609,0 16.5059603,0 C14.3496689,0 12.6596026,0.623076923 11.4357616,1.8989011 C10.2119205,3.14505495 9.6,4.83626374 9.6,7.0021978 L12.6596026,7.0021978 C12.6596026,5.6967033 12.9218543,4.68791209 13.4463576,3.97582418 C14.0291391,3.11538462 14.9907285,2.7 16.3019868,2.7 C17.3509934,2.7 18.1960265,2.9967033 18.7788079,3.59010989 C19.3324503,4.18351648 19.6238411,4.98461538 19.6238411,6.02307692 C19.6238411,6.79450549 19.3324503,7.50659341 18.807947,8.18901099 L18.3125828,8.75274725 C16.5059603,10.3846154 15.3986755,11.6010989 15.0198675,12.4318681 C14.6119205,13.2032967 14.4370861,14.1527473 14.4370861,15.2505495 L14.4370861,15.7549451 L17.5549669,15.7549451 Z M15.981457,21.6 C16.5642384,21.6 17.0887417,21.3923077 17.4966887,21.0065934 C17.9046358,20.5912088 18.1377483,20.0868132 18.1377483,19.4637363 C18.1377483,18.8406593 17.9337748,18.3362637 17.5258278,17.9505495 C17.1178808,17.5351648 16.5933775,17.3571429 15.981457,17.3571429 C15.3986755,17.3571429 14.8741722,17.5351648 14.4662252,17.9505495 C14.0582781,18.3362637 13.8543046,18.8406593 13.8543046,19.4637363 C13.8543046,20.0571429 14.0582781,20.5615385 14.4662252,20.9769231 C14.8741722,21.3923077 15.3986755,21.6 15.981457,21.6 Z" id="？备份-2" fill="#FFFFFF" opacity="0.8"></path>
            </g>
        </g>
    </g>
</svg>