<?xml version="1.0" encoding="UTF-8"?>
<svg xmlns="http://www.w3.org/2000/svg" xmlns:xlink="http://www.w3.org/1999/xlink" width="24px" height="24px" viewBox="0 0 24 24" version="1.1">
  <title>bbpd_所有人</title>
  <g id="控件" stroke="none" stroke-width="1" fill="none" fill-rule="evenodd">
    <g id="编组-12">
      <g id="编组-11">
        <rect id="矩形" x="0" y="0" width="24" height="24"/>
      </g>
      <g id="编组-9" transform="translate(1.000000, 2.000000)">
        <g id="编组-8" fill="#FFFFFF">
          <path d="M8.74980687,0.0360074357 C10.4294016,0.0360074357 11.9431977,0.745875376 13.0075416,1.8819575 C11.2804084,2.87709482 10.1180894,4.74152044 10.1180894,6.87742021 C10.1180894,7.734992 10.3054614,8.54880072 10.6414994,9.28014054 C8.97131784,10.0586508 7.81361354,11.7535437 7.81361354,13.718833 C7.81361354,16.3502818 9.88916996,18.4969585 12.4924927,18.6110729 L12.7106248,18.6158442 L15.7739617,18.6167079 C14.8827583,19.4640848 13.6773855,19.9841268 12.3505504,19.9841268 L5.00503356,19.9841268 C2.26071621,19.9841268 0.0360074357,17.759418 0.0360074357,15.0151007 C0.0360074357,12.3765687 2.09250983,10.2183586 4.69009125,10.0558938 C3.59642701,8.99776711 2.91660229,7.51288034 2.91660229,5.86921201 C2.91660229,2.64762208 5.52821694,0.0360074357 8.74980687,0.0360074357 Z M15.8792791,2.5205205 C18.2855284,2.5205205 20.2361788,4.47117094 20.2361788,6.87742021 C20.2361788,8.11914778 19.7167203,9.2395493 18.8832567,10.0331714 C20.7374042,10.2367569 22.1805804,11.809259 22.1805804,13.718833 C22.1805804,15.7671278 20.5201093,17.4275989 18.4718145,17.4275989 L12.9986843,17.4275989 C10.9503894,17.4275989 9.2899184,15.7671278 9.2899184,13.718833 C9.2899184,11.7181651 10.8740686,10.0874954 12.8564484,10.0127443 C12.0337572,9.22204458 11.5223794,8.10945173 11.5223794,6.87742021 C11.5223794,4.47117094 13.4730299,2.5205205 15.8792791,2.5205205 Z" id="形状结合"/>
        </g>
        <g id="编组-8" transform="translate(9.289918, 2.520520)"/>
      </g>
    </g>
  </g>
</svg>
