<?xml version="1.0" encoding="UTF-8"?>
<svg xmlns="http://www.w3.org/2000/svg" xmlns:xlink="http://www.w3.org/1999/xlink" width="28px" height="28px" viewBox="0 0 28 28" version="1.1">
  <title>bbpd_ic_next_small@2x</title>
  <g id="页面-1" stroke="none" stroke-width="1" fill="none" fill-rule="evenodd">
    <g id="商城首页" transform="translate(-690.000000, -1496.000000)">
      <g id="编组-9" transform="translate(32.000000, 1494.000000)">
        <g id="arrow" transform="translate(610.000000, 2.000000)">
          <g id="ic_next_small" transform="translate(48.000000, 0.000000)">
            <rect id="#" x="0" y="0" width="28" height="28"/>
            <path d="M17.8219223,6.07192235 C18.2878888,5.60595587 19.0170503,5.56359528 19.5308704,5.94484058 L19.6780777,6.07192235 L26.6780777,13.0719223 C27.1440441,13.5378888 27.1864047,14.2670503 26.8051594,14.7808704 L26.6780777,14.9280777 L19.6780777,21.9280777 C19.1655145,22.4406408 18.3344855,22.4406408 17.8219223,21.9280777 C17.3559559,21.4621112 17.3135953,20.7329497 17.6948406,20.2191296 L17.8219223,20.0719223 L23.89325,14 L17.8219223,7.92807765 C17.3559559,7.46211117 17.3135953,6.73294972 17.6948406,6.21912961 L17.8219223,6.07192235 Z" id="arrow" fill-opacity="0.5" fill="#000000" fill-rule="nonzero"/>
          </g>
        </g>
      </g>
    </g>
  </g>
</svg>
