<svg width="10" height="10" viewBox="0 0 10 10" xmlns="http://www.w3.org/2000/svg"><defs><linearGradient x1="0%" y1="0%" y2="100%" id="a"><stop stop-color="#FBF5D4" offset=".03%"/><stop stop-color="#DDB36A" offset="100%"/></linearGradient></defs><path d="M136.007 19.717l-1.298.682a.983.983 0 0 1-1.427-1.036l.248-1.446a1 1 0 0 0-.287-.885l-1.05-1.023a.983.983 0 0 1 .544-1.677l1.452-.211a1 1 0 0 0 .753-.547l.649-1.315a.983.983 0 0 1 1.763 0l.649 1.315a1 1 0 0 0 .753.547l1.451.21a.983.983 0 0 1 .545 1.678l-1.05 1.023a1 1 0 0 0-.288.885l.248 1.446a.983.983 0 0 1-1.426 1.036l-1.298-.682a1 1 0 0 0-.931 0z" transform="scale(-1 1) rotate(-15 22.166 548.03)" fill="url(#a)" fill-rule="evenodd"/></svg>