<svg width="19" height="20" viewBox="0 0 19 20" xmlns="http://www.w3.org/2000/svg"><defs><linearGradient x1="0%" y1="0%" y2="100%" id="a"><stop stop-color="#FBF5D4" offset=".03%"/><stop stop-color="#DDB36A" offset="100%"/></linearGradient></defs><path d="M13.007 19.217L8.8 21.428a1 1 0 0 1-1.45-1.054l.803-4.684a1 1 0 0 0-.288-.885l-3.403-3.318a1 1 0 0 1 .554-1.705l4.703-.684a1 1 0 0 0 .753-.547l2.103-4.262a1 1 0 0 1 1.794 0l2.103 4.262a1 1 0 0 0 .753.547l4.704.684a1 1 0 0 1 .554 1.705l-3.404 3.318a1 1 0 0 0-.287.885l.803 4.684a1 1 0 0 1-1.45 1.054l-4.207-2.211a1 1 0 0 0-.931 0z" transform="rotate(-15 -1.45 24.923)" fill="url(#a)" fill-rule="evenodd"/></svg>