<?xml version="1.0" encoding="UTF-8"?>
<svg xmlns="http://www.w3.org/2000/svg" xmlns:xlink="http://www.w3.org/1999/xlink" width="20px" height="20px" viewBox="0 0 20 20" version="1.1">
  <title>bbpd_ic_order_noti</title>
  <g id="ic_order_noti" stroke="none" stroke-width="1" fill="none" fill-rule="evenodd" opacity="0.779999971">
    <g>
      <path d="M10,2.41666667 C12.0940797,2.41666667 13.989913,3.26546016 15.3622264,4.63777358 C16.7345398,6.01008699 17.5833333,7.90592032 17.5833333,10 C17.5833333,12.0940797 16.7345398,13.989913 15.3622264,15.3622264 C13.989913,16.7345398 12.0940797,17.5833333 10,17.5833333 C7.90592032,17.5833333 6.01008699,16.7345398 4.63777358,15.3622264 C3.26546016,13.989913 2.41666667,12.0940797 2.41666667,10 C2.41666667,7.90592032 3.26546016,6.01008699 4.63777358,4.63777358 C6.01008699,3.26546016 7.90592032,2.41666667 10,2.41666667 Z" id="形状结合" stroke="#FFFFFF" stroke-width="1.5"/>
      <rect id="矩形" fill="#FFFFFF" x="9.16666667" y="8.33333333" width="1.66666667" height="5.83333333" rx="0.833333333"/>
      <rect id="矩形" fill="#FFFFFF" x="9.16666667" y="5.83333333" width="1.66666667" height="1.66666667" rx="0.833333333"/>
    </g>
  </g>
</svg>
