<?xml version="1.0" encoding="UTF-8"?>
<svg xmlns="http://www.w3.org/2000/svg" xmlns:xlink="http://www.w3.org/1999/xlink" width="16px" height="16px" viewBox="0 0 16 16" version="1.1">
  <title>bbpd_编组 15</title>
  <g id="认证主播" stroke="none" stroke-width="1" fill="none" fill-rule="evenodd">
    <g id="游戏资质" transform="translate(-148.000000, -710.000000)">
      <g id="编组-18" transform="translate(148.000000, 708.000000)">
        <g id="编组-15" transform="translate(0.000000, 2.000000)">
          <path d="M8,0 C12.418278,0 16,3.581722 16,8 C16,12.418278 12.418278,16 8,16 C3.581722,16 0,12.418278 0,8 C0,3.581722 3.581722,0 8,0 Z M8,3 C7.44771525,3 7,3.44771525 7,4 L7,4 L7,6.999 L4,7 C3.48716416,7 3.06449284,7.38604019 3.00672773,7.88337887 L3,8 C3,8.55228475 3.44771525,9 4,9 L4,9 L7,9 L7,12 C7,12.5128358 7.38604019,12.9355072 7.88337887,12.9932723 L8,13 C8.55228475,13 9,12.5522847 9,12 L9,12 L9,9 L12,9 C12.5128358,9 12.9355072,8.61395981 12.9932723,8.11662113 L13,8 C13,7.44771525 12.5522847,7 12,7 L12,7 L9,7 L9,4 C9,3.48716416 8.61395981,3.06449284 8.11662113,3.00672773 Z" id="形状结合" fill="#202020"/>
          <g id="编组-13" transform="translate(3.000000, 3.000000)"/>
        </g>
      </g>
    </g>
  </g>
</svg>
