<?xml version="1.0" encoding="UTF-8"?>
<svg xmlns="http://www.w3.org/2000/svg" xmlns:xlink="http://www.w3.org/1999/xlink" width="16px" height="16px" viewBox="0 0 16 16" version="1.1">
  <title>bbpd_ic_delete</title>
  <g id="调整" stroke="none" stroke-width="1" fill="none" fill-rule="evenodd">
    <g id="添加资质" transform="translate(-46.000000, -389.000000)">
      <g id="condition" transform="translate(24.000000, 337.000000)">
        <g id="ic_delete" transform="translate(22.000000, 52.000000)">
          <circle id="base" fill="#FF5F7D" cx="8" cy="8" r="8"/>
          <path d="M8,9.09665274 L5.64497912,11.4516736 C5.34214682,11.7545059 4.85115867,11.7545059 4.54832637,11.4516736 C4.24549408,11.1488413 4.24549408,10.6578532 4.54832637,10.3550209 L6.90334726,8 L6.90334726,8 L4.54832637,5.64497912 C4.24549408,5.34214682 4.24549408,4.85115867 4.54832637,4.54832637 C4.85115867,4.24549408 5.34214682,4.24549408 5.64497912,4.54832637 L8,6.90334726 L8,6.90334726 L10.3550209,4.54832637 C10.6578532,4.24549408 11.1488413,4.24549408 11.4516736,4.54832637 C11.7545059,4.85115867 11.7545059,5.34214682 11.4516736,5.64497912 L9.09665274,8 L9.09665274,8 L11.4516736,10.3550209 C11.7545059,10.6578532 11.7545059,11.1488413 11.4516736,11.4516736 C11.1488413,11.7545059 10.6578532,11.7545059 10.3550209,11.4516736 L8,9.09665274 L8,9.09665274 Z" id="x" fill="#FFFFFF" fill-rule="nonzero"/>
        </g>
      </g>
    </g>
  </g>
</svg>
